SplineFontDB: 3.0
FontName: Limelight
FullName: Limelight
FamilyName: Limelight
Weight: Book
Copyright: Copyright (c) 2010 by Sorkin Type Co with Reserved Font Name Limelight.\n\nThis Font Software is licensed under the SIL Open Font License, Version 1.1.\nThis license is available with a FAQ at: http://scripts.sil.org/OFL
Version: 1.002
ItalicAngle: 0
UnderlinePosition: -50
UnderlineWidth: 50
Ascent: 1638
Descent: 410
sfntRevision: 0x00010083
LayerCount: 2
Layer: 0 1 "Back"  1
Layer: 1 1 "Fore"  0
XUID: [1021 288 713564382 5115600]
FSType: 0
OS2Version: 3
OS2_WeightWidthSlopeOnly: 0
OS2_UseTypoMetrics: 1
CreationTime: 1304605860
ModificationTime: 1307078516
PfmFamily: 17
TTFWeight: 400
TTFWidth: 5
LineGap: 0
VLineGap: 0
Panose: 2 0 0 0 0 0 0 0 0 0
OS2TypoAscent: 1920
OS2TypoAOffset: 0
OS2TypoDescent: -640
OS2TypoDOffset: 0
OS2TypoLinegap: 0
OS2WinAscent: 1920
OS2WinAOffset: 0
OS2WinDescent: 640
OS2WinDOffset: 0
HheadAscent: -11
HheadAOffset: 1
HheadDescent: -263
HheadDOffset: 1
OS2SubXSize: 1434
OS2SubYSize: 1331
OS2SubXOff: 0
OS2SubYOff: 287
OS2SupXSize: 1434
OS2SupYSize: 1331
OS2SupXOff: 0
OS2SupYOff: 977
OS2StrikeYSize: 102
OS2StrikeYPos: 512
OS2Vendor: 'STC '
OS2CodePages: 20000001.00000000
OS2UnicodeRanges: 800000af.4000204a.00000000.00000000
MarkAttachClasses: 1
DEI: 91125
TtTable: prep
PUSHW_1
 511
SCANCTRL
PUSHB_1
 4
SCANTYPE
EndTTInstrs
ShortTable: maxp 16
  1
  0
  276
  207
  7
  0
  0
  1
  0
  0
  0
  0
  0
  0
  0
  0
EndShort
LangName: 1033 "" "" "Regular" "SorkinType: Limelight: 2011" "" "Version 1.002" "" "" "Sorkin Type" "Sorkin Type" "Limelight is a hight contrast semi geometric typeface with a 20's art deco feeling. It has adapted for use as a web type. " "" "" "Copyright (c) 2010 by Sorkin Type Co, with Reserved Font Name Limelight. +AMoA-Licenced under the SIL Open Font License, Version 1.1, available with a FAQ at+AA0A-http://scripts.sil.org/OFL" "http://scripts.sil.org/OFL" "" "" "" "Limelight" 
GaspTable: 1 65535 15
Encoding: UnicodeBmp

StartChar: exclam
Encoding: 33 33 4
Width: 831
Flags: W
LayerCount: 2
Fore
SplineSet
402 453 m 0,0,1
 385 453 385 453 374.5 464.5 c 128,-1,2
 364 476 364 476 356 508 c 0,3,4
 342 562 342 562 328 610.5 c 128,-1,5
 314 659 314 659 296 706 c 128,-1,6
 278 753 278 753 256 801 c 128,-1,7
 234 849 234 849 205 901 c 0,8,9
 170 963 170 963 149 1004.5 c 128,-1,10
 128 1046 128 1046 116.5 1076.5 c 128,-1,11
 105 1107 105 1107 101 1131 c 128,-1,12
 97 1155 97 1155 97 1183 c 0,13,14
 97 1234 97 1234 119 1279.5 c 128,-1,15
 141 1325 141 1325 181 1359 c 128,-1,16
 221 1393 221 1393 277.5 1413 c 128,-1,17
 334 1433 334 1433 403 1433 c 0,18,19
 476 1433 476 1433 533 1414.5 c 128,-1,20
 590 1396 590 1396 629.5 1363 c 128,-1,21
 669 1330 669 1330 689.5 1284 c 128,-1,22
 710 1238 710 1238 710 1183 c 0,23,24
 710 1154 710 1154 707 1131 c 128,-1,25
 704 1108 704 1108 693.5 1079.5 c 128,-1,26
 683 1051 683 1051 662 1011 c 128,-1,27
 641 971 641 971 606 908 c 0,28,29
 572 848 572 848 549.5 802 c 128,-1,30
 527 756 527 756 510.5 712.5 c 128,-1,31
 494 669 494 669 480.5 620.5 c 128,-1,32
 467 572 467 572 451 508 c 0,33,34
 444 476 444 476 428.5 464.5 c 128,-1,35
 413 453 413 453 402 453 c 0,0,1
196 152 m 0,36,37
 196 237 196 237 251 285 c 128,-1,38
 306 333 306 333 402 333 c 0,39,40
 453 333 453 333 490.5 318.5 c 128,-1,41
 528 304 528 304 553.5 279.5 c 128,-1,42
 579 255 579 255 591.5 221.5 c 128,-1,43
 604 188 604 188 604 151 c 0,44,45
 604 116 604 116 589.5 85.5 c 128,-1,46
 575 55 575 55 548 31.5 c 128,-1,47
 521 8 521 8 483 -5.5 c 128,-1,48
 445 -19 445 -19 397 -19 c 256,49,50
 349 -19 349 -19 311.5 -6.5 c 128,-1,51
 274 6 274 6 248.5 29 c 128,-1,52
 223 52 223 52 209.5 83 c 128,-1,53
 196 114 196 114 196 152 c 0,36,37
EndSplineSet
EndChar

StartChar: quotedbl
Encoding: 34 34 5
Width: 886
Flags: W
LayerCount: 2
Fore
SplineSet
668 827 m 256,0,1
 661 827 661 827 652 829 c 128,-1,2
 643 831 643 831 634 836.5 c 128,-1,3
 625 842 625 842 618 852 c 128,-1,4
 611 862 611 862 608 879 c 0,5,6
 594 974 594 974 575 1044.5 c 128,-1,7
 556 1115 556 1115 538.5 1167.5 c 128,-1,8
 521 1220 521 1220 508.5 1257 c 128,-1,9
 496 1294 496 1294 496 1323 c 0,10,11
 496 1347 496 1347 506 1370 c 128,-1,12
 516 1393 516 1393 537 1410 c 128,-1,13
 558 1427 558 1427 591 1437.5 c 128,-1,14
 624 1448 624 1448 671 1448 c 0,15,16
 750 1448 750 1448 795 1413.5 c 128,-1,17
 840 1379 840 1379 840 1323 c 0,18,19
 840 1299 840 1299 827.5 1262.5 c 128,-1,20
 815 1226 815 1226 797 1172.5 c 128,-1,21
 779 1119 779 1119 758.5 1047.5 c 128,-1,22
 738 976 738 976 723 882 c 0,23,24
 720 865 720 865 714 854.5 c 128,-1,25
 708 844 708 844 700 838 c 128,-1,26
 692 832 692 832 683.5 829.5 c 128,-1,27
 675 827 675 827 668 827 c 256,0,1
218 827 m 256,28,29
 211 827 211 827 202 829 c 128,-1,30
 193 831 193 831 184 836.5 c 128,-1,31
 175 842 175 842 168 852 c 128,-1,32
 161 862 161 862 158 879 c 0,33,34
 144 974 144 974 125 1044.5 c 128,-1,35
 106 1115 106 1115 88.5 1167.5 c 128,-1,36
 71 1220 71 1220 58.5 1257 c 128,-1,37
 46 1294 46 1294 46 1323 c 0,38,39
 46 1347 46 1347 56 1370 c 128,-1,40
 66 1393 66 1393 87 1410 c 128,-1,41
 108 1427 108 1427 141 1437.5 c 128,-1,42
 174 1448 174 1448 221 1448 c 0,43,44
 300 1448 300 1448 345 1413.5 c 128,-1,45
 390 1379 390 1379 390 1323 c 0,46,47
 390 1299 390 1299 377.5 1262.5 c 128,-1,48
 365 1226 365 1226 347 1172.5 c 128,-1,49
 329 1119 329 1119 308.5 1047.5 c 128,-1,50
 288 976 288 976 273 882 c 0,51,52
 270 865 270 865 264 854.5 c 128,-1,53
 258 844 258 844 250 838 c 128,-1,54
 242 832 242 832 233.5 829.5 c 128,-1,55
 225 827 225 827 218 827 c 256,28,29
EndSplineSet
EndChar

StartChar: numbersign
Encoding: 35 35 6
Width: 937
Flags: W
LayerCount: 2
Fore
SplineSet
122 25 m 0,0,1
 122 42 122 42 126.5 57.5 c 128,-1,2
 131 73 131 73 140 93 c 0,3,4
 146 107 146 107 152.5 124 c 128,-1,5
 159 141 159 141 166 165.5 c 128,-1,6
 173 190 173 190 181.5 224 c 128,-1,7
 190 258 190 258 199 306 c 2,8,-1
 244 556 l 1,9,-1
 164 553 l 1,10,11
 150 551 150 551 133 550.5 c 128,-1,12
 116 550 116 550 102 550 c 0,13,14
 78 550 78 550 61.5 562.5 c 128,-1,15
 45 575 45 575 45 593 c 0,16,17
 45 613 45 613 59 623 c 128,-1,18
 73 633 73 633 91 633 c 0,19,20
 105 633 105 633 116 633 c 128,-1,21
 127 633 127 633 145 631 c 0,22,23
 166 629 166 629 194.5 629 c 128,-1,24
 223 629 223 629 258 629 c 1,25,-1
 296 838 l 1,26,27
 276 838 276 838 260 837 c 128,-1,28
 244 836 244 836 230 835 c 0,29,30
 215 833 215 833 198 832.5 c 128,-1,31
 181 832 181 832 169 832 c 0,32,33
 144 832 144 832 128 845 c 128,-1,34
 112 858 112 858 112 876 c 0,35,36
 112 897 112 897 125.5 907 c 128,-1,37
 139 917 139 917 157 917 c 0,38,39
 169 917 169 917 180.5 916.5 c 128,-1,40
 192 916 192 916 210 914 c 0,41,42
 230 912 230 912 255.5 912 c 128,-1,43
 281 912 281 912 310 912 c 1,44,-1
 377 1279 l 2,45,46
 387 1329 387 1329 395.5 1359.5 c 128,-1,47
 404 1390 404 1390 413.5 1406.5 c 128,-1,48
 423 1423 423 1423 433.5 1428 c 128,-1,49
 444 1433 444 1433 458 1433 c 0,50,51
 475 1433 475 1433 487.5 1423 c 128,-1,52
 500 1413 500 1413 500 1392 c 0,53,54
 500 1381 500 1381 496 1368.5 c 128,-1,55
 492 1356 492 1356 487 1342 c 0,56,57
 484 1334 484 1334 480 1321 c 128,-1,58
 476 1308 476 1308 472 1292.5 c 128,-1,59
 468 1277 468 1277 464 1261 c 128,-1,60
 460 1245 460 1245 457 1231 c 2,61,-1
 396 912 l 1,62,-1
 601 912 l 1,63,-1
 669 1279 l 2,64,65
 679 1329 679 1329 687.5 1359.5 c 128,-1,66
 696 1390 696 1390 705.5 1406.5 c 128,-1,67
 715 1423 715 1423 726 1428 c 128,-1,68
 737 1433 737 1433 751 1433 c 0,69,70
 767 1433 767 1433 780 1423 c 128,-1,71
 793 1413 793 1413 793 1392 c 0,72,73
 793 1381 793 1381 789 1368.5 c 128,-1,74
 785 1356 785 1356 780 1342 c 0,75,76
 777 1334 777 1334 773 1321 c 128,-1,77
 769 1308 769 1308 765 1292.5 c 128,-1,78
 761 1277 761 1277 757 1261 c 128,-1,79
 753 1245 753 1245 750 1231 c 2,80,-1
 689 912 l 1,81,82
 718 912 718 912 740 913 c 128,-1,83
 762 914 762 914 774 916 c 1,84,85
 800 918 800 918 813.5 919 c 128,-1,86
 827 920 827 920 838 920 c 0,87,88
 861 920 861 920 875.5 908.5 c 128,-1,89
 890 897 890 897 890 876 c 0,90,91
 890 858 890 858 875 845 c 128,-1,92
 860 832 860 832 834 832 c 0,93,94
 826 832 826 832 811.5 832.5 c 128,-1,95
 797 833 797 833 782 835 c 0,96,97
 772 836 772 836 758.5 836.5 c 128,-1,98
 745 837 745 837 730.5 837.5 c 128,-1,99
 716 838 716 838 701.5 838.5 c 128,-1,100
 687 839 687 839 675 839 c 1,101,-1
 636 629 l 1,102,103
 659 629 659 629 678.5 630 c 128,-1,104
 698 631 698 631 709 633 c 1,105,106
 734 635 734 635 748 636 c 128,-1,107
 762 637 762 637 772 637 c 0,108,109
 795 637 795 637 810 625 c 128,-1,110
 825 613 825 613 825 593 c 0,111,112
 825 575 825 575 809.5 562.5 c 128,-1,113
 794 550 794 550 768 550 c 0,114,115
 760 550 760 550 745.5 550.5 c 128,-1,116
 731 551 731 551 716 553 c 1,117,-1
 622 556 l 1,118,-1
 545 148 l 2,119,120
 534 94 534 94 523.5 61 c 128,-1,121
 513 28 513 28 501.5 10.5 c 128,-1,122
 490 -7 490 -7 479 -13 c 128,-1,123
 468 -19 468 -19 456 -19 c 0,124,125
 435 -19 435 -19 424.5 -5 c 128,-1,126
 414 9 414 9 414 25 c 0,127,128
 414 42 414 42 418.5 57.5 c 128,-1,129
 423 73 423 73 431 93 c 0,130,131
 437 107 437 107 444 124 c 128,-1,132
 451 141 451 141 458 165.5 c 128,-1,133
 465 190 465 190 473 224 c 128,-1,134
 481 258 481 258 490 306 c 2,135,-1
 536 556 l 1,136,-1
 329 556 l 1,137,-1
 252 148 l 2,138,139
 241 94 241 94 230.5 61 c 128,-1,140
 220 28 220 28 209 10.5 c 128,-1,141
 198 -7 198 -7 187 -13 c 128,-1,142
 176 -19 176 -19 164 -19 c 0,143,144
 143 -19 143 -19 132.5 -5 c 128,-1,145
 122 9 122 9 122 25 c 0,0,1
549 629 m 1,146,-1
 588 839 l 1,147,-1
 382 839 l 1,148,-1
 343 629 l 1,149,-1
 549 629 l 1,146,-1
EndSplineSet
EndChar

StartChar: dollar
Encoding: 36 36 7
Width: 1149
Flags: W
LayerCount: 2
Fore
SplineSet
185 86 m 0,0,1
 176 91 176 91 165.5 98.5 c 128,-1,2
 155 106 155 106 145.5 115.5 c 128,-1,3
 136 125 136 125 129.5 137.5 c 128,-1,4
 123 150 123 150 123 165 c 0,5,6
 123 182 123 182 134.5 195.5 c 128,-1,7
 146 209 146 209 163 209 c 256,8,9
 180 209 180 209 192.5 201 c 128,-1,10
 205 193 205 193 225 176 c 0,11,12
 265 141 265 141 314 115 c 128,-1,13
 363 89 363 89 423 74 c 1,14,-1
 511 484 l 1,15,-1
 336 652 l 2,16,17
 270 716 270 716 225.5 770.5 c 128,-1,18
 181 825 181 825 154 877 c 128,-1,19
 127 929 127 929 115.5 981 c 128,-1,20
 104 1033 104 1033 104 1092 c 0,21,22
 104 1159 104 1159 134 1220.5 c 128,-1,23
 164 1282 164 1282 223.5 1329.5 c 128,-1,24
 283 1377 283 1377 372.5 1405 c 128,-1,25
 462 1433 462 1433 581 1433 c 0,26,27
 652 1433 652 1433 711 1424 c 1,28,29
 718 1460 718 1460 723.5 1485.5 c 128,-1,30
 729 1511 729 1511 732 1530 c 0,31,32
 741 1582 741 1582 777 1582 c 0,33,34
 791 1582 791 1582 803 1572 c 128,-1,35
 815 1562 815 1562 815 1541 c 0,36,37
 815 1526 815 1526 811 1507 c 128,-1,38
 807 1488 807 1488 800 1459 c 1,39,-1
 785 1409 l 1,40,41
 794 1406 794 1406 802.5 1403.5 c 128,-1,42
 811 1401 811 1401 819 1398 c 0,43,44
 867 1380 867 1380 896.5 1364.5 c 128,-1,45
 926 1349 926 1349 942.5 1335 c 128,-1,46
 959 1321 959 1321 964.5 1308 c 128,-1,47
 970 1295 970 1295 970 1282 c 0,48,49
 970 1262 970 1262 958 1251.5 c 128,-1,50
 946 1241 946 1241 930 1241 c 0,51,52
 919 1241 919 1241 909.5 1246.5 c 128,-1,53
 900 1252 900 1252 880 1269 c 0,54,55
 858 1289 858 1289 829.5 1304.5 c 128,-1,56
 801 1320 801 1320 767 1332 c 1,57,-1
 691 972 l 1,58,59
 816 868 816 868 891.5 788.5 c 128,-1,60
 967 709 967 709 1008 644.5 c 128,-1,61
 1049 580 1049 580 1062 524.5 c 128,-1,62
 1075 469 1075 469 1075 412 c 0,63,64
 1075 314 1075 314 1040 234 c 128,-1,65
 1005 154 1005 154 939 98 c 128,-1,66
 873 42 873 42 778 11.5 c 128,-1,67
 683 -19 683 -19 564 -19 c 0,68,69
 523 -19 523 -19 481 -13 c 1,70,71
 475 -42 475 -42 471 -65.5 c 128,-1,72
 467 -89 467 -89 462 -117 c 1,73,74
 457 -157 457 -157 443.5 -172.5 c 128,-1,75
 430 -188 430 -188 409 -188 c 0,76,77
 392 -188 392 -188 379 -176 c 128,-1,78
 366 -164 366 -164 366 -147 c 0,79,80
 366 -135 366 -135 371.5 -119.5 c 128,-1,81
 377 -104 377 -104 386 -81 c 0,82,83
 390 -70 390 -70 395.5 -49.5 c 128,-1,84
 401 -29 401 -29 407 0 c 1,85,86
 350 13 350 13 293.5 35 c 128,-1,87
 237 57 237 57 185 86 c 0,0,1
696 1350 m 1,88,89
 669 1355 669 1355 641 1357.5 c 128,-1,90
 613 1360 613 1360 584 1360 c 0,91,92
 511 1360 511 1360 473.5 1331.5 c 128,-1,93
 436 1303 436 1303 436 1262 c 0,94,95
 436 1247 436 1247 445 1225.5 c 128,-1,96
 454 1204 454 1204 475.5 1174.5 c 128,-1,97
 497 1145 497 1145 533.5 1107.5 c 128,-1,98
 570 1070 570 1070 626 1024 c 1,99,-1
 696 1350 l 1,88,89
497 60 m 1,100,101
 517 58 517 58 536.5 56.5 c 128,-1,102
 556 55 556 55 577 55 c 0,103,104
 675 55 675 55 721.5 84 c 128,-1,105
 768 113 768 113 768 156 c 0,106,107
 768 179 768 179 761.5 199.5 c 128,-1,108
 755 220 755 220 735 248.5 c 128,-1,109
 715 277 715 277 676.5 318 c 128,-1,110
 638 359 638 359 574 422 c 1,111,-1
 497 60 l 1,100,101
EndSplineSet
EndChar

StartChar: percent
Encoding: 37 37 8
Width: 1592
Flags: W
LayerCount: 2
Fore
SplineSet
305 24 m 0,0,1
 305 33 305 33 307.5 41 c 128,-1,2
 310 49 310 49 316 58.5 c 128,-1,3
 322 68 322 68 332 80.5 c 128,-1,4
 342 93 342 93 357 110 c 0,5,6
 376 130 376 130 400 164 c 128,-1,7
 424 198 424 198 450 239 c 2,8,-1
 1110 1271 l 2,9,10
 1130 1303 1130 1303 1144.5 1330.5 c 128,-1,11
 1159 1358 1159 1358 1168 1378 c 0,12,13
 1179 1400 1179 1400 1189 1413 c 128,-1,14
 1199 1426 1199 1426 1222 1426 c 0,15,16
 1241 1426 1241 1426 1255 1415 c 128,-1,17
 1269 1404 1269 1404 1269 1389 c 0,18,19
 1269 1377 1269 1377 1264.5 1366.5 c 128,-1,20
 1260 1356 1260 1356 1251.5 1343.5 c 128,-1,21
 1243 1331 1243 1331 1231 1314 c 128,-1,22
 1219 1297 1219 1297 1203 1272 c 2,23,-1
 499 164 l 2,24,25
 469 116 469 116 447.5 81.5 c 128,-1,26
 426 47 426 47 408.5 24.5 c 128,-1,27
 391 2 391 2 376 -8.5 c 128,-1,28
 361 -19 361 -19 344 -19 c 0,29,30
 324 -19 324 -19 314.5 -7 c 128,-1,31
 305 5 305 5 305 24 c 0,0,1
461 789 m 0,32,33
 389 788 389 788 327.5 810.5 c 128,-1,34
 266 833 266 833 221 875 c 128,-1,35
 176 917 176 917 150.5 975 c 128,-1,36
 125 1033 125 1033 125 1103 c 0,37,38
 125 1169 125 1169 151 1224.5 c 128,-1,39
 177 1280 177 1280 223 1320.5 c 128,-1,40
 269 1361 269 1361 330 1383.5 c 128,-1,41
 391 1406 391 1406 462 1406 c 0,42,43
 528 1406 528 1406 587 1384 c 128,-1,44
 646 1362 646 1362 690.5 1321.5 c 128,-1,45
 735 1281 735 1281 760.5 1224.5 c 128,-1,46
 786 1168 786 1168 786 1098 c 0,47,48
 786 1030 786 1030 760 973.5 c 128,-1,49
 734 917 734 917 690 876 c 128,-1,50
 646 835 646 835 586.5 812 c 128,-1,51
 527 789 527 789 461 789 c 0,32,33
457 856 m 2,52,53
 508 856 508 856 554.5 871.5 c 128,-1,54
 601 887 601 887 636 917 c 128,-1,55
 671 947 671 947 692 992 c 128,-1,56
 713 1037 713 1037 713 1096 c 0,57,58
 713 1150 713 1150 692.5 1194.5 c 128,-1,59
 672 1239 672 1239 637 1271 c 128,-1,60
 602 1303 602 1303 555.5 1320.5 c 128,-1,61
 509 1338 509 1338 457 1338 c 0,62,63
 453 1338 453 1338 449.5 1338 c 128,-1,64
 446 1338 446 1338 441 1337 c 1,65,-1
 441 856 l 1,66,-1
 457 856 l 2,52,53
826 316 m 0,67,68
 826 382 826 382 851.5 437.5 c 128,-1,69
 877 493 877 493 922 533.5 c 128,-1,70
 967 574 967 574 1028.5 597 c 128,-1,71
 1090 620 1090 620 1161 620 c 0,72,73
 1227 620 1227 620 1285.5 598 c 128,-1,74
 1344 576 1344 576 1388.5 535.5 c 128,-1,75
 1433 495 1433 495 1458.5 438 c 128,-1,76
 1484 381 1484 381 1484 311 c 0,77,78
 1484 244 1484 244 1458 187 c 128,-1,79
 1432 130 1432 130 1388 89 c 128,-1,80
 1344 48 1344 48 1284.5 24.5 c 128,-1,81
 1225 1 1225 1 1159 1 c 0,82,83
 1087 0 1087 0 1026 23 c 128,-1,84
 965 46 965 46 920.5 87.5 c 128,-1,85
 876 129 876 129 851 187.5 c 128,-1,86
 826 246 826 246 826 316 c 0,67,68
1156 70 m 2,87,88
 1207 70 1207 70 1253 85.5 c 128,-1,89
 1299 101 1299 101 1334.5 131 c 128,-1,90
 1370 161 1370 161 1391 205.5 c 128,-1,91
 1412 250 1412 250 1412 309 c 0,92,93
 1412 363 1412 363 1391.5 408 c 128,-1,94
 1371 453 1371 453 1336 484.5 c 128,-1,95
 1301 516 1301 516 1254.5 533.5 c 128,-1,96
 1208 551 1208 551 1156 551 c 0,97,98
 1152 551 1152 551 1148 551 c 128,-1,99
 1144 551 1144 551 1140 550 c 1,100,-1
 1140 70 l 1,101,-1
 1156 70 l 2,87,88
EndSplineSet
EndChar

StartChar: ampersand
Encoding: 38 38 9
Width: 1422
Flags: W
LayerCount: 2
Fore
SplineSet
145 432 m 0,0,1
 145 493 145 493 166 550.5 c 128,-1,2
 187 608 187 608 226 657 c 128,-1,3
 265 706 265 706 321 744 c 128,-1,4
 377 782 377 782 446 804 c 1,5,6
 395 825 395 825 354 857 c 128,-1,7
 313 889 313 889 284 928 c 128,-1,8
 255 967 255 967 239 1011.5 c 128,-1,9
 223 1056 223 1056 223 1104 c 0,10,11
 223 1176 223 1176 258.5 1236 c 128,-1,12
 294 1296 294 1296 361 1340 c 128,-1,13
 428 1384 428 1384 524 1408.5 c 128,-1,14
 620 1433 620 1433 741 1433 c 0,15,16
 758 1433 758 1433 789.5 1432 c 128,-1,17
 821 1431 821 1431 853 1428 c 1,18,19
 914 1420 914 1420 958 1407.5 c 128,-1,20
 1002 1395 1002 1395 1030.5 1380 c 128,-1,21
 1059 1365 1059 1365 1072 1348.5 c 128,-1,22
 1085 1332 1085 1332 1085 1316 c 0,23,24
 1085 1296 1085 1296 1073 1286.5 c 128,-1,25
 1061 1277 1061 1277 1043 1277 c 0,26,27
 1020 1277 1020 1277 1003.5 1291.5 c 128,-1,28
 987 1306 987 1306 972 1315 c 0,29,30
 933 1340 933 1340 880.5 1351 c 128,-1,31
 828 1362 828 1362 767 1362 c 0,32,33
 741 1362 741 1362 713 1361.5 c 128,-1,34
 685 1361 685 1361 661 1357 c 1,35,-1
 661 61 l 1,36,37
 692 55 692 55 720 55 c 0,38,39
 805 53 805 53 884 80 c 128,-1,40
 963 107 963 107 1024 156 c 128,-1,41
 1085 205 1085 205 1121.5 271 c 128,-1,42
 1158 337 1158 337 1158 413 c 0,43,44
 1158 492 1158 492 1137 555.5 c 128,-1,45
 1116 619 1116 619 1079 663.5 c 128,-1,46
 1042 708 1042 708 991.5 732 c 128,-1,47
 941 756 941 756 882 756 c 2,48,-1
 859 756 l 2,49,50
 785 756 785 756 785 803 c 0,51,52
 785 820 785 820 800 828 c 128,-1,53
 815 836 815 836 837 836 c 0,54,55
 850 836 850 836 861 835 c 128,-1,56
 872 834 872 834 883 832.5 c 128,-1,57
 894 831 894 831 907 830 c 128,-1,58
 920 829 920 829 937 829 c 0,59,60
 1037 829 1037 829 1111.5 830.5 c 128,-1,61
 1186 832 1186 832 1248 837 c 0,62,63
 1290 841 1290 841 1310 825.5 c 128,-1,64
 1330 810 1330 810 1330 787 c 0,65,66
 1330 771 1330 771 1313.5 760 c 128,-1,67
 1297 749 1297 749 1261 749 c 0,68,69
 1240 749 1240 749 1219 750.5 c 128,-1,70
 1198 752 1198 752 1175.5 753.5 c 128,-1,71
 1153 755 1153 755 1127.5 756.5 c 128,-1,72
 1102 758 1102 758 1070 758 c 1,73,74
 1109 736 1109 736 1140 699.5 c 128,-1,75
 1171 663 1171 663 1192 618 c 128,-1,76
 1213 573 1213 573 1224 523 c 128,-1,77
 1235 473 1235 473 1235 424 c 0,78,79
 1235 338 1235 338 1195.5 258 c 128,-1,80
 1156 178 1156 178 1085 116.5 c 128,-1,81
 1014 55 1014 55 913.5 18 c 128,-1,82
 813 -19 813 -19 692 -19 c 0,83,84
 570 -19 570 -19 469 11 c 128,-1,85
 368 41 368 41 296 99 c 128,-1,86
 224 157 224 157 184.5 240.5 c 128,-1,87
 145 324 145 324 145 432 c 0,0,1
EndSplineSet
EndChar

StartChar: quotesingle
Encoding: 39 39 10
Width: 436
Flags: W
LayerCount: 2
Fore
SplineSet
218 827 m 256,0,1
 211 827 211 827 202 829 c 128,-1,2
 193 831 193 831 184 836.5 c 128,-1,3
 175 842 175 842 168 852 c 128,-1,4
 161 862 161 862 158 879 c 0,5,6
 144 974 144 974 125 1044.5 c 128,-1,7
 106 1115 106 1115 88.5 1167.5 c 128,-1,8
 71 1220 71 1220 58.5 1257 c 128,-1,9
 46 1294 46 1294 46 1323 c 0,10,11
 46 1347 46 1347 56 1370 c 128,-1,12
 66 1393 66 1393 87 1410 c 128,-1,13
 108 1427 108 1427 141 1437.5 c 128,-1,14
 174 1448 174 1448 221 1448 c 0,15,16
 300 1448 300 1448 345 1413.5 c 128,-1,17
 390 1379 390 1379 390 1323 c 0,18,19
 390 1299 390 1299 377.5 1262.5 c 128,-1,20
 365 1226 365 1226 347 1172.5 c 128,-1,21
 329 1119 329 1119 308.5 1047.5 c 128,-1,22
 288 976 288 976 273 882 c 0,23,24
 270 865 270 865 264 854.5 c 128,-1,25
 258 844 258 844 250 838 c 128,-1,26
 242 832 242 832 233.5 829.5 c 128,-1,27
 225 827 225 827 218 827 c 256,0,1
EndSplineSet
EndChar

StartChar: parenleft
Encoding: 40 40 11
Width: 939
Flags: W
LayerCount: 2
Fore
SplineSet
599 -75 m 1,0,1
 688 -117 688 -117 781 -122 c 0,2,3
 817 -124 817 -124 832.5 -133.5 c 128,-1,4
 848 -143 848 -143 848 -160 c 0,5,6
 848 -198 848 -198 784 -198 c 0,7,8
 712 -198 712 -198 633.5 -170 c 128,-1,9
 555 -142 555 -142 480.5 -88.5 c 128,-1,10
 406 -35 406 -35 339 42.5 c 128,-1,11
 272 120 272 120 221 219.5 c 128,-1,12
 170 319 170 319 140.5 439.5 c 128,-1,13
 111 560 111 560 111 698 c 0,14,15
 111 817 111 817 135 928.5 c 128,-1,16
 159 1040 159 1040 203.5 1137 c 128,-1,17
 248 1234 248 1234 309.5 1314.5 c 128,-1,18
 371 1395 371 1395 445.5 1452.5 c 128,-1,19
 520 1510 520 1510 606 1541.5 c 128,-1,20
 692 1573 692 1573 784 1573 c 0,21,22
 816 1573 816 1573 832 1561.5 c 128,-1,23
 848 1550 848 1550 848 1536 c 0,24,25
 848 1513 848 1513 829.5 1503 c 128,-1,26
 811 1493 811 1493 767 1495 c 0,27,28
 727 1497 727 1497 685 1486 c 128,-1,29
 643 1475 643 1475 599 1454 c 1,30,-1
 599 -75 l 1,31,-1
 599 -75 l 1,0,1
EndSplineSet
EndChar

StartChar: parenright
Encoding: 41 41 12
Width: 939
Flags: W
LayerCount: 2
Fore
SplineSet
91 -160 m 0,0,1
 91 -143 91 -143 106.5 -133.5 c 128,-1,2
 122 -124 122 -124 158 -122 c 0,3,4
 251 -117 251 -117 340 -75 c 1,5,-1
 340 1454 l 1,6,7
 296 1475 296 1475 254 1486 c 128,-1,8
 212 1497 212 1497 172 1495 c 0,9,10
 128 1493 128 1493 109.5 1503 c 128,-1,11
 91 1513 91 1513 91 1536 c 0,12,13
 91 1550 91 1550 107 1561.5 c 128,-1,14
 123 1573 123 1573 155 1573 c 0,15,16
 247 1573 247 1573 333 1541.5 c 128,-1,17
 419 1510 419 1510 493.5 1452.5 c 128,-1,18
 568 1395 568 1395 629.5 1314.5 c 128,-1,19
 691 1234 691 1234 735.5 1137 c 128,-1,20
 780 1040 780 1040 804 928.5 c 128,-1,21
 828 817 828 817 828 698 c 0,22,23
 828 560 828 560 798.5 439.5 c 128,-1,24
 769 319 769 319 718 219.5 c 128,-1,25
 667 120 667 120 600 42.5 c 128,-1,26
 533 -35 533 -35 458.5 -88.5 c 128,-1,27
 384 -142 384 -142 305.5 -170 c 128,-1,28
 227 -198 227 -198 155 -198 c 0,29,30
 91 -198 91 -198 91 -160 c 0,0,1
EndSplineSet
EndChar

StartChar: asterisk
Encoding: 42 42 13
Width: 760
Flags: W
LayerCount: 2
Fore
SplineSet
211 854 m 0,0,1
 194 854 194 854 183 865.5 c 128,-1,2
 172 877 172 877 172 894 c 0,3,4
 172 900 172 900 173 906.5 c 128,-1,5
 174 913 174 913 178.5 922 c 128,-1,6
 183 931 183 931 191.5 945 c 128,-1,7
 200 959 200 959 216 981 c 2,8,-1
 324 1137 l 1,9,10
 263 1134 263 1134 215 1133 c 128,-1,11
 167 1132 167 1132 149 1130 c 1,12,13
 129 1129 129 1129 119 1128.5 c 128,-1,14
 109 1128 109 1128 95 1128 c 0,15,16
 70 1128 70 1128 56.5 1140.5 c 128,-1,17
 43 1153 43 1153 43 1171 c 0,18,19
 43 1192 43 1192 59.5 1203 c 128,-1,20
 76 1214 76 1214 98 1214 c 0,21,22
 112 1214 112 1214 127 1213 c 128,-1,23
 142 1212 142 1212 160 1210 c 0,24,25
 173 1209 173 1209 188.5 1208 c 128,-1,26
 204 1207 204 1207 222 1206 c 2,27,-1
 327 1201 l 1,28,-1
 222 1368 l 2,29,30
 211 1384 211 1384 205 1395.5 c 128,-1,31
 199 1407 199 1407 196 1415 c 128,-1,32
 193 1423 193 1423 192 1429 c 128,-1,33
 191 1435 191 1435 191 1441 c 0,34,35
 191 1458 191 1458 203.5 1468 c 128,-1,36
 216 1478 216 1478 234 1478 c 0,37,38
 245 1478 245 1478 256.5 1468.5 c 128,-1,39
 268 1459 268 1459 281 1432 c 2,40,-1
 381 1235 l 1,41,-1
 471 1411 l 1,42,43
 489 1451 489 1451 503 1465 c 128,-1,44
 517 1479 517 1479 535 1479 c 0,45,46
 549 1479 549 1479 559.5 1470 c 128,-1,47
 570 1461 570 1461 570 1444 c 0,48,49
 570 1432 570 1432 562.5 1413 c 128,-1,50
 555 1394 555 1394 531 1354 c 2,51,-1
 436 1202 l 1,52,53
 462 1203 462 1203 488.5 1204.5 c 128,-1,54
 515 1206 515 1206 538.5 1207 c 128,-1,55
 562 1208 562 1208 580.5 1209 c 128,-1,56
 599 1210 599 1210 610 1210 c 0,57,58
 633 1212 633 1212 644.5 1212.5 c 128,-1,59
 656 1213 656 1213 662 1213 c 0,60,61
 687 1213 687 1213 702 1202 c 128,-1,62
 717 1191 717 1191 717 1170 c 0,63,64
 717 1148 717 1148 700 1137.5 c 128,-1,65
 683 1127 683 1127 662 1127 c 0,66,67
 654 1127 654 1127 645 1127.5 c 128,-1,68
 636 1128 636 1128 619 1130 c 1,69,70
 599 1131 599 1131 549 1133.5 c 128,-1,71
 499 1136 499 1136 435 1138 c 1,72,-1
 519 1002 l 2,73,74
 530 985 530 985 536.5 975 c 128,-1,75
 543 965 543 965 547 959 c 128,-1,76
 551 953 551 953 554.5 949 c 128,-1,77
 558 945 558 945 563 938 c 0,78,79
 574 923 574 923 579 912.5 c 128,-1,80
 584 902 584 902 584 888 c 0,81,82
 584 869 584 869 572 860 c 128,-1,83
 560 851 560 851 546 851 c 0,84,85
 535 851 535 851 527 853.5 c 128,-1,86
 519 856 519 856 511.5 863 c 128,-1,87
 504 870 504 870 496 883 c 128,-1,88
 488 896 488 896 477 917 c 2,89,-1
 380 1106 l 1,90,-1
 314 996 l 2,91,92
 303 976 303 976 295.5 962.5 c 128,-1,93
 288 949 288 949 282 938 c 128,-1,94
 276 927 276 927 271.5 917.5 c 128,-1,95
 267 908 267 908 263 898 c 0,96,97
 251 872 251 872 238 863 c 128,-1,98
 225 854 225 854 211 854 c 0,0,1
EndSplineSet
EndChar

StartChar: plus
Encoding: 43 43 14
Width: 1014
Flags: W
LayerCount: 2
Fore
SplineSet
451 219 m 0,0,1
 451 227 451 227 452 246.5 c 128,-1,2
 453 266 453 266 454 280 c 0,3,4
 455 303 455 303 455.5 325.5 c 128,-1,5
 456 348 456 348 456 369 c 2,6,-1
 456 527 l 1,7,-1
 300 527 l 2,8,9
 277 527 277 527 254 527 c 128,-1,10
 231 527 231 527 210 526 c 0,11,12
 196 525 196 525 176.5 523.5 c 128,-1,13
 157 522 157 522 149 521 c 0,14,15
 124 519 124 519 110.5 533 c 128,-1,16
 97 547 97 547 97 566 c 0,17,18
 97 586 97 586 108.5 597.5 c 128,-1,19
 120 609 120 609 138 609 c 0,20,21
 151 609 151 609 162 608.5 c 128,-1,22
 173 608 173 608 191 607 c 0,23,24
 205 606 205 606 215.5 605 c 128,-1,25
 226 604 226 604 236.5 603 c 128,-1,26
 247 602 247 602 260 601.5 c 128,-1,27
 273 601 273 601 292 601 c 2,28,-1
 456 601 l 1,29,-1
 456 759 l 2,30,31
 456 780 456 780 455.5 803 c 128,-1,32
 455 826 455 826 454 847 c 0,33,34
 453 861 453 861 452 881.5 c 128,-1,35
 451 902 451 902 451 910 c 0,36,37
 449 934 449 934 462.5 948 c 128,-1,38
 476 962 476 962 496 962 c 256,39,40
 516 962 516 962 527.5 950 c 128,-1,41
 539 938 539 938 539 920 c 0,42,43
 539 908 539 908 538.5 896 c 128,-1,44
 538 884 538 884 536 866 c 0,45,46
 535 852 535 852 534 841.5 c 128,-1,47
 533 831 533 831 532.5 820.5 c 128,-1,48
 532 810 532 810 531.5 797.5 c 128,-1,49
 531 785 531 785 531 766 c 2,50,-1
 531 601 l 1,51,-1
 694 601 l 2,52,53
 713 601 713 601 726 601.5 c 128,-1,54
 739 602 739 602 750 603 c 128,-1,55
 761 604 761 604 772 605 c 128,-1,56
 783 606 783 606 797 607 c 0,57,58
 814 608 814 608 825.5 608.5 c 128,-1,59
 837 609 837 609 849 609 c 0,60,61
 867 609 867 609 880 597.5 c 128,-1,62
 893 586 893 586 893 566 c 0,63,64
 893 547 893 547 877.5 533 c 128,-1,65
 862 519 862 519 839 521 c 0,66,67
 831 522 831 522 811.5 523.5 c 128,-1,68
 792 525 792 525 777 526 c 0,69,70
 756 527 756 527 733 527 c 128,-1,71
 710 527 710 527 688 527 c 2,72,-1
 531 527 l 1,73,-1
 531 365 l 2,74,75
 531 346 531 346 531.5 332.5 c 128,-1,76
 532 319 532 319 532.5 308 c 128,-1,77
 533 297 533 297 534 286 c 128,-1,78
 535 275 535 275 536 261 c 0,79,80
 538 243 538 243 538.5 231.5 c 128,-1,81
 539 220 539 220 539 208 c 0,82,83
 539 190 539 190 527.5 178 c 128,-1,84
 516 166 516 166 496 166 c 256,85,86
 476 166 476 166 462.5 180.5 c 128,-1,87
 449 195 449 195 451 219 c 0,0,1
EndSplineSet
EndChar

StartChar: comma
Encoding: 44 44 15
Width: 682
Flags: W
LayerCount: 2
Fore
SplineSet
97 181 m 0,0,1
 97 221 97 221 113 257.5 c 128,-1,2
 129 294 129 294 158 321.5 c 128,-1,3
 187 349 187 349 227.5 365 c 128,-1,4
 268 381 268 381 316 381 c 0,5,6
 374 381 374 381 419.5 362.5 c 128,-1,7
 465 344 465 344 496.5 312 c 128,-1,8
 528 280 528 280 544.5 236 c 128,-1,9
 561 192 561 192 561 140 c 0,10,11
 561 83 561 83 547.5 31 c 128,-1,12
 534 -21 534 -21 510.5 -65.5 c 128,-1,13
 487 -110 487 -110 456.5 -146.5 c 128,-1,14
 426 -183 426 -183 393 -209 c 0,15,16
 376 -222 376 -222 358.5 -229 c 128,-1,17
 341 -236 341 -236 324 -236 c 0,18,19
 301 -236 301 -236 289 -224 c 128,-1,20
 277 -212 277 -212 277 -192 c 0,21,22
 277 -176 277 -176 288.5 -171 c 128,-1,23
 300 -166 300 -166 325 -155 c 0,24,25
 352 -143 352 -143 378.5 -116.5 c 128,-1,26
 405 -90 405 -90 422 -65 c 0,27,28
 431 -51 431 -51 437.5 -30 c 128,-1,29
 444 -9 444 -9 446 15 c 1,30,31
 421 -1 421 -1 388.5 -10 c 128,-1,32
 356 -19 356 -19 315 -19 c 0,33,34
 264 -19 264 -19 223.5 -1.5 c 128,-1,35
 183 16 183 16 155 44.5 c 128,-1,36
 127 73 127 73 112 108.5 c 128,-1,37
 97 144 97 144 97 181 c 0,0,1
EndSplineSet
EndChar

StartChar: hyphen
Encoding: 45 45 16
Width: 737
Flags: W
LayerCount: 2
Fore
SplineSet
152 605 m 0,0,1
 128 605 128 605 112.5 617 c 128,-1,2
 97 629 97 629 97 648 c 0,3,4
 97 668 97 668 111.5 680 c 128,-1,5
 126 692 126 692 152 692 c 0,6,7
 165 692 165 692 180 691 c 128,-1,8
 195 690 195 690 211 688 c 0,9,10
 231 686 231 686 251.5 684.5 c 128,-1,11
 272 683 272 683 295 683 c 2,12,-1
 400 683 l 2,13,14
 432 683 432 683 458.5 684.5 c 128,-1,15
 485 686 485 686 503 688 c 0,16,17
 517 690 517 690 530 691 c 128,-1,18
 543 692 543 692 559 692 c 0,19,20
 586 692 586 692 601 680 c 128,-1,21
 616 668 616 668 616 648 c 0,22,23
 616 629 616 629 600.5 617 c 128,-1,24
 585 605 585 605 555 605 c 0,25,26
 538 605 538 605 523 606 c 128,-1,27
 508 607 508 607 492 608 c 0,28,29
 474 610 474 610 455 610.5 c 128,-1,30
 436 611 436 611 412 611 c 2,31,-1
 303 611 l 2,32,33
 280 611 280 611 261.5 611 c 128,-1,34
 243 611 243 611 226 609 c 256,35,36
 209 607 209 607 191 606 c 128,-1,37
 173 605 173 605 152 605 c 0,0,1
EndSplineSet
EndChar

StartChar: period
Encoding: 46 46 17
Width: 685
Flags: W
LayerCount: 2
Fore
SplineSet
97 197 m 0,0,1
 97 237 97 237 114.5 273.5 c 128,-1,2
 132 310 132 310 163.5 338 c 128,-1,3
 195 366 195 366 238.5 382.5 c 128,-1,4
 282 399 282 399 334 399 c 0,5,6
 389 399 389 399 432 380 c 128,-1,7
 475 361 475 361 504.5 330 c 128,-1,8
 534 299 534 299 549 260 c 128,-1,9
 564 221 564 221 564 182 c 0,10,11
 564 140 564 140 546 103.5 c 128,-1,12
 528 67 528 67 496 40 c 128,-1,13
 464 13 464 13 421 -3 c 128,-1,14
 378 -19 378 -19 328 -19 c 0,15,16
 272 -19 272 -19 229 -3.5 c 128,-1,17
 186 12 186 12 157 40.5 c 128,-1,18
 128 69 128 69 112.5 109 c 128,-1,19
 97 149 97 149 97 197 c 0,0,1
EndSplineSet
EndChar

StartChar: slash
Encoding: 47 47 18
Width: 680
Flags: W
LayerCount: 2
Fore
SplineSet
82 29 m 0,0,1
 82 43 82 43 89 59.5 c 128,-1,2
 96 76 96 76 108 93 c 1,3,4
 118 113 118 113 130 145 c 128,-1,5
 142 177 142 177 157 227 c 2,6,-1
 464 1279 l 2,7,8
 479 1329 479 1329 491 1359.5 c 128,-1,9
 503 1390 503 1390 514 1406.5 c 128,-1,10
 525 1423 525 1423 536 1428 c 128,-1,11
 547 1433 547 1433 561 1433 c 256,12,13
 575 1433 575 1433 587 1424.5 c 128,-1,14
 599 1416 599 1416 599 1396 c 0,15,16
 599 1385 599 1385 593.5 1370.5 c 128,-1,17
 588 1356 588 1356 580 1342 c 1,18,19
 577 1334 577 1334 571.5 1322 c 128,-1,20
 566 1310 566 1310 560.5 1296 c 128,-1,21
 555 1282 555 1282 549.5 1267 c 128,-1,22
 544 1252 544 1252 540 1239 c 2,23,-1
 218 148 l 2,24,25
 202 94 202 94 190.5 61 c 128,-1,26
 179 28 179 28 168.5 10.5 c 128,-1,27
 158 -7 158 -7 147.5 -13 c 128,-1,28
 137 -19 137 -19 123 -19 c 0,29,30
 106 -19 106 -19 94 -8 c 128,-1,31
 82 3 82 3 82 29 c 0,0,1
EndSplineSet
EndChar

StartChar: zero
Encoding: 48 48 19
Width: 1348
Flags: W
LayerCount: 2
Fore
SplineSet
668 -19 m 0,0,1
 533 -19 533 -19 425.5 28 c 128,-1,2
 318 75 318 75 243 169 c 128,-1,3
 168 263 168 263 128 404.5 c 128,-1,4
 88 546 88 546 88 736 c 0,5,6
 88 901 88 901 127.5 1030.5 c 128,-1,7
 167 1160 167 1160 243.5 1249.5 c 128,-1,8
 320 1339 320 1339 431.5 1386 c 128,-1,9
 543 1433 543 1433 687 1433 c 0,10,11
 826 1433 826 1433 933 1385.5 c 128,-1,12
 1040 1338 1040 1338 1113 1247.5 c 128,-1,13
 1186 1157 1186 1157 1223 1024.5 c 128,-1,14
 1260 892 1260 892 1260 722 c 0,15,16
 1260 537 1260 537 1219 398.5 c 128,-1,17
 1178 260 1178 260 1101.5 167 c 128,-1,18
 1025 74 1025 74 915.5 27.5 c 128,-1,19
 806 -19 806 -19 668 -19 c 0,0,1
677 50 m 2,20,21
 784 50 784 50 876 87 c 128,-1,22
 968 124 968 124 1036 205 c 128,-1,23
 1104 286 1104 286 1143 413.5 c 128,-1,24
 1182 541 1182 541 1182 722 c 0,25,26
 1182 897 1182 897 1145 1020 c 128,-1,27
 1108 1143 1108 1143 1042 1220 c 128,-1,28
 976 1297 976 1297 885 1332.5 c 128,-1,29
 794 1368 794 1368 685 1368 c 2,30,-1
 674 1368 l 1,31,-1
 674 50 l 1,32,-1
 677 50 l 2,20,21
EndSplineSet
EndChar

StartChar: one
Encoding: 49 49 20
Width: 986
Flags: W
LayerCount: 2
Fore
SplineSet
280 1212 m 1,0,-1
 215 1193 l 2,1,2
 177 1182 177 1182 149 1170 c 128,-1,3
 121 1158 121 1158 106 1150 c 0,4,5
 92 1142 92 1142 75.5 1135.5 c 128,-1,6
 59 1129 59 1129 41 1130 c 0,7,8
 -2 1131 -2 1131 1 1167 c 0,9,10
 2 1184 2 1184 17.5 1197.5 c 128,-1,11
 33 1211 33 1211 68 1219 c 1,12,13
 105 1229 105 1229 141.5 1240 c 128,-1,14
 178 1251 178 1251 223 1265 c 2,15,-1
 791 1435 l 1,16,-1
 791 0 l 1,17,-1
 279 0 l 1,18,-1
 280 1212 l 1,0,-1
EndSplineSet
EndChar

StartChar: two
Encoding: 50 50 21
Width: 1248
Flags: W
LayerCount: 2
Fore
SplineSet
38 0 m 1,0,1
 43 40 43 40 55.5 83.5 c 128,-1,2
 68 127 68 127 90.5 178.5 c 128,-1,3
 113 230 113 230 148 292.5 c 128,-1,4
 183 355 183 355 233 432.5 c 128,-1,5
 283 510 283 510 350.5 605 c 128,-1,6
 418 700 418 700 505 817 c 0,7,8
 561 893 561 893 601.5 948.5 c 128,-1,9
 642 1004 642 1004 669.5 1044 c 128,-1,10
 697 1084 697 1084 713.5 1111.5 c 128,-1,11
 730 1139 730 1139 738.5 1158 c 128,-1,12
 747 1177 747 1177 749.5 1191 c 128,-1,13
 752 1205 752 1205 752 1218 c 0,14,15
 752 1250 752 1250 738.5 1277.5 c 128,-1,16
 725 1305 725 1305 697.5 1324.5 c 128,-1,17
 670 1344 670 1344 628 1355 c 128,-1,18
 586 1366 586 1366 530 1366 c 0,19,20
 478 1366 478 1366 424.5 1354 c 128,-1,21
 371 1342 371 1342 324.5 1322 c 128,-1,22
 278 1302 278 1302 242.5 1275.5 c 128,-1,23
 207 1249 207 1249 189 1219 c 0,24,25
 180 1205 180 1205 166 1191 c 128,-1,26
 152 1177 152 1177 129 1177 c 0,27,28
 112 1177 112 1177 102 1188.5 c 128,-1,29
 92 1200 92 1200 92 1220 c 0,30,31
 92 1246 92 1246 118 1276.5 c 128,-1,32
 144 1307 144 1307 188 1336 c 0,33,34
 224 1359 224 1359 267 1377 c 128,-1,35
 310 1395 310 1395 356.5 1407.5 c 128,-1,36
 403 1420 403 1420 452 1426.5 c 128,-1,37
 501 1433 501 1433 549 1433 c 0,38,39
 679 1433 679 1433 782.5 1404 c 128,-1,40
 886 1375 886 1375 957.5 1324.5 c 128,-1,41
 1029 1274 1029 1274 1067 1205.5 c 128,-1,42
 1105 1137 1105 1137 1105 1058 c 0,43,44
 1105 1028 1105 1028 1102.5 1000 c 128,-1,45
 1100 972 1100 972 1091.5 942 c 128,-1,46
 1083 912 1083 912 1068.5 877 c 128,-1,47
 1054 842 1054 842 1030 798 c 128,-1,48
 1006 754 1006 754 971.5 699.5 c 128,-1,49
 937 645 937 645 890 576 c 0,50,51
 827 483 827 483 779.5 413 c 128,-1,52
 732 343 732 343 696.5 285 c 128,-1,53
 661 227 661 227 634.5 176 c 128,-1,54
 608 125 608 125 587 72 c 1,55,-1
 880 72 l 2,56,57
 915 72 915 72 950 76.5 c 128,-1,58
 985 81 985 81 1012 86 c 0,59,60
 1032 90 1032 90 1042.5 91 c 128,-1,61
 1053 92 1053 92 1062 92 c 0,62,63
 1088 92 1088 92 1099.5 78.5 c 128,-1,64
 1111 65 1111 65 1111 50 c 0,65,66
 1111 40 1111 40 1106.5 31 c 128,-1,67
 1102 22 1102 22 1091 15 c 128,-1,68
 1080 8 1080 8 1060.5 4 c 128,-1,69
 1041 0 1041 0 1010 0 c 2,70,-1
 38 0 l 1,71,-1
 38 0 l 1,0,1
EndSplineSet
EndChar

StartChar: three
Encoding: 51 51 22
Width: 1298
Flags: W
LayerCount: 2
Fore
SplineSet
135 116 m 0,0,1
 115 131 115 131 98.5 148.5 c 128,-1,2
 82 166 82 166 70 184 c 128,-1,3
 58 202 58 202 52 218 c 128,-1,4
 46 234 46 234 47 246 c 0,5,6
 50 288 50 288 85 285 c 1,7,8
 108 282 108 282 122.5 265.5 c 128,-1,9
 137 249 137 249 145 233 c 0,10,11
 161 201 161 201 196 169.5 c 128,-1,12
 231 138 231 138 279.5 112.5 c 128,-1,13
 328 87 328 87 389 71 c 128,-1,14
 450 55 450 55 518 55 c 0,15,16
 543 55 543 55 565.5 54.5 c 128,-1,17
 588 54 588 54 610 55 c 1,18,-1
 610 746 l 1,19,20
 583 749 583 749 548 750 c 128,-1,21
 513 751 513 751 487 749 c 1,22,23
 461 745 461 745 437 744.5 c 128,-1,24
 413 744 413 744 402 744 c 0,25,26
 370 744 370 744 351.5 753.5 c 128,-1,27
 333 763 333 763 333 783 c 0,28,29
 333 804 333 804 348.5 817.5 c 128,-1,30
 364 831 364 831 399 831 c 0,31,32
 410 831 410 831 435.5 829.5 c 128,-1,33
 461 828 461 828 481 827 c 0,34,35
 511 825 511 825 546 824.5 c 128,-1,36
 581 824 581 824 610 826 c 1,37,-1
 610 1358 l 1,38,-1
 588 1360 l 1,39,40
 526 1363 526 1363 471 1357.5 c 128,-1,41
 416 1352 416 1352 372 1340.5 c 128,-1,42
 328 1329 328 1329 295.5 1312.5 c 128,-1,43
 263 1296 263 1296 247 1277 c 0,44,45
 236 1264 236 1264 219 1252.5 c 128,-1,46
 202 1241 202 1241 179 1240 c 1,47,48
 162 1238 162 1238 148.5 1246.5 c 128,-1,49
 135 1255 135 1255 134 1275 c 0,50,51
 133 1291 133 1291 146 1307.5 c 128,-1,52
 159 1324 159 1324 182 1339 c 128,-1,53
 205 1354 205 1354 236 1368 c 128,-1,54
 267 1382 267 1382 302 1394 c 0,55,56
 330 1403 330 1403 366 1410 c 128,-1,57
 402 1417 402 1417 440 1422 c 128,-1,58
 478 1427 478 1427 515 1430 c 128,-1,59
 552 1433 552 1433 583 1433 c 0,60,61
 718 1433 718 1433 817.5 1407 c 128,-1,62
 917 1381 917 1381 982.5 1336 c 128,-1,63
 1048 1291 1048 1291 1079.5 1229.5 c 128,-1,64
 1111 1168 1111 1168 1111 1096 c 0,65,66
 1111 1052 1111 1052 1095 1007 c 128,-1,67
 1079 962 1079 962 1045 921 c 128,-1,68
 1011 880 1011 880 959.5 845.5 c 128,-1,69
 908 811 908 811 838 788 c 1,70,71
 910 765 910 765 970 728 c 128,-1,72
 1030 691 1030 691 1073 642 c 128,-1,73
 1116 593 1116 593 1139.5 533 c 128,-1,74
 1163 473 1163 473 1163 406 c 0,75,76
 1163 311 1163 311 1121.5 233 c 128,-1,77
 1080 155 1080 155 1002 99 c 128,-1,78
 924 43 924 43 811 12 c 128,-1,79
 698 -19 698 -19 555 -19 c 0,80,81
 482 -19 482 -19 420.5 -7.5 c 128,-1,82
 359 4 359 4 307 22.5 c 128,-1,83
 255 41 255 41 212 65.5 c 128,-1,84
 169 90 169 90 135 116 c 0,0,1
729 1334 m 2,85,86
 723 1336 723 1336 716 1338 c 0,87,88
 710 1340 710 1340 701.5 1342 c 128,-1,89
 693 1344 693 1344 683 1346 c 2,90,-1
 729 1334 l 2,85,86
EndSplineSet
EndChar

StartChar: four
Encoding: 52 52 23
Width: 1477
Flags: W
LayerCount: 2
Fore
SplineSet
103 278 m 0,0,1
 78 278 78 278 56 293 c 128,-1,2
 34 308 34 308 34 340 c 0,3,4
 34 359 34 359 38.5 374.5 c 128,-1,5
 43 390 43 390 53 407 c 128,-1,6
 63 424 63 424 78.5 446 c 128,-1,7
 94 468 94 468 116 500 c 2,8,-1
 736 1414 l 1,9,-1
 1149 1414 l 1,10,-1
 1149 354 l 1,11,12
 1217 354 1217 354 1252.5 356 c 128,-1,13
 1288 358 1288 358 1308 363 c 0,14,15
 1316 365 1316 365 1324.5 366.5 c 128,-1,16
 1333 368 1333 368 1345 368 c 0,17,18
 1363 368 1363 368 1375 357 c 128,-1,19
 1387 346 1387 346 1387 330 c 0,20,21
 1387 311 1387 311 1371.5 298.5 c 128,-1,22
 1356 286 1356 286 1326 284 c 1,23,24
 1303 281 1303 281 1276 280 c 128,-1,25
 1249 279 1249 279 1219 279 c 2,26,-1
 1149 279 l 1,27,-1
 1149 0 l 1,28,-1
 637 0 l 1,29,-1
 637 279 l 1,30,-1
 197 279 l 2,31,32
 173 279 173 279 158 279 c 128,-1,33
 143 279 143 279 133 278.5 c 128,-1,34
 123 278 123 278 116 278 c 128,-1,35
 109 278 109 278 103 278 c 0,0,1
637 354 m 1,36,-1
 637 1128 l 1,37,-1
 141 386 l 2,38,39
 128 366 128 366 134.5 360 c 128,-1,40
 141 354 141 354 173 354 c 2,41,-1
 637 354 l 1,36,-1
EndSplineSet
EndChar

StartChar: five
Encoding: 53 53 24
Width: 1259
Flags: W
LayerCount: 2
Fore
SplineSet
191 96 m 0,0,1
 170 110 170 110 151.5 127 c 128,-1,2
 133 144 133 144 119.5 161 c 128,-1,3
 106 178 106 178 98 193.5 c 128,-1,4
 90 209 90 209 90 221 c 0,5,6
 90 242 90 242 99.5 256 c 128,-1,7
 109 270 109 270 126 270 c 0,8,9
 149 270 149 270 164.5 254 c 128,-1,10
 180 238 180 238 189 223 c 0,11,12
 210 188 210 188 246 157 c 128,-1,13
 282 126 282 126 331.5 102.5 c 128,-1,14
 381 79 381 79 442.5 65 c 128,-1,15
 504 51 504 51 575 51 c 0,16,17
 591 51 591 51 604.5 51 c 128,-1,18
 618 51 618 51 631 53 c 1,19,-1
 631 914 l 1,20,21
 598 917 598 917 562 917 c 0,22,23
 489 917 489 917 411.5 896 c 128,-1,24
 334 875 334 875 268 841 c 1,25,26
 252 831 252 831 241 827.5 c 128,-1,27
 230 824 230 824 220 824 c 0,28,29
 201 824 201 824 191.5 837 c 128,-1,30
 182 850 182 850 184 864 c 2,31,-1
 237 1320 l 2,32,33
 239 1335 239 1335 239 1349.5 c 128,-1,34
 239 1364 239 1364 239 1376.5 c 128,-1,35
 239 1389 239 1389 241 1399 c 128,-1,36
 243 1409 243 1409 249 1414 c 0,37,38
 258 1423 258 1423 275.5 1424 c 128,-1,39
 293 1425 293 1425 317 1422.5 c 128,-1,40
 341 1420 341 1420 371 1417 c 128,-1,41
 401 1414 401 1414 435 1414 c 2,42,-1
 632 1414 l 2,43,44
 696 1414 696 1414 751.5 1415.5 c 128,-1,45
 807 1417 807 1417 850.5 1419 c 128,-1,46
 894 1421 894 1421 923.5 1424.5 c 128,-1,47
 953 1428 953 1428 966 1431 c 0,48,49
 974 1432 974 1432 982 1433.5 c 128,-1,50
 990 1435 990 1435 1003 1435 c 0,51,52
 1020 1435 1020 1435 1032 1421 c 128,-1,53
 1044 1407 1044 1407 1044 1392 c 0,54,55
 1044 1354 1044 1354 983 1347 c 0,56,57
 960 1344 960 1344 931.5 1343.5 c 128,-1,58
 903 1343 903 1343 877 1343 c 2,59,-1
 320 1343 l 1,60,-1
 271 921 l 1,61,62
 341 952 341 952 419 971 c 128,-1,63
 497 990 497 990 595 990 c 0,64,65
 732 990 732 990 838.5 948.5 c 128,-1,66
 945 907 945 907 1017.5 837 c 128,-1,67
 1090 767 1090 767 1127.5 676.5 c 128,-1,68
 1165 586 1165 586 1165 488 c 0,69,70
 1165 385 1165 385 1124 293 c 128,-1,71
 1083 201 1083 201 1006 131.5 c 128,-1,72
 929 62 929 62 818 21.5 c 128,-1,73
 707 -19 707 -19 566 -19 c 0,74,75
 473 -19 473 -19 382 7 c 128,-1,76
 291 33 291 33 191 96 c 0,0,1
EndSplineSet
EndChar

StartChar: six
Encoding: 54 54 25
Width: 1396
Flags: W
LayerCount: 2
Fore
SplineSet
669 55 m 1,0,1
 683 53 683 53 697.5 52 c 128,-1,2
 712 51 712 51 728 51 c 0,3,4
 849 51 849 51 942 87 c 128,-1,5
 1035 123 1035 123 1098 184 c 128,-1,6
 1161 245 1161 245 1193.5 325.5 c 128,-1,7
 1226 406 1226 406 1226 495 c 0,8,9
 1226 583 1226 583 1200 651.5 c 128,-1,10
 1174 720 1174 720 1126.5 766 c 128,-1,11
 1079 812 1079 812 1012.5 833 c 128,-1,12
 946 854 946 854 865 847 c 0,13,14
 848 845 848 845 837 842 c 128,-1,15
 826 839 826 839 817 835.5 c 128,-1,16
 808 832 808 832 798.5 829 c 128,-1,17
 789 826 789 826 775 825 c 0,18,19
 752 823 752 823 739.5 828 c 128,-1,20
 727 833 727 833 723 855 c 0,21,22
 720 873 720 873 731 884.5 c 128,-1,23
 742 896 742 896 761.5 902.5 c 128,-1,24
 781 909 781 909 806.5 912 c 128,-1,25
 832 915 832 915 858 917 c 0,26,27
 947 925 947 925 1028 904.5 c 128,-1,28
 1109 884 1109 884 1170.5 831.5 c 128,-1,29
 1232 779 1232 779 1268 693.5 c 128,-1,30
 1304 608 1304 608 1304 485 c 0,31,32
 1304 365 1304 365 1257 271 c 128,-1,33
 1210 177 1210 177 1131 112.5 c 128,-1,34
 1052 48 1052 48 950 14.5 c 128,-1,35
 848 -19 848 -19 738 -19 c 0,36,37
 616 -19 616 -19 507 21.5 c 128,-1,38
 398 62 398 62 315.5 146.5 c 128,-1,39
 233 231 233 231 184.5 362 c 128,-1,40
 136 493 136 493 136 675 c 0,41,42
 136 858 136 858 189 999 c 128,-1,43
 242 1140 242 1140 332.5 1236.5 c 128,-1,44
 423 1333 423 1333 544 1383 c 128,-1,45
 665 1433 665 1433 802 1433 c 0,46,47
 887 1433 887 1433 964.5 1413.5 c 128,-1,48
 1042 1394 1042 1394 1100 1361 c 0,49,50
 1148 1333 1148 1333 1171 1303.5 c 128,-1,51
 1194 1274 1194 1274 1194 1249 c 0,52,53
 1194 1217 1194 1217 1156 1217 c 0,54,55
 1134 1217 1134 1217 1121 1230.5 c 128,-1,56
 1108 1244 1108 1244 1097 1256 c 1,57,58
 1051 1314 1051 1314 974.5 1340 c 128,-1,59
 898 1366 898 1366 795 1366 c 0,60,61
 757 1366 757 1366 726 1362 c 128,-1,62
 695 1358 695 1358 669 1352 c 1,63,-1
 669 55 l 1,64,-1
 669 55 l 1,0,1
EndSplineSet
EndChar

StartChar: seven
Encoding: 55 55 26
Width: 1224
Flags: W
LayerCount: 2
Fore
SplineSet
335 0 m 1,0,1
 326 104 326 104 331.5 226 c 128,-1,2
 337 348 337 348 353.5 476.5 c 128,-1,3
 370 605 370 605 395.5 732.5 c 128,-1,4
 421 860 421 860 452.5 974.5 c 128,-1,5
 484 1089 484 1089 519.5 1184.5 c 128,-1,6
 555 1280 555 1280 591 1343 c 1,7,-1
 563 1343 l 2,8,9
 509 1343 509 1343 452.5 1343.5 c 128,-1,10
 396 1344 396 1344 344 1344 c 128,-1,11
 292 1344 292 1344 249.5 1343.5 c 128,-1,12
 207 1343 207 1343 180 1342 c 1,13,14
 178 1307 178 1307 173 1284.5 c 128,-1,15
 168 1262 168 1262 166 1249 c 0,16,17
 164 1232 164 1232 161 1211.5 c 128,-1,18
 158 1191 158 1191 155 1180 c 0,19,20
 150 1161 150 1161 136.5 1151 c 128,-1,21
 123 1141 123 1141 102 1146 c 0,22,23
 83 1150 83 1150 72 1167 c 128,-1,24
 61 1184 61 1184 67 1209 c 0,25,26
 68 1216 68 1216 74 1234.5 c 128,-1,27
 80 1253 80 1253 86.5 1277 c 128,-1,28
 93 1301 93 1301 98 1327 c 128,-1,29
 103 1353 103 1353 103 1375 c 0,30,31
 103 1395 103 1395 117.5 1404.5 c 128,-1,32
 132 1414 132 1414 151 1414 c 2,33,-1
 1164 1414 l 1,34,35
 1131 1353 1131 1353 1097 1265.5 c 128,-1,36
 1063 1178 1063 1178 1031 1069.5 c 128,-1,37
 999 961 999 961 971.5 835 c 128,-1,38
 944 709 944 709 925.5 572 c 128,-1,39
 907 435 907 435 899.5 290.5 c 128,-1,40
 892 146 892 146 900 0 c 1,41,-1
 335 0 l 1,42,-1
 335 0 l 1,0,1
EndSplineSet
EndChar

StartChar: eight
Encoding: 56 56 27
Width: 1362
Flags: W
LayerCount: 2
Fore
SplineSet
103 357 m 0,0,1
 103 414 103 414 119.5 462.5 c 128,-1,2
 136 511 136 511 163 547.5 c 128,-1,3
 190 584 190 584 225 607 c 128,-1,4
 260 630 260 630 298 636 c 0,5,6
 318 639 318 639 329.5 627 c 128,-1,7
 341 615 341 615 341 598 c 0,8,9
 341 584 341 584 328.5 570 c 128,-1,10
 316 556 316 556 296 552 c 0,11,12
 262 546 262 546 239.5 524.5 c 128,-1,13
 217 503 217 503 204 475 c 128,-1,14
 191 447 191 447 186 415.5 c 128,-1,15
 181 384 181 384 181 359 c 0,16,17
 181 286 181 286 215.5 228.5 c 128,-1,18
 250 171 250 171 312.5 131 c 128,-1,19
 375 91 375 91 461 70 c 128,-1,20
 547 49 547 49 649 49 c 0,21,22
 699 49 699 49 748.5 61 c 128,-1,23
 798 73 798 73 837.5 93.5 c 128,-1,24
 877 114 877 114 901.5 141.5 c 128,-1,25
 926 169 926 169 926 200 c 0,26,27
 926 214 926 214 923.5 229.5 c 128,-1,28
 921 245 921 245 910.5 264 c 128,-1,29
 900 283 900 283 879.5 305.5 c 128,-1,30
 859 328 859 328 822.5 357.5 c 128,-1,31
 786 387 786 387 731 424 c 128,-1,32
 676 461 676 461 598 507 c 0,33,34
 457 591 457 591 367 658.5 c 128,-1,35
 277 726 277 726 225.5 787.5 c 128,-1,36
 174 849 174 849 154.5 908.5 c 128,-1,37
 135 968 135 968 135 1036 c 0,38,39
 136 1124 136 1124 180 1197 c 128,-1,40
 224 1270 224 1270 301 1322.5 c 128,-1,41
 378 1375 378 1375 485.5 1404 c 128,-1,42
 593 1433 593 1433 722 1433 c 0,43,44
 768 1433 768 1433 820.5 1426 c 128,-1,45
 873 1419 873 1419 925 1404.5 c 128,-1,46
 977 1390 977 1390 1024.5 1367 c 128,-1,47
 1072 1344 1072 1344 1108.5 1311.5 c 128,-1,48
 1145 1279 1145 1279 1167 1236.5 c 128,-1,49
 1189 1194 1189 1194 1189 1141 c 0,50,51
 1189 1074 1189 1074 1173.5 1028 c 128,-1,52
 1158 982 1158 982 1131 951.5 c 128,-1,53
 1104 921 1104 921 1068.5 903.5 c 128,-1,54
 1033 886 1033 886 994 877 c 0,55,56
 982 874 982 874 972 874 c 0,57,58
 955 874 955 874 944 885 c 128,-1,59
 933 896 933 896 933 911 c 0,60,61
 933 925 933 925 945.5 939.5 c 128,-1,62
 958 954 958 954 988 956 c 0,63,64
 1014 957 1014 957 1037.5 968 c 128,-1,65
 1061 979 1061 979 1078.5 1000 c 128,-1,66
 1096 1021 1096 1021 1106 1052 c 128,-1,67
 1116 1083 1116 1083 1116 1124 c 0,68,69
 1116 1171 1116 1171 1097 1208 c 128,-1,70
 1078 1245 1078 1245 1046 1272 c 128,-1,71
 1014 1299 1014 1299 973.5 1318 c 128,-1,72
 933 1337 933 1337 890 1349 c 128,-1,73
 847 1361 847 1361 804.5 1366 c 128,-1,74
 762 1371 762 1371 728 1371 c 256,75,76
 694 1371 694 1371 652 1365.5 c 128,-1,77
 610 1360 610 1360 573.5 1346.5 c 128,-1,78
 537 1333 537 1333 512.5 1309.5 c 128,-1,79
 488 1286 488 1286 488 1250 c 0,80,81
 488 1217 488 1217 503.5 1181 c 128,-1,82
 519 1145 519 1145 556 1105.5 c 128,-1,83
 593 1066 593 1066 654 1021 c 128,-1,84
 715 976 715 976 806 925 c 0,85,86
 950 843 950 843 1043 778 c 128,-1,87
 1136 713 1136 713 1190 655.5 c 128,-1,88
 1244 598 1244 598 1265 542 c 128,-1,89
 1286 486 1286 486 1286 422 c 0,90,91
 1285 332 1285 332 1252.5 264.5 c 128,-1,92
 1220 197 1220 197 1167 148 c 128,-1,93
 1114 99 1114 99 1046 66.5 c 128,-1,94
 978 34 978 34 906.5 15 c 128,-1,95
 835 -4 835 -4 764.5 -11.5 c 128,-1,96
 694 -19 694 -19 637 -19 c 0,97,98
 526 -19 526 -19 428.5 7.5 c 128,-1,99
 331 34 331 34 259 82.5 c 128,-1,100
 187 131 187 131 145 200.5 c 128,-1,101
 103 270 103 270 103 357 c 0,0,1
EndSplineSet
EndChar

StartChar: nine
Encoding: 57 57 28
Width: 1364
Flags: W
LayerCount: 2
Fore
SplineSet
203 166 m 0,0,1
 203 199 203 199 242 199 c 0,2,3
 263 199 263 199 275.5 185 c 128,-1,4
 288 171 288 171 299 158 c 0,5,6
 346 101 346 101 422.5 75 c 128,-1,7
 499 49 499 49 602 49 c 0,8,9
 639 49 639 49 670 53 c 128,-1,10
 701 57 701 57 727 63 c 1,11,-1
 727 1356 l 1,12,13
 713 1358 713 1358 698 1359 c 128,-1,14
 683 1360 683 1360 668 1360 c 0,15,16
 540 1360 540 1360 447 1324 c 128,-1,17
 354 1288 354 1288 292.5 1226.5 c 128,-1,18
 231 1165 231 1165 201.5 1084.5 c 128,-1,19
 172 1004 172 1004 172 914 c 0,20,21
 172 826 172 826 199.5 760 c 128,-1,22
 227 694 227 694 275 649.5 c 128,-1,23
 323 605 323 605 389 582 c 128,-1,24
 455 559 455 559 532 556 c 0,25,26
 550 555 550 555 561 557 c 128,-1,27
 572 559 572 559 581.5 561 c 128,-1,28
 591 563 591 563 601 565 c 128,-1,29
 611 567 611 567 625 567 c 0,30,31
 650 566 650 566 660.5 560 c 128,-1,32
 671 554 671 554 673 531 c 0,33,34
 674 513 674 513 661.5 503 c 128,-1,35
 649 493 649 493 629 489 c 128,-1,36
 609 485 609 485 583 485 c 128,-1,37
 557 485 557 485 531 486 c 0,38,39
 452 489 452 489 373.5 511.5 c 128,-1,40
 295 534 295 534 232.5 585 c 128,-1,41
 170 636 170 636 131 720 c 128,-1,42
 92 804 92 804 92 930 c 0,43,44
 92 1051 92 1051 139.5 1144.5 c 128,-1,45
 187 1238 187 1238 266 1302 c 128,-1,46
 345 1366 345 1366 447.5 1399.5 c 128,-1,47
 550 1433 550 1433 660 1433 c 0,48,49
 781 1433 781 1433 890 1392.5 c 128,-1,50
 999 1352 999 1352 1081.5 1267.5 c 128,-1,51
 1164 1183 1164 1183 1212 1052 c 128,-1,52
 1260 921 1260 921 1260 740 c 0,53,54
 1260 557 1260 557 1207.5 415.5 c 128,-1,55
 1155 274 1155 274 1064.5 177.5 c 128,-1,56
 974 81 974 81 853 31 c 128,-1,57
 732 -19 732 -19 596 -19 c 0,58,59
 510 -19 510 -19 432 0.5 c 128,-1,60
 354 20 354 20 296 54 c 0,61,62
 248 82 248 82 225.5 111 c 128,-1,63
 203 140 203 140 203 166 c 0,0,1
EndSplineSet
EndChar

StartChar: colon
Encoding: 58 58 29
Width: 685
Flags: W
LayerCount: 2
Fore
SplineSet
328 579 m 0,0,1
 272 579 272 579 229 594.5 c 128,-1,2
 186 610 186 610 157 638.5 c 128,-1,3
 128 667 128 667 112.5 707 c 128,-1,4
 97 747 97 747 97 795 c 0,5,6
 97 835 97 835 114.5 871.5 c 128,-1,7
 132 908 132 908 163.5 936 c 128,-1,8
 195 964 195 964 238.5 980.5 c 128,-1,9
 282 997 282 997 334 997 c 0,10,11
 389 997 389 997 432 978 c 128,-1,12
 475 959 475 959 504.5 928 c 128,-1,13
 534 897 534 897 549 858 c 128,-1,14
 564 819 564 819 564 780 c 0,15,16
 564 738 564 738 546 701.5 c 128,-1,17
 528 665 528 665 496 638 c 128,-1,18
 464 611 464 611 421 595 c 128,-1,19
 378 579 378 579 328 579 c 0,0,1
97 197 m 0,20,21
 97 237 97 237 114.5 273.5 c 128,-1,22
 132 310 132 310 163.5 338 c 128,-1,23
 195 366 195 366 238.5 382.5 c 128,-1,24
 282 399 282 399 334 399 c 0,25,26
 389 399 389 399 432 380 c 128,-1,27
 475 361 475 361 504.5 330 c 128,-1,28
 534 299 534 299 549 260 c 128,-1,29
 564 221 564 221 564 182 c 0,30,31
 564 140 564 140 546 103.5 c 128,-1,32
 528 67 528 67 496 40 c 128,-1,33
 464 13 464 13 421 -3 c 128,-1,34
 378 -19 378 -19 328 -19 c 0,35,36
 272 -19 272 -19 229 -3.5 c 128,-1,37
 186 12 186 12 157 40.5 c 128,-1,38
 128 69 128 69 112.5 109 c 128,-1,39
 97 149 97 149 97 197 c 0,20,21
EndSplineSet
EndChar

StartChar: semicolon
Encoding: 59 59 30
Width: 685
Flags: W
LayerCount: 2
Fore
SplineSet
328 579 m 0,0,1
 272 579 272 579 229 594.5 c 128,-1,2
 186 610 186 610 157 638.5 c 128,-1,3
 128 667 128 667 112.5 707 c 128,-1,4
 97 747 97 747 97 795 c 0,5,6
 97 835 97 835 114.5 871.5 c 128,-1,7
 132 908 132 908 163.5 936 c 128,-1,8
 195 964 195 964 238.5 980.5 c 128,-1,9
 282 997 282 997 334 997 c 0,10,11
 389 997 389 997 432 978 c 128,-1,12
 475 959 475 959 504.5 928 c 128,-1,13
 534 897 534 897 549 858 c 128,-1,14
 564 819 564 819 564 780 c 0,15,16
 564 738 564 738 546 701.5 c 128,-1,17
 528 665 528 665 496 638 c 128,-1,18
 464 611 464 611 421 595 c 128,-1,19
 378 579 378 579 328 579 c 0,0,1
98 181 m 0,20,21
 98 221 98 221 114 257.5 c 128,-1,22
 130 294 130 294 159 321.5 c 128,-1,23
 188 349 188 349 228.5 365 c 128,-1,24
 269 381 269 381 317 381 c 0,25,26
 375 381 375 381 420.5 362.5 c 128,-1,27
 466 344 466 344 497.5 312 c 128,-1,28
 529 280 529 280 545.5 236 c 128,-1,29
 562 192 562 192 562 140 c 0,30,31
 562 83 562 83 548.5 31 c 128,-1,32
 535 -21 535 -21 511.5 -65.5 c 128,-1,33
 488 -110 488 -110 457.5 -146.5 c 128,-1,34
 427 -183 427 -183 394 -209 c 0,35,36
 377 -222 377 -222 359.5 -229 c 128,-1,37
 342 -236 342 -236 325 -236 c 0,38,39
 302 -236 302 -236 290 -224 c 128,-1,40
 278 -212 278 -212 278 -192 c 0,41,42
 278 -176 278 -176 289.5 -171 c 128,-1,43
 301 -166 301 -166 326 -155 c 0,44,45
 353 -143 353 -143 379.5 -116.5 c 128,-1,46
 406 -90 406 -90 423 -65 c 0,47,48
 432 -51 432 -51 438.5 -30 c 128,-1,49
 445 -9 445 -9 447 15 c 1,50,51
 422 -1 422 -1 389.5 -10 c 128,-1,52
 357 -19 357 -19 316 -19 c 0,53,54
 265 -19 265 -19 224.5 -1.5 c 128,-1,55
 184 16 184 16 156 44.5 c 128,-1,56
 128 73 128 73 113 108.5 c 128,-1,57
 98 144 98 144 98 181 c 0,20,21
EndSplineSet
EndChar

StartChar: less
Encoding: 60 60 31
Width: 935
Flags: W
LayerCount: 2
Fore
SplineSet
77 475 m 1,0,1
 47 498 47 498 38.5 514 c 128,-1,2
 30 530 30 530 30 545 c 0,3,4
 30 561 30 561 40.5 578 c 128,-1,5
 51 595 51 595 77 612 c 2,6,-1
 625 994 l 2,7,8
 656 1015 656 1015 674 1028.5 c 128,-1,9
 692 1042 692 1042 708 1056 c 0,10,11
 733 1076 733 1076 749 1081 c 128,-1,12
 765 1086 765 1086 778 1086 c 0,13,14
 795 1086 795 1086 806.5 1076 c 128,-1,15
 818 1066 818 1066 818 1052 c 0,16,17
 818 1041 818 1041 811 1029 c 128,-1,18
 804 1017 804 1017 775 999 c 0,19,20
 767 994 767 994 755 986.5 c 128,-1,21
 743 979 743 979 729 970 c 128,-1,22
 715 961 715 961 700.5 952 c 128,-1,23
 686 943 686 943 674 935 c 2,24,-1
 120 542 l 1,25,-1
 598 194 l 2,26,27
 620 178 620 178 643 162.5 c 128,-1,28
 666 147 666 147 687.5 133 c 128,-1,29
 709 119 709 119 726.5 107.5 c 128,-1,30
 744 96 744 96 755 89 c 0,31,32
 784 71 784 71 801 56.5 c 128,-1,33
 818 42 818 42 818 22 c 0,34,35
 818 3 818 3 805.5 -8 c 128,-1,36
 793 -19 793 -19 776 -19 c 0,37,38
 762 -19 762 -19 746.5 -11 c 128,-1,39
 731 -3 731 -3 714 11 c 0,40,41
 692 28 692 28 652 57 c 128,-1,42
 612 86 612 86 542 138 c 1,43,-1
 77 475 l 1,44,-1
 77 475 l 1,0,1
EndSplineSet
EndChar

StartChar: equal
Encoding: 61 61 32
Width: 1014
Flags: W
LayerCount: 2
Fore
SplineSet
152 718 m 0,0,1
 128 718 128 718 112.5 730.5 c 128,-1,2
 97 743 97 743 97 762 c 0,3,4
 97 805 97 805 152 805 c 0,5,6
 165 805 165 805 180 804 c 128,-1,7
 195 803 195 803 211 802 c 0,8,9
 231 800 231 800 251.5 798.5 c 128,-1,10
 272 797 272 797 295 797 c 2,11,-1
 675 797 l 2,12,13
 707 797 707 797 734 798.5 c 128,-1,14
 761 800 761 800 778 802 c 0,15,16
 792 803 792 803 805 804 c 128,-1,17
 818 805 818 805 835 805 c 0,18,19
 861 805 861 805 877 793.5 c 128,-1,20
 893 782 893 782 893 762 c 0,21,22
 893 743 893 743 876.5 730.5 c 128,-1,23
 860 718 860 718 831 718 c 0,24,25
 814 718 814 718 799 719 c 128,-1,26
 784 720 784 720 767 722 c 0,27,28
 750 723 750 723 731 723.5 c 128,-1,29
 712 724 712 724 688 724 c 2,30,-1
 303 724 l 2,31,32
 280 724 280 724 261.5 723.5 c 128,-1,33
 243 723 243 723 226 722 c 0,34,35
 209 720 209 720 191 719 c 128,-1,36
 173 718 173 718 152 718 c 0,0,1
152 326 m 0,37,38
 128 326 128 326 112.5 338.5 c 128,-1,39
 97 351 97 351 97 369 c 0,40,41
 97 390 97 390 111.5 402 c 128,-1,42
 126 414 126 414 152 414 c 0,43,44
 165 414 165 414 180 413 c 128,-1,45
 195 412 195 412 211 410 c 0,46,47
 231 408 231 408 251.5 406.5 c 128,-1,48
 272 405 272 405 295 405 c 2,49,-1
 675 405 l 2,50,51
 707 405 707 405 734 406.5 c 128,-1,52
 761 408 761 408 778 410 c 0,53,54
 792 412 792 412 805 413 c 128,-1,55
 818 414 818 414 835 414 c 0,56,57
 861 414 861 414 877 402 c 128,-1,58
 893 390 893 390 893 369 c 0,59,60
 893 351 893 351 876.5 338.5 c 128,-1,61
 860 326 860 326 831 326 c 0,62,63
 814 326 814 326 799 327 c 128,-1,64
 784 328 784 328 767 330 c 256,65,66
 750 332 750 332 731 332 c 128,-1,67
 712 332 712 332 688 332 c 2,68,-1
 303 332 l 2,69,70
 280 332 280 332 261.5 332 c 128,-1,71
 243 332 243 332 226 330 c 256,72,73
 209 328 209 328 191 327 c 128,-1,74
 173 326 173 326 152 326 c 0,37,38
EndSplineSet
EndChar

StartChar: greater
Encoding: 62 62 33
Width: 935
Flags: W
LayerCount: 2
Fore
SplineSet
102 22 m 0,0,1
 102 42 102 42 119 56.5 c 128,-1,2
 136 71 136 71 165 89 c 0,3,4
 176 96 176 96 193.5 107.5 c 128,-1,5
 211 119 211 119 232.5 133 c 128,-1,6
 254 147 254 147 277 162.5 c 128,-1,7
 300 178 300 178 322 194 c 2,8,-1
 800 542 l 1,9,-1
 246 935 l 2,10,11
 234 943 234 943 219.5 952 c 128,-1,12
 205 961 205 961 191 970 c 128,-1,13
 177 979 177 979 164.5 986.5 c 128,-1,14
 152 994 152 994 145 999 c 0,15,16
 116 1017 116 1017 109 1029 c 128,-1,17
 102 1041 102 1041 102 1052 c 0,18,19
 102 1066 102 1066 113.5 1076 c 128,-1,20
 125 1086 125 1086 142 1086 c 0,21,22
 155 1086 155 1086 171 1081 c 128,-1,23
 187 1076 187 1076 212 1056 c 0,24,25
 228 1042 228 1042 246 1028.5 c 128,-1,26
 264 1015 264 1015 295 994 c 2,27,-1
 843 612 l 2,28,29
 869 595 869 595 879.5 578 c 128,-1,30
 890 561 890 561 890 545 c 0,31,32
 890 530 890 530 881.5 514 c 128,-1,33
 873 498 873 498 843 475 c 1,34,-1
 378 138 l 2,35,36
 343 112 343 112 315.5 92 c 128,-1,37
 288 72 288 72 267.5 57 c 128,-1,38
 247 42 247 42 232 31 c 128,-1,39
 217 20 217 20 206 11 c 0,40,41
 189 -3 189 -3 173.5 -11 c 128,-1,42
 158 -19 158 -19 144 -19 c 0,43,44
 127 -19 127 -19 114.5 -8 c 128,-1,45
 102 3 102 3 102 22 c 0,0,1
EndSplineSet
EndChar

StartChar: question
Encoding: 63 63 34
Width: 926
Flags: W
LayerCount: 2
Fore
SplineSet
522 463 m 0,0,1
 455 461 455 461 391.5 479.5 c 128,-1,2
 328 498 328 498 278 536 c 128,-1,3
 228 574 228 574 197.5 630.5 c 128,-1,4
 167 687 167 687 167 762 c 0,5,6
 167 798 167 798 175 834 c 128,-1,7
 183 870 183 870 201 909 c 128,-1,8
 219 948 219 948 248 991.5 c 128,-1,9
 277 1035 277 1035 319 1086 c 0,10,11
 356 1132 356 1132 381.5 1168 c 128,-1,12
 407 1204 407 1204 423 1232 c 128,-1,13
 439 1260 439 1260 445.5 1280.5 c 128,-1,14
 452 1301 452 1301 452 1316 c 0,15,16
 452 1335 452 1335 437 1347.5 c 128,-1,17
 422 1360 422 1360 394 1360 c 0,18,19
 356 1360 356 1360 316 1346 c 128,-1,20
 276 1332 276 1332 236 1296 c 1,21,22
 222 1282 222 1282 208.5 1276 c 128,-1,23
 195 1270 195 1270 184 1270 c 0,24,25
 170 1270 170 1270 159.5 1279.5 c 128,-1,26
 149 1289 149 1289 149 1306 c 0,27,28
 149 1334 149 1334 184.5 1363 c 128,-1,29
 220 1392 220 1392 280 1411 c 0,30,31
 315 1423 315 1423 356.5 1428 c 128,-1,32
 398 1433 398 1433 444 1433 c 0,33,34
 525 1433 525 1433 591 1412 c 128,-1,35
 657 1391 657 1391 704 1353.5 c 128,-1,36
 751 1316 751 1316 776.5 1263 c 128,-1,37
 802 1210 802 1210 802 1147 c 0,38,39
 802 1045 802 1045 742 927.5 c 128,-1,40
 682 810 682 810 573 672 c 0,41,42
 541 633 541 633 530 613 c 128,-1,43
 519 593 519 593 519 577 c 0,44,45
 519 560 519 560 529 551.5 c 128,-1,46
 539 543 539 543 555 543 c 0,47,48
 583 543 583 543 603.5 550.5 c 128,-1,49
 624 558 624 558 641 571 c 0,50,51
 667 591 667 591 681 598.5 c 128,-1,52
 695 606 695 606 712 606 c 0,53,54
 727 606 727 606 735 596.5 c 128,-1,55
 743 587 743 587 743 572 c 0,56,57
 743 556 743 556 724 537.5 c 128,-1,58
 705 519 705 519 674.5 502.5 c 128,-1,59
 644 486 644 486 604 475 c 128,-1,60
 564 464 564 464 522 463 c 0,0,1
257 152 m 0,61,62
 257 237 257 237 313.5 285 c 128,-1,63
 370 333 370 333 465 333 c 0,64,65
 515 333 515 333 552.5 318.5 c 128,-1,66
 590 304 590 304 615 279.5 c 128,-1,67
 640 255 640 255 652.5 221.5 c 128,-1,68
 665 188 665 188 665 151 c 0,69,70
 665 116 665 116 651 85.5 c 128,-1,71
 637 55 637 55 610 31.5 c 128,-1,72
 583 8 583 8 545 -5.5 c 128,-1,73
 507 -19 507 -19 459 -19 c 0,74,75
 412 -19 412 -19 374.5 -6.5 c 128,-1,76
 337 6 337 6 311 29 c 128,-1,77
 285 52 285 52 271 83 c 128,-1,78
 257 114 257 114 257 152 c 0,61,62
EndSplineSet
EndChar

StartChar: at
Encoding: 64 64 35
Width: 1935
Flags: W
LayerCount: 2
Fore
SplineSet
84 485 m 0,0,1
 84 613 84 613 120 731 c 128,-1,2
 156 849 156 849 220.5 950.5 c 128,-1,3
 285 1052 285 1052 375 1135 c 128,-1,4
 465 1218 465 1218 573.5 1277 c 128,-1,5
 682 1336 682 1336 804.5 1368 c 128,-1,6
 927 1400 927 1400 1058 1400 c 0,7,8
 1229 1400 1229 1400 1375.5 1357 c 128,-1,9
 1522 1314 1522 1314 1628.5 1231.5 c 128,-1,10
 1735 1149 1735 1149 1795.5 1028.5 c 128,-1,11
 1856 908 1856 908 1856 752 c 0,12,13
 1856 649 1856 649 1827.5 559.5 c 128,-1,14
 1799 470 1799 470 1748.5 395.5 c 128,-1,15
 1698 321 1698 321 1628 262.5 c 128,-1,16
 1558 204 1558 204 1474.5 163.5 c 128,-1,17
 1391 123 1391 123 1297.5 102 c 128,-1,18
 1204 81 1204 81 1106 81 c 1,19,-1
 1009 91 l 1,20,-1
 1024 175 l 1,21,22
 958 137 958 137 897.5 120 c 128,-1,23
 837 103 837 103 786 103 c 0,24,25
 705 103 705 103 641.5 128.5 c 128,-1,26
 578 154 578 154 533.5 202 c 128,-1,27
 489 250 489 250 465.5 319 c 128,-1,28
 442 388 442 388 442 475 c 0,29,30
 442 584 442 584 474 683 c 128,-1,31
 506 782 506 782 569.5 857 c 128,-1,32
 633 932 633 932 727.5 976.5 c 128,-1,33
 822 1021 822 1021 946 1021 c 0,34,35
 1002 1021 1002 1021 1054 1005 c 128,-1,36
 1106 989 1106 989 1159 950 c 1,37,-1
 1169 1007 l 1,38,-1
 1510 1007 l 1,39,-1
 1370 198 l 1,40,41
 1453 214 1453 214 1527.5 263.5 c 128,-1,42
 1602 313 1602 313 1657.5 387 c 128,-1,43
 1713 461 1713 461 1745.5 556.5 c 128,-1,44
 1778 652 1778 652 1778 761 c 0,45,46
 1778 903 1778 903 1724.5 1010 c 128,-1,47
 1671 1117 1671 1117 1573.5 1188 c 128,-1,48
 1476 1259 1476 1259 1340.5 1294.5 c 128,-1,49
 1205 1330 1205 1330 1041 1330 c 0,50,51
 926 1330 926 1330 816 1299.5 c 128,-1,52
 706 1269 706 1269 608.5 1213.5 c 128,-1,53
 511 1158 511 1158 429 1081 c 128,-1,54
 347 1004 347 1004 288 911 c 128,-1,55
 229 818 229 818 196 711.5 c 128,-1,56
 163 605 163 605 163 491 c 0,57,58
 163 371 163 371 193 271.5 c 128,-1,59
 223 172 223 172 276 93 c 128,-1,60
 329 14 329 14 401.5 -45 c 128,-1,61
 474 -104 474 -104 558 -143 c 128,-1,62
 642 -182 642 -182 734 -201.5 c 128,-1,63
 826 -221 826 -221 919 -221 c 0,64,65
 985 -221 985 -221 1056 -207 c 128,-1,66
 1127 -193 1127 -193 1199 -163 c 0,67,68
 1222 -154 1222 -154 1236 -150 c 128,-1,69
 1250 -146 1250 -146 1262 -146 c 0,70,71
 1281 -146 1281 -146 1293 -157 c 128,-1,72
 1305 -168 1305 -168 1305 -185 c 0,73,74
 1305 -207 1305 -207 1287 -220 c 128,-1,75
 1269 -233 1269 -233 1243 -243 c 0,76,77
 1214 -254 1214 -254 1174.5 -263.5 c 128,-1,78
 1135 -273 1135 -273 1090 -280 c 128,-1,79
 1045 -287 1045 -287 997.5 -291 c 128,-1,80
 950 -295 950 -295 907 -295 c 0,81,82
 797 -295 797 -295 693 -272.5 c 128,-1,83
 589 -250 589 -250 497.5 -205.5 c 128,-1,84
 406 -161 406 -161 330 -95 c 128,-1,85
 254 -29 254 -29 199.5 57.5 c 128,-1,86
 145 144 145 144 114.5 251 c 128,-1,87
 84 358 84 358 84 485 c 0,0,1
789 178 m 1,88,89
 793 177 793 177 808 177 c 0,90,91
 862 177 862 177 921.5 198.5 c 128,-1,92
 981 220 981 220 1039 260 c 1,93,-1
 1145 873 l 1,94,95
 1048 948 1048 948 933 948 c 2,96,-1
 929 948 l 1,97,-1
 789 178 l 1,88,89
EndSplineSet
EndChar

StartChar: A
Encoding: 65 65 36
Width: 1355
Flags: W
LayerCount: 2
Fore
SplineSet
17 30 m 0,0,1
 17 40 17 40 24.5 54 c 128,-1,2
 32 68 32 68 46 87 c 1,3,4
 56 103 56 103 68 126.5 c 128,-1,5
 80 150 80 150 95 185 c 1,6,7
 84 186 84 186 75 187 c 128,-1,8
 66 188 66 188 58 190 c 0,9,10
 35 194 35 194 22 206.5 c 128,-1,11
 9 219 9 219 9 236 c 0,12,13
 9 256 9 256 23 266.5 c 128,-1,14
 37 277 37 277 58 277 c 0,15,16
 63 277 63 277 79 275.5 c 128,-1,17
 95 274 95 274 120 269 c 1,18,-1
 128 267 l 1,19,-1
 627 1479 l 1,20,-1
 1311 0 l 1,21,-1
 790 0 l 1,22,-1
 707 178 l 1,23,-1
 427 178 l 2,24,25
 342 178 342 178 282 178.5 c 128,-1,26
 222 179 222 179 177 181 c 1,27,28
 160 140 160 140 147.5 111.5 c 128,-1,29
 135 83 135 83 128 63 c 0,30,31
 112 19 112 19 97.5 4 c 128,-1,32
 83 -11 83 -11 60 -11 c 0,33,34
 41 -11 41 -11 29 1 c 128,-1,35
 17 13 17 13 17 30 c 0,0,1
209 259 m 1,36,37
 257 255 257 255 304.5 253 c 128,-1,38
 352 251 352 251 381 251 c 2,39,-1
 674 251 l 1,40,-1
 424 790 l 1,41,-1
 209 259 l 1,36,37
EndSplineSet
EndChar

StartChar: B
Encoding: 66 66 37
Width: 1503
Flags: W
LayerCount: 2
Fore
SplineSet
177 1415 m 1,0,-1
 593 1415 l 2,1,2
 669 1415 669 1415 717.5 1415 c 128,-1,3
 766 1415 766 1415 800.5 1413.5 c 128,-1,4
 835 1412 835 1412 862 1409.5 c 128,-1,5
 889 1407 889 1407 923 1402 c 0,6,7
 975 1395 975 1395 1022.5 1373.5 c 128,-1,8
 1070 1352 1070 1352 1105.5 1317.5 c 128,-1,9
 1141 1283 1141 1283 1162 1236.5 c 128,-1,10
 1183 1190 1183 1190 1183 1134 c 0,11,12
 1183 1100 1183 1100 1174 1066 c 128,-1,13
 1165 1032 1165 1032 1148.5 1002 c 128,-1,14
 1132 972 1132 972 1108.5 946.5 c 128,-1,15
 1085 921 1085 921 1055 903 c 1,16,17
 1132 889 1132 889 1201 854.5 c 128,-1,18
 1270 820 1270 820 1322 766.5 c 128,-1,19
 1374 713 1374 713 1404.5 641.5 c 128,-1,20
 1435 570 1435 570 1435 483 c 0,21,22
 1435 399 1435 399 1408 324.5 c 128,-1,23
 1381 250 1381 250 1329.5 190 c 128,-1,24
 1278 130 1278 130 1201.5 87 c 128,-1,25
 1125 44 1125 44 1026 23 c 0,26,27
 992 15 992 15 954 10.5 c 128,-1,28
 916 6 916 6 876.5 4 c 128,-1,29
 837 2 837 2 797.5 1 c 128,-1,30
 758 0 758 0 722 0 c 2,31,-1
 177 0 l 1,32,-1
 177 1415 l 1,0,-1
798 74 m 2,33,34
 837 74 837 74 876.5 77.5 c 128,-1,35
 916 81 916 81 952.5 86.5 c 128,-1,36
 989 92 989 92 1020.5 99.5 c 128,-1,37
 1052 107 1052 107 1075 116 c 0,38,39
 1141 139 1141 139 1192 176 c 128,-1,40
 1243 213 1243 213 1278 258.5 c 128,-1,41
 1313 304 1313 304 1331 357.5 c 128,-1,42
 1349 411 1349 411 1349 467 c 0,43,44
 1349 555 1349 555 1319 625 c 128,-1,45
 1289 695 1289 695 1232.5 744 c 128,-1,46
 1176 793 1176 793 1094.5 819 c 128,-1,47
 1013 845 1013 845 909 845 c 0,48,49
 900 845 900 845 891 844.5 c 128,-1,50
 882 844 882 844 874 843 c 0,51,52
 866 841 866 841 857.5 840 c 128,-1,53
 849 839 849 839 840 839 c 0,54,55
 808 839 808 839 793 852 c 128,-1,56
 778 865 778 865 778 882 c 0,57,58
 778 907 778 907 794.5 915 c 128,-1,59
 811 923 811 923 833 923 c 0,60,61
 838 923 838 923 846.5 922 c 128,-1,62
 855 921 855 921 865 919 c 0,63,64
 876 917 876 917 883.5 917 c 128,-1,65
 891 917 891 917 900 917 c 0,66,67
 937 917 937 917 973 932 c 128,-1,68
 1009 947 1009 947 1037 975 c 128,-1,69
 1065 1003 1065 1003 1082 1041.5 c 128,-1,70
 1099 1080 1099 1080 1099 1127 c 0,71,72
 1099 1159 1099 1159 1089.5 1190 c 128,-1,73
 1080 1221 1080 1221 1059 1248 c 128,-1,74
 1038 1275 1038 1275 1004 1296 c 128,-1,75
 970 1317 970 1317 920 1328 c 0,76,77
 903 1332 903 1332 882 1334.5 c 128,-1,78
 861 1337 861 1337 833.5 1339 c 128,-1,79
 806 1341 806 1341 770 1342 c 128,-1,80
 734 1343 734 1343 687 1343 c 1,81,-1
 687 74 l 1,82,-1
 798 74 l 2,33,34
EndSplineSet
EndChar

StartChar: C
Encoding: 67 67 38
Width: 1436
Flags: W
LayerCount: 2
Fore
SplineSet
88 720 m 0,0,1
 88 877 88 877 147 1008.5 c 128,-1,2
 206 1140 206 1140 310 1234 c 128,-1,3
 414 1328 414 1328 555.5 1380.5 c 128,-1,4
 697 1433 697 1433 863 1433 c 0,5,6
 906 1433 906 1433 951 1428.5 c 128,-1,7
 996 1424 996 1424 1039.5 1415.5 c 128,-1,8
 1083 1407 1083 1407 1122 1395 c 128,-1,9
 1161 1383 1161 1383 1192 1369 c 0,10,11
 1278 1331 1278 1331 1310.5 1303 c 128,-1,12
 1343 1275 1343 1275 1343 1255 c 0,13,14
 1343 1236 1343 1236 1330.5 1222 c 128,-1,15
 1318 1208 1318 1208 1298 1208 c 0,16,17
 1287 1208 1287 1208 1272.5 1214.5 c 128,-1,18
 1258 1221 1258 1221 1244 1236 c 0,19,20
 1218 1265 1218 1265 1173.5 1288 c 128,-1,21
 1129 1311 1129 1311 1076 1327.5 c 128,-1,22
 1023 1344 1023 1344 965.5 1352.5 c 128,-1,23
 908 1361 908 1361 856 1361 c 0,24,25
 821 1361 821 1361 791.5 1358 c 128,-1,26
 762 1355 762 1355 733 1349 c 1,27,-1
 733 67 l 1,28,29
 768 61 768 61 802 58 c 128,-1,30
 836 55 836 55 860 55 c 0,31,32
 911 55 911 55 967 62 c 128,-1,33
 1023 69 1023 69 1077 85 c 128,-1,34
 1131 101 1131 101 1178.5 127 c 128,-1,35
 1226 153 1226 153 1259 191 c 0,36,37
 1281 217 1281 217 1294 227 c 128,-1,38
 1307 237 1307 237 1324 237 c 0,39,40
 1345 237 1345 237 1355 223 c 128,-1,41
 1365 209 1365 209 1365 191 c 0,42,43
 1365 174 1365 174 1351.5 154.5 c 128,-1,44
 1338 135 1338 135 1299 109 c 0,45,46
 1249 77 1249 77 1203 54.5 c 128,-1,47
 1157 32 1157 32 1109 18 c 0,48,49
 1050 0 1050 0 983.5 -9.5 c 128,-1,50
 917 -19 917 -19 854 -19 c 0,51,52
 680 -19 680 -19 538.5 35.5 c 128,-1,53
 397 90 397 90 297 188.5 c 128,-1,54
 197 287 197 287 142.5 422.5 c 128,-1,55
 88 558 88 558 88 720 c 0,0,1
EndSplineSet
EndChar

StartChar: D
Encoding: 68 68 39
Width: 1578
Flags: W
LayerCount: 2
Fore
SplineSet
177 1415 m 1,0,-1
 593 1415 l 2,1,2
 698 1415 698 1415 775.5 1410.5 c 128,-1,3
 853 1406 853 1406 912.5 1397 c 128,-1,4
 972 1388 972 1388 1019.5 1373.5 c 128,-1,5
 1067 1359 1067 1359 1112 1340 c 0,6,7
 1203 1301 1203 1301 1273.5 1238.5 c 128,-1,8
 1344 1176 1344 1176 1392 1096 c 128,-1,9
 1440 1016 1440 1016 1465 922 c 128,-1,10
 1490 828 1490 828 1490 726 c 0,11,12
 1490 616 1490 616 1462.5 520 c 128,-1,13
 1435 424 1435 424 1383 343 c 128,-1,14
 1331 262 1331 262 1256.5 197.5 c 128,-1,15
 1182 133 1182 133 1088 87 c 0,16,17
 1037 63 1037 63 984 46 c 128,-1,18
 931 29 931 29 865 19 c 128,-1,19
 799 9 799 9 714 4.5 c 128,-1,20
 629 0 629 0 515 0 c 2,21,-1
 177 0 l 1,22,-1
 177 1415 l 1,0,-1
687 83 m 1,23,24
 703 82 703 82 716.5 82 c 128,-1,25
 730 82 730 82 739 82 c 0,26,27
 826 82 826 82 909 101.5 c 128,-1,28
 992 121 992 121 1066 158.5 c 128,-1,29
 1140 196 1140 196 1202.5 251 c 128,-1,30
 1265 306 1265 306 1310 377.5 c 128,-1,31
 1355 449 1355 449 1380 536 c 128,-1,32
 1405 623 1405 623 1405 724 c 0,33,34
 1405 815 1405 815 1382.5 900.5 c 128,-1,35
 1360 986 1360 986 1316.5 1059 c 128,-1,36
 1273 1132 1273 1132 1209.5 1188.5 c 128,-1,37
 1146 1245 1146 1245 1064 1279 c 0,38,39
 998 1307 998 1307 907.5 1322 c 128,-1,40
 817 1337 817 1337 687 1339 c 1,41,-1
 687 83 l 1,23,24
EndSplineSet
EndChar

StartChar: E
Encoding: 69 69 40
Width: 1196
Flags: W
LayerCount: 2
Fore
SplineSet
160 1415 m 1,0,-1
 914 1415 l 2,1,2
 934 1415 934 1415 948.5 1415 c 128,-1,3
 963 1415 963 1415 975 1416 c 0,4,5
 994 1417 994 1417 1006.5 1417.5 c 128,-1,6
 1019 1418 1019 1418 1030 1418 c 0,7,8
 1067 1418 1067 1418 1086 1406 c 128,-1,9
 1105 1394 1105 1394 1105 1374 c 0,10,11
 1105 1357 1105 1357 1092.5 1342.5 c 128,-1,12
 1080 1328 1080 1328 1054 1328 c 0,13,14
 1047 1328 1047 1328 1037.5 1329 c 128,-1,15
 1028 1330 1028 1330 1009 1334 c 256,16,17
 990 1338 990 1338 960.5 1340.5 c 128,-1,18
 931 1343 931 1343 891 1343 c 2,19,-1
 670 1343 l 1,20,-1
 670 1038 l 1,21,-1
 852 1038 l 2,22,23
 877 1038 877 1038 895 1038.5 c 128,-1,24
 913 1039 913 1039 925 1040 c 0,25,26
 940 1041 940 1041 950.5 1042 c 128,-1,27
 961 1043 961 1043 975 1043 c 0,28,29
 997 1043 997 1043 1012.5 1032.5 c 128,-1,30
 1028 1022 1028 1022 1028 1003 c 0,31,32
 1028 982 1028 982 1013 971.5 c 128,-1,33
 998 961 998 961 972 961 c 0,34,35
 963 961 963 961 954 961.5 c 128,-1,36
 945 962 945 962 929 962 c 1,37,38
 918 963 918 963 904.5 964 c 128,-1,39
 891 965 891 965 874 965 c 2,40,-1
 670 965 l 1,41,-1
 670 73 l 1,42,-1
 891 73 l 2,43,44
 931 73 931 73 960.5 75 c 128,-1,45
 990 77 990 77 1009 80 c 1,46,47
 1028 85 1028 85 1037.5 85.5 c 128,-1,48
 1047 86 1047 86 1054 86 c 0,49,50
 1080 86 1080 86 1092.5 75 c 128,-1,51
 1105 64 1105 64 1105 46 c 256,52,53
 1105 28 1105 28 1083 14 c 128,-1,54
 1061 0 1061 0 1007 0 c 2,55,-1
 160 0 l 1,56,-1
 160 1415 l 1,0,-1
EndSplineSet
EndChar

StartChar: F
Encoding: 70 70 41
Width: 1158
Flags: W
LayerCount: 2
Fore
SplineSet
177 1415 m 1,0,-1
 971 1415 l 2,1,2
 997 1415 997 1415 1016.5 1415.5 c 128,-1,3
 1036 1416 1036 1416 1051 1417 c 0,4,5
 1062 1418 1062 1418 1070.5 1418 c 128,-1,6
 1079 1418 1079 1418 1088 1418 c 0,7,8
 1124 1418 1124 1418 1143.5 1406 c 128,-1,9
 1163 1394 1163 1394 1163 1374 c 0,10,11
 1163 1357 1163 1357 1149.5 1342.5 c 128,-1,12
 1136 1328 1136 1328 1110 1328 c 0,13,14
 1104 1328 1104 1328 1094 1329 c 128,-1,15
 1084 1330 1084 1330 1065 1334 c 0,16,17
 1047 1338 1047 1338 1017.5 1340.5 c 128,-1,18
 988 1343 988 1343 950 1343 c 2,19,-1
 687 1343 l 1,20,-1
 687 983 l 1,21,-1
 888 983 l 2,22,23
 915 983 915 983 931.5 983.5 c 128,-1,24
 948 984 948 984 962 985 c 256,25,26
 976 986 976 986 987 987 c 128,-1,27
 998 988 998 988 1012 988 c 0,28,29
 1033 988 1033 988 1049.5 978 c 128,-1,30
 1066 968 1066 968 1066 948 c 0,31,32
 1066 927 1066 927 1050 917.5 c 128,-1,33
 1034 908 1034 908 1008 908 c 0,34,35
 1000 908 1000 908 991 908.5 c 128,-1,36
 982 909 982 909 967 909 c 1,37,38
 956 910 956 910 942 910.5 c 128,-1,39
 928 911 928 911 911 911 c 2,40,-1
 687 911 l 1,41,-1
 687 0 l 1,42,-1
 177 0 l 1,43,-1
 177 1415 l 1,0,-1
EndSplineSet
EndChar

StartChar: G
Encoding: 71 71 42
Width: 1619
Flags: W
LayerCount: 2
Fore
SplineSet
88 689 m 0,0,1
 88 789 88 789 113.5 883.5 c 128,-1,2
 139 978 139 978 187 1060.5 c 128,-1,3
 235 1143 235 1143 304.5 1211.5 c 128,-1,4
 374 1280 374 1280 460.5 1329.5 c 128,-1,5
 547 1379 547 1379 650 1406 c 128,-1,6
 753 1433 753 1433 869 1433 c 0,7,8
 955 1433 955 1433 1036 1415.5 c 128,-1,9
 1117 1398 1117 1398 1180 1369 c 0,10,11
 1265 1331 1265 1331 1300 1298.5 c 128,-1,12
 1335 1266 1335 1266 1335 1246 c 0,13,14
 1335 1227 1335 1227 1323 1213 c 128,-1,15
 1311 1199 1311 1199 1292 1199 c 0,16,17
 1268 1199 1268 1199 1236 1226 c 1,18,19
 1215 1246 1215 1246 1177 1273 c 128,-1,20
 1139 1300 1139 1300 1093 1317 c 1,21,22
 1048 1332 1048 1332 1013 1341 c 128,-1,23
 978 1350 978 1350 949.5 1354 c 128,-1,24
 921 1358 921 1358 898.5 1359 c 128,-1,25
 876 1360 876 1360 855 1360 c 0,26,27
 789 1360 789 1360 739 1350 c 1,28,-1
 739 56 l 1,29,30
 750 55 750 55 761 55 c 128,-1,31
 772 55 772 55 781 55 c 0,32,33
 870 55 870 55 957.5 79 c 128,-1,34
 1045 103 1045 103 1122 153 c 128,-1,35
 1199 203 1199 203 1262 280 c 128,-1,36
 1325 357 1325 357 1366 462 c 1,37,-1
 1366 558 l 2,38,39
 1366 574 1366 574 1365.5 586.5 c 128,-1,40
 1365 599 1365 599 1364 610 c 0,41,42
 1361 634 1361 634 1361 648 c 0,43,44
 1361 671 1361 671 1371.5 686 c 128,-1,45
 1382 701 1382 701 1403 701 c 0,46,47
 1425 701 1425 701 1437 686.5 c 128,-1,48
 1449 672 1449 672 1449 651 c 0,49,50
 1449 637 1449 637 1448 625.5 c 128,-1,51
 1447 614 1447 614 1445 600 c 256,52,53
 1443 586 1443 586 1443 568.5 c 128,-1,54
 1443 551 1443 551 1443 525 c 2,55,-1
 1443 196 l 2,56,57
 1443 175 1443 175 1443.5 156 c 128,-1,58
 1444 137 1444 137 1445 123 c 0,59,60
 1447 94 1447 94 1448 76 c 128,-1,61
 1449 58 1449 58 1449 41 c 0,62,63
 1449 17 1449 17 1435.5 3 c 128,-1,64
 1422 -11 1422 -11 1404 -11 c 0,65,66
 1360 -11 1360 -11 1360 35 c 0,67,68
 1360 40 1360 40 1361 50 c 128,-1,69
 1362 60 1362 60 1364 73 c 0,70,71
 1364 78 1364 78 1364.5 89 c 128,-1,72
 1365 100 1365 100 1365.5 113.5 c 128,-1,73
 1366 127 1366 127 1366 142 c 128,-1,74
 1366 157 1366 157 1366 169 c 2,75,-1
 1366 300 l 1,76,77
 1318 220 1318 220 1254 160 c 128,-1,78
 1190 100 1190 100 1113 60.5 c 128,-1,79
 1036 21 1036 21 949.5 1 c 128,-1,80
 863 -19 863 -19 770 -19 c 0,81,82
 632 -19 632 -19 508.5 29 c 128,-1,83
 385 77 385 77 291.5 168 c 128,-1,84
 198 259 198 259 143 390.5 c 128,-1,85
 88 522 88 522 88 689 c 0,0,1
EndSplineSet
EndChar

StartChar: H
Encoding: 72 72 43
Width: 1461
Flags: W
LayerCount: 2
Fore
SplineSet
177 1415 m 1,0,-1
 688 1415 l 1,1,-1
 688 1038 l 1,2,-1
 1024 1038 l 2,3,4
 1079 1038 1079 1038 1120 1038 c 128,-1,5
 1161 1038 1161 1038 1191 1039 c 1,6,-1
 1191 1213 l 2,7,8
 1191 1258 1191 1258 1190.5 1283.5 c 128,-1,9
 1190 1309 1190 1309 1188 1326 c 256,10,11
 1186 1343 1186 1343 1184.5 1356.5 c 128,-1,12
 1183 1370 1183 1370 1183 1380 c 0,13,14
 1183 1403 1183 1403 1194.5 1414.5 c 128,-1,15
 1206 1426 1206 1426 1225 1426 c 0,16,17
 1240 1426 1240 1426 1256 1414 c 128,-1,18
 1272 1402 1272 1402 1272 1374 c 0,19,20
 1272 1361 1272 1361 1271.5 1352.5 c 128,-1,21
 1271 1344 1271 1344 1270 1332 c 0,22,23
 1269 1319 1269 1319 1268.5 1299.5 c 128,-1,24
 1268 1280 1268 1280 1268 1246 c 2,25,-1
 1268 1043 l 1,26,27
 1276 1044 1276 1044 1282.5 1044.5 c 128,-1,28
 1289 1045 1289 1045 1294 1047 c 0,29,30
 1302 1049 1302 1049 1310 1050.5 c 128,-1,31
 1318 1052 1318 1052 1331 1052 c 0,32,33
 1349 1052 1349 1052 1361 1041.5 c 128,-1,34
 1373 1031 1373 1031 1373 1014 c 0,35,36
 1373 975 1373 975 1311 970 c 1,37,38
 1300 968 1300 968 1289.5 967.5 c 128,-1,39
 1279 967 1279 967 1268 966 c 1,40,-1
 1268 145 l 2,41,42
 1268 101 1268 101 1269.5 79 c 128,-1,43
 1271 57 1271 57 1271 43 c 0,44,45
 1271 17 1271 17 1256 3 c 128,-1,46
 1241 -11 1241 -11 1222 -11 c 0,47,48
 1202 -11 1202 -11 1190.5 2 c 128,-1,49
 1179 15 1179 15 1179 35 c 256,50,51
 1179 55 1179 55 1187 89 c 0,52,53
 1190 106 1190 106 1190.5 143.5 c 128,-1,54
 1191 181 1191 181 1191 235 c 2,55,-1
 1191 965 l 1,56,-1
 688 965 l 1,57,-1
 688 0 l 1,58,-1
 177 0 l 1,59,-1
 177 1415 l 1,0,-1
EndSplineSet
EndChar

StartChar: I
Encoding: 73 73 44
Width: 829
Flags: W
LayerCount: 2
Fore
SplineSet
160 1415 m 1,0,-1
 670 1415 l 1,1,-1
 670 0 l 1,2,-1
 160 0 l 1,3,-1
 160 1415 l 1,0,-1
EndSplineSet
EndChar

StartChar: J
Encoding: 74 74 45
Width: 1140
Flags: W
LayerCount: 2
Fore
SplineSet
49 76 m 0,0,1
 42 83 42 83 32.5 93 c 128,-1,2
 23 103 23 103 15.5 115 c 128,-1,3
 8 127 8 127 3.5 140.5 c 128,-1,4
 -1 154 -1 154 1 169 c 0,5,6
 3 186 3 186 14 195 c 128,-1,7
 25 204 25 204 41 202 c 0,8,9
 59 199 59 199 71.5 190.5 c 128,-1,10
 84 182 84 182 98 159 c 1,11,12
 114 130 114 130 143.5 109 c 128,-1,13
 173 88 173 88 210 74.5 c 128,-1,14
 247 61 247 61 289 54.5 c 128,-1,15
 331 48 331 48 372 48 c 0,16,17
 397 48 397 48 414 50 c 128,-1,18
 431 52 431 52 452 57 c 1,19,-1
 452 1415 l 1,20,-1
 963 1415 l 1,21,-1
 963 534 l 2,22,23
 963 411 963 411 932 309 c 128,-1,24
 901 207 901 207 830.5 134.5 c 128,-1,25
 760 62 760 62 645.5 21.5 c 128,-1,26
 531 -19 531 -19 365 -19 c 0,27,28
 327 -19 327 -19 286 -15.5 c 128,-1,29
 245 -12 245 -12 203.5 -1.5 c 128,-1,30
 162 9 162 9 122.5 27.5 c 128,-1,31
 83 46 83 46 49 76 c 0,0,1
EndSplineSet
EndChar

StartChar: K
Encoding: 75 75 46
Width: 1453
Flags: W
LayerCount: 2
Fore
SplineSet
177 1415 m 1,0,-1
 687 1415 l 1,1,-1
 687 1001 l 1,2,-1
 1043 1270 l 2,3,4
 1085 1302 1085 1302 1115 1329 c 128,-1,5
 1145 1356 1145 1356 1174 1387 c 0,6,7
 1186 1399 1186 1399 1194.5 1406.5 c 128,-1,8
 1203 1414 1203 1414 1210 1418.5 c 128,-1,9
 1217 1423 1217 1423 1224 1424.5 c 128,-1,10
 1231 1426 1231 1426 1239 1426 c 0,11,12
 1259 1426 1259 1426 1270 1415.5 c 128,-1,13
 1281 1405 1281 1405 1281 1389 c 0,14,15
 1281 1380 1281 1380 1278 1371.5 c 128,-1,16
 1275 1363 1275 1363 1265.5 1351.5 c 128,-1,17
 1256 1340 1256 1340 1238 1324 c 128,-1,18
 1220 1308 1220 1308 1190 1285 c 2,19,-1
 966 1115 l 1,20,-1
 1341 198 l 2,21,22
 1352 172 1352 172 1361.5 152 c 128,-1,23
 1371 132 1371 132 1378 116 c 0,24,25
 1388 96 1388 96 1395.5 82 c 128,-1,26
 1403 68 1403 68 1409 54 c 1,27,28
 1413 42 1413 42 1412 30 c 128,-1,29
 1411 18 1411 18 1405 8.5 c 128,-1,30
 1399 -1 1399 -1 1389 -7.5 c 128,-1,31
 1379 -14 1379 -14 1366 -14 c 0,32,33
 1352 -14 1352 -14 1342 -8 c 128,-1,34
 1332 -2 1332 -2 1322 9 c 1,35,36
 1316 18 1316 18 1310.5 30.5 c 128,-1,37
 1305 43 1305 43 1297 68 c 0,38,39
 1293 79 1293 79 1284 107 c 128,-1,40
 1275 135 1275 135 1260 174 c 2,41,-1
 897 1063 l 1,42,-1
 687 904 l 1,43,-1
 687 0 l 1,44,-1
 177 0 l 1,45,-1
 177 1415 l 1,0,-1
EndSplineSet
EndChar

StartChar: L
Encoding: 76 76 47
Width: 1101
Flags: W
LayerCount: 2
Fore
SplineSet
177 1415 m 1,0,-1
 687 1415 l 1,1,-1
 687 66 l 1,2,-1
 874 66 l 2,3,4
 913 66 913 66 937.5 70.5 c 128,-1,5
 962 75 962 75 979 79 c 0,6,7
 999 83 999 83 1013.5 87 c 128,-1,8
 1028 91 1028 91 1034 91 c 0,9,10
 1060 91 1060 91 1073.5 80.5 c 128,-1,11
 1087 70 1087 70 1087 46 c 0,12,13
 1087 28 1087 28 1065.5 14 c 128,-1,14
 1044 0 1044 0 989 0 c 2,15,-1
 177 0 l 1,16,-1
 177 1415 l 1,0,-1
EndSplineSet
EndChar

StartChar: M
Encoding: 77 77 48
Width: 1923
Flags: W
LayerCount: 2
Fore
SplineSet
13 37 m 0,0,1
 15 53 15 53 19.5 66 c 128,-1,2
 24 79 24 79 37 103 c 0,3,4
 45 118 45 118 51.5 131 c 128,-1,5
 58 144 58 144 65 159.5 c 128,-1,6
 72 175 72 175 81 196 c 128,-1,7
 90 217 90 217 103 248 c 1,8,-1
 514 1479 l 1,9,-1
 956 625 l 1,10,-1
 1385 1479 l 1,11,-1
 1898 0 l 1,12,-1
 1361 0 l 1,13,-1
 1113 764 l 1,14,-1
 729 -36 l 1,15,-1
 325 684 l 1,16,-1
 185 247 l 1,17,18
 168 209 168 209 158 180.5 c 128,-1,19
 148 152 148 152 141 130 c 128,-1,20
 134 108 134 108 129 90 c 128,-1,21
 124 72 124 72 118 56 c 1,22,23
 106 15 106 15 89 -1 c 128,-1,24
 72 -17 72 -17 49 -15 c 0,25,26
 30 -13 30 -13 20 2 c 128,-1,27
 10 17 10 17 13 37 c 0,0,1
EndSplineSet
EndChar

StartChar: N
Encoding: 78 78 49
Width: 1535
Flags: W
LayerCount: 2
Fore
SplineSet
177 35 m 0,0,1
 177 46 177 46 179.5 59.5 c 128,-1,2
 182 73 182 73 184 89 c 0,3,4
 187 106 187 106 188 143.5 c 128,-1,5
 189 181 189 181 189 235 c 2,6,-1
 189 1479 l 1,7,-1
 1276 617 l 1,8,-1
 1276 1213 l 2,9,10
 1276 1256 1276 1256 1274.5 1280.5 c 128,-1,11
 1273 1305 1273 1305 1271 1321 c 0,12,13
 1269 1340 1269 1340 1268 1350 c 128,-1,14
 1267 1360 1267 1360 1267 1376 c 0,15,16
 1267 1402 1267 1402 1279.5 1414 c 128,-1,17
 1292 1426 1292 1426 1310 1426 c 0,18,19
 1327 1426 1327 1426 1342.5 1414 c 128,-1,20
 1358 1402 1358 1402 1358 1374 c 0,21,22
 1358 1356 1358 1356 1358 1344.5 c 128,-1,23
 1358 1333 1358 1333 1357 1319 c 0,24,25
 1356 1301 1356 1301 1355 1275 c 128,-1,26
 1354 1249 1354 1249 1354 1199 c 2,27,-1
 1354 -55 l 1,28,-1
 267 798 l 1,29,-1
 267 193 l 2,30,31
 267 167 267 167 267 143 c 128,-1,32
 267 119 267 119 268 99 c 256,33,34
 269 79 269 79 269.5 65 c 128,-1,35
 270 51 270 51 270 43 c 0,36,37
 270 17 270 17 256 3 c 128,-1,38
 242 -11 242 -11 223 -11 c 0,39,40
 203 -11 203 -11 190 2 c 128,-1,41
 177 15 177 15 177 35 c 0,0,1
EndSplineSet
EndChar

StartChar: O
Encoding: 79 79 50
Width: 1673
Flags: W
LayerCount: 2
Fore
SplineSet
109 724 m 0,0,1
 109 877 109 877 164.5 1006.5 c 128,-1,2
 220 1136 220 1136 318.5 1231 c 128,-1,3
 417 1326 417 1326 551.5 1379.5 c 128,-1,4
 686 1433 686 1433 845 1433 c 0,5,6
 1001 1433 1001 1433 1133 1381 c 128,-1,7
 1265 1329 1265 1329 1361 1234 c 128,-1,8
 1457 1139 1457 1139 1511 1005.5 c 128,-1,9
 1565 872 1565 872 1565 710 c 0,10,11
 1565 602 1565 602 1539.5 505.5 c 128,-1,12
 1514 409 1514 409 1467.5 328 c 128,-1,13
 1421 247 1421 247 1355.5 182.5 c 128,-1,14
 1290 118 1290 118 1209 73.5 c 128,-1,15
 1128 29 1128 29 1033.5 5 c 128,-1,16
 939 -19 939 -19 835 -19 c 0,17,18
 688 -19 688 -19 556 32.5 c 128,-1,19
 424 84 424 84 325 180.5 c 128,-1,20
 226 277 226 277 167.5 414.5 c 128,-1,21
 109 552 109 552 109 724 c 0,0,1
741 62 m 1,22,23
 770 57 770 57 796.5 55.5 c 128,-1,24
 823 54 823 54 844 54 c 0,25,26
 973 54 973 54 1089.5 100 c 128,-1,27
 1206 146 1206 146 1294 231.5 c 128,-1,28
 1382 317 1382 317 1433.5 438.5 c 128,-1,29
 1485 560 1485 560 1485 710 c 0,30,31
 1485 848 1485 848 1438 967 c 128,-1,32
 1391 1086 1391 1086 1306 1173.5 c 128,-1,33
 1221 1261 1221 1261 1103.5 1310.5 c 128,-1,34
 986 1360 986 1360 844 1360 c 0,35,36
 824 1360 824 1360 797.5 1358.5 c 128,-1,37
 771 1357 771 1357 741 1352 c 1,38,-1
 741 62 l 1,22,23
EndSplineSet
EndChar

StartChar: P
Encoding: 80 80 51
Width: 1517
Flags: W
LayerCount: 2
Fore
SplineSet
177 1415 m 1,0,-1
 560 1415 l 2,1,2
 675 1415 675 1415 750 1414 c 128,-1,3
 825 1413 825 1413 876 1410 c 128,-1,4
 927 1407 927 1407 962.5 1402 c 128,-1,5
 998 1397 998 1397 1034 1390 c 0,6,7
 1137 1369 1137 1369 1217.5 1322 c 128,-1,8
 1298 1275 1298 1275 1353.5 1210.5 c 128,-1,9
 1409 1146 1409 1146 1437 1066.5 c 128,-1,10
 1465 987 1465 987 1463 900 c 0,11,12
 1460 787 1460 787 1426 691.5 c 128,-1,13
 1392 596 1392 596 1330 522.5 c 128,-1,14
 1268 449 1268 449 1178 400.5 c 128,-1,15
 1088 352 1088 352 974 334 c 1,16,17
 908 325 908 325 870 325 c 0,18,19
 822 325 822 325 801 337.5 c 128,-1,20
 780 350 780 350 780 374 c 0,21,22
 780 392 780 392 796 403.5 c 128,-1,23
 812 415 812 415 839 415 c 0,24,25
 851 415 851 415 861.5 414.5 c 128,-1,26
 872 414 872 414 882 413 c 0,27,28
 893 412 893 412 905.5 411.5 c 128,-1,29
 918 411 918 411 928 411 c 0,30,31
 1024 411 1024 411 1106 444.5 c 128,-1,32
 1188 478 1188 478 1248.5 539 c 128,-1,33
 1309 600 1309 600 1344 685 c 128,-1,34
 1379 770 1379 770 1382 873 c 0,35,36
 1385 958 1385 958 1364.5 1026 c 128,-1,37
 1344 1094 1344 1094 1304 1146.5 c 128,-1,38
 1264 1199 1264 1199 1206.5 1237 c 128,-1,39
 1149 1275 1149 1275 1078 1300 c 0,40,41
 1019 1321 1019 1321 941.5 1331.5 c 128,-1,42
 864 1342 864 1342 771 1342 c 2,43,-1
 687 1342 l 1,44,-1
 687 0 l 1,45,-1
 177 0 l 1,46,-1
 177 1415 l 1,0,-1
EndSplineSet
EndChar

StartChar: Q
Encoding: 81 81 52
Width: 1632
Flags: W
LayerCount: 2
Fore
SplineSet
88 724 m 0,0,1
 88 877 88 877 143.5 1006.5 c 128,-1,2
 199 1136 199 1136 297.5 1231 c 128,-1,3
 396 1326 396 1326 530.5 1379.5 c 128,-1,4
 665 1433 665 1433 824 1433 c 0,5,6
 980 1433 980 1433 1112 1381 c 128,-1,7
 1244 1329 1244 1329 1340 1234 c 128,-1,8
 1436 1139 1436 1139 1490 1005.5 c 128,-1,9
 1544 872 1544 872 1544 710 c 0,10,11
 1544 529 1544 529 1477 385.5 c 128,-1,12
 1410 242 1410 242 1292 145 c 1,13,14
 1350 98 1350 98 1386 71 c 128,-1,15
 1422 44 1422 44 1444.5 30.5 c 128,-1,16
 1467 17 1467 17 1481.5 13.5 c 128,-1,17
 1496 10 1496 10 1512 9 c 0,18,19
 1540 7 1540 7 1551.5 -2.5 c 128,-1,20
 1563 -12 1563 -12 1563 -28 c 0,21,22
 1563 -47 1563 -47 1549 -58 c 128,-1,23
 1535 -69 1535 -69 1509 -69 c 0,24,25
 1489 -69 1489 -69 1469 -63.5 c 128,-1,26
 1449 -58 1449 -58 1419.5 -40 c 128,-1,27
 1390 -22 1390 -22 1346 11.5 c 128,-1,28
 1302 45 1302 45 1234 101 c 1,29,30
 1145 43 1145 43 1039 12 c 128,-1,31
 933 -19 933 -19 814 -19 c 0,32,33
 667 -19 667 -19 535 32.5 c 128,-1,34
 403 84 403 84 304 180.5 c 128,-1,35
 205 277 205 277 146.5 414.5 c 128,-1,36
 88 552 88 552 88 724 c 0,0,1
720 62 m 1,37,38
 749 57 749 57 775.5 55.5 c 128,-1,39
 802 54 802 54 823 54 c 0,40,41
 918 54 918 54 1006 79 c 128,-1,42
 1094 104 1094 104 1171 152 c 1,43,44
 1108 198 1108 198 1063.5 214 c 128,-1,45
 1019 230 1019 230 976 230 c 0,46,47
 947 230 947 230 932 241.5 c 128,-1,48
 917 253 917 253 917 270 c 256,49,50
 917 287 917 287 930.5 298.5 c 128,-1,51
 944 310 944 310 971 310 c 0,52,53
 1022 310 1022 310 1086.5 282 c 128,-1,54
 1151 254 1151 254 1231 194 c 1,55,56
 1337 280 1337 280 1400.5 410.5 c 128,-1,57
 1464 541 1464 541 1464 710 c 0,58,59
 1464 848 1464 848 1417 967 c 128,-1,60
 1370 1086 1370 1086 1285 1173.5 c 128,-1,61
 1200 1261 1200 1261 1082.5 1310.5 c 128,-1,62
 965 1360 965 1360 823 1360 c 0,63,64
 803 1360 803 1360 776.5 1358.5 c 128,-1,65
 750 1357 750 1357 720 1352 c 1,66,-1
 720 62 l 1,37,38
EndSplineSet
EndChar

StartChar: R
Encoding: 82 82 53
Width: 1501
Flags: W
LayerCount: 2
Fore
SplineSet
177 1415 m 1,0,-1
 515 1415 l 2,1,2
 588 1415 588 1415 644.5 1415 c 128,-1,3
 701 1415 701 1415 745 1414 c 128,-1,4
 789 1413 789 1413 823.5 1411.5 c 128,-1,5
 858 1410 858 1410 887.5 1407.5 c 128,-1,6
 917 1405 917 1405 944 1401 c 128,-1,7
 971 1397 971 1397 1000 1392 c 0,8,9
 1093 1374 1093 1374 1172 1332 c 128,-1,10
 1251 1290 1251 1290 1308.5 1228 c 128,-1,11
 1366 1166 1366 1166 1398.5 1086.5 c 128,-1,12
 1431 1007 1431 1007 1431 914 c 0,13,14
 1431 825 1431 825 1401.5 744 c 128,-1,15
 1372 663 1372 663 1317 596.5 c 128,-1,16
 1262 530 1262 530 1183 482.5 c 128,-1,17
 1104 435 1104 435 1005 414 c 1,18,19
 1039 309 1039 309 1077.5 239 c 128,-1,20
 1116 169 1116 169 1157.5 128 c 128,-1,21
 1199 87 1199 87 1242.5 70 c 128,-1,22
 1286 53 1286 53 1330 53 c 0,23,24
 1339 53 1339 53 1350.5 56 c 128,-1,25
 1362 59 1362 59 1373 64 c 1,26,27
 1385 68 1385 68 1393 70 c 128,-1,28
 1401 72 1401 72 1409 72 c 0,29,30
 1446 72 1446 72 1446 34 c 0,31,32
 1446 10 1446 10 1414 -4.5 c 128,-1,33
 1382 -19 1382 -19 1322 -19 c 0,34,35
 1282 -19 1282 -19 1239 -7 c 128,-1,36
 1196 5 1196 5 1157 31 c 1,37,38
 1098 66 1098 66 1049 132.5 c 128,-1,39
 1000 199 1000 199 958 303 c 0,40,41
 947 329 947 329 940.5 345.5 c 128,-1,42
 934 362 934 362 929 374 c 0,43,44
 922 391 922 391 916.5 395 c 128,-1,45
 911 399 911 399 895 399 c 0,46,47
 890 399 890 399 884.5 398.5 c 128,-1,48
 879 398 879 398 874 397 c 1,49,50
 868 397 868 397 862 396.5 c 128,-1,51
 856 396 856 396 850 396 c 0,52,53
 810 396 810 396 795.5 411 c 128,-1,54
 781 426 781 426 781 442 c 0,55,56
 781 461 781 461 798.5 473 c 128,-1,57
 816 485 816 485 851 485 c 0,58,59
 866 485 866 485 877 484 c 128,-1,60
 888 483 888 483 899 481 c 0,61,62
 907 480 907 480 915 479.5 c 128,-1,63
 923 479 923 479 933 479 c 0,64,65
 1020 479 1020 479 1097 511.5 c 128,-1,66
 1174 544 1174 544 1231.5 601.5 c 128,-1,67
 1289 659 1289 659 1322 737.5 c 128,-1,68
 1355 816 1355 816 1355 908 c 0,69,70
 1355 991 1355 991 1329.5 1058 c 128,-1,71
 1304 1125 1304 1125 1257 1176.5 c 128,-1,72
 1210 1228 1210 1228 1143.5 1264.5 c 128,-1,73
 1077 1301 1077 1301 996 1322 c 0,74,75
 951 1334 951 1334 895.5 1338.5 c 128,-1,76
 840 1343 840 1343 771 1343 c 0,77,78
 744 1343 744 1343 723.5 1343 c 128,-1,79
 703 1343 703 1343 687 1342 c 1,80,-1
 687 0 l 1,81,-1
 177 0 l 1,82,-1
 177 1415 l 1,0,-1
EndSplineSet
EndChar

StartChar: S
Encoding: 83 83 54
Width: 1190
Flags: W
LayerCount: 2
Fore
SplineSet
177 72 m 0,0,1
 142 92 142 92 116.5 114 c 128,-1,2
 91 136 91 136 91 169 c 0,3,4
 91 186 91 186 101.5 197.5 c 128,-1,5
 112 209 112 209 132 209 c 0,6,7
 149 209 149 209 161 202.5 c 128,-1,8
 173 196 173 196 194 176 c 1,9,10
 225 149 225 149 266 126.5 c 128,-1,11
 307 104 307 104 355 88 c 128,-1,12
 403 72 403 72 456 63.5 c 128,-1,13
 509 55 509 55 565 55 c 0,14,15
 622 55 622 55 667.5 66 c 128,-1,16
 713 77 713 77 744.5 96.5 c 128,-1,17
 776 116 776 116 793 142.5 c 128,-1,18
 810 169 810 169 810 201 c 0,19,20
 810 219 810 219 806 236.5 c 128,-1,21
 802 254 802 254 789.5 274.5 c 128,-1,22
 777 295 777 295 753 320.5 c 128,-1,23
 729 346 729 346 688.5 381.5 c 128,-1,24
 648 417 648 417 588.5 464.5 c 128,-1,25
 529 512 529 512 446 576 c 0,26,27
 355 646 355 646 294 706.5 c 128,-1,28
 233 767 233 767 196 824 c 128,-1,29
 159 881 159 881 143 938 c 128,-1,30
 127 995 127 995 127 1058 c 0,31,32
 127 1135 127 1135 158.5 1203 c 128,-1,33
 190 1271 190 1271 251.5 1322 c 128,-1,34
 313 1373 313 1373 404 1403 c 128,-1,35
 495 1433 495 1433 614 1433 c 0,36,37
 672 1433 672 1433 729.5 1423 c 128,-1,38
 787 1413 787 1413 835 1396 c 1,39,40
 917 1364 917 1364 951 1337 c 128,-1,41
 985 1310 985 1310 985 1282 c 0,42,43
 985 1265 985 1265 974.5 1253.5 c 128,-1,44
 964 1242 964 1242 947 1242 c 0,45,46
 933 1242 933 1242 922.5 1247.5 c 128,-1,47
 912 1253 912 1253 895 1267 c 1,48,49
 875 1286 875 1286 844.5 1302.5 c 128,-1,50
 814 1319 814 1319 775 1332 c 128,-1,51
 736 1345 736 1345 690.5 1352.5 c 128,-1,52
 645 1360 645 1360 595 1360 c 0,53,54
 528 1360 528 1360 494.5 1332.5 c 128,-1,55
 461 1305 461 1305 461 1262 c 0,56,57
 461 1244 461 1244 467 1225 c 128,-1,58
 473 1206 473 1206 494.5 1178.5 c 128,-1,59
 516 1151 516 1151 558.5 1111.5 c 128,-1,60
 601 1072 601 1072 673 1013 c 0,61,62
 815 898 815 898 899.5 813 c 128,-1,63
 984 728 984 728 1028 660.5 c 128,-1,64
 1072 593 1072 593 1085 536 c 128,-1,65
 1098 479 1098 479 1098 420 c 0,66,67
 1098 322 1098 322 1057.5 241.5 c 128,-1,68
 1017 161 1017 161 944 103 c 128,-1,69
 871 45 871 45 771 13 c 128,-1,70
 671 -19 671 -19 552 -19 c 0,71,72
 444 -19 444 -19 347.5 5 c 128,-1,73
 251 29 251 29 177 72 c 0,0,1
EndSplineSet
EndChar

StartChar: T
Encoding: 84 84 55
Width: 1239
Flags: W
LayerCount: 2
Fore
SplineSet
363 1343 m 1,0,-1
 213 1343 l 2,1,2
 175 1343 175 1343 145 1340.5 c 128,-1,3
 115 1338 115 1338 98 1334 c 0,4,5
 78 1330 78 1330 68 1329 c 128,-1,6
 58 1328 58 1328 52 1328 c 0,7,8
 25 1328 25 1328 13 1339.5 c 128,-1,9
 1 1351 1 1351 1 1368 c 0,10,11
 1 1378 1 1378 5.5 1386.5 c 128,-1,12
 10 1395 10 1395 21 1401.5 c 128,-1,13
 32 1408 32 1408 51.5 1411.5 c 128,-1,14
 71 1415 71 1415 100 1415 c 2,15,-1
 992 1415 l 2,16,17
 1032 1415 1032 1415 1061.5 1417.5 c 128,-1,18
 1091 1420 1091 1420 1109 1423 c 0,19,20
 1128 1427 1128 1427 1138 1427.5 c 128,-1,21
 1148 1428 1148 1428 1154 1428 c 0,22,23
 1180 1428 1180 1428 1192 1417 c 128,-1,24
 1204 1406 1204 1406 1204 1389 c 0,25,26
 1204 1379 1204 1379 1199.5 1370.5 c 128,-1,27
 1195 1362 1195 1362 1184 1356 c 128,-1,28
 1173 1350 1173 1350 1154.5 1346.5 c 128,-1,29
 1136 1343 1136 1343 1107 1343 c 2,30,-1
 875 1343 l 1,31,-1
 875 0 l 1,32,-1
 363 0 l 1,33,-1
 363 1343 l 1,0,-1
EndSplineSet
EndChar

StartChar: U
Encoding: 85 85 56
Width: 1570
Flags: W
LayerCount: 2
Fore
SplineSet
146 1415 m 1,0,-1
 657 1415 l 1,1,-1
 657 66 l 1,2,3
 678 63 678 63 700 61 c 128,-1,4
 722 59 722 59 743 57.5 c 128,-1,5
 764 56 764 56 782 55.5 c 128,-1,6
 800 55 800 55 812 55 c 0,7,8
 919 55 919 55 1014.5 92 c 128,-1,9
 1110 129 1110 129 1182 207.5 c 128,-1,10
 1254 286 1254 286 1296.5 409 c 128,-1,11
 1339 532 1339 532 1340 705 c 1,12,-1
 1340 1247 l 2,13,14
 1340 1268 1340 1268 1339 1286.5 c 128,-1,15
 1338 1305 1338 1305 1337 1319 c 1,16,17
 1331 1359 1331 1359 1331 1374 c 0,18,19
 1331 1399 1331 1399 1344 1412.5 c 128,-1,20
 1357 1426 1357 1426 1380 1426 c 256,21,22
 1403 1426 1403 1426 1413.5 1410 c 128,-1,23
 1424 1394 1424 1394 1424 1373 c 0,24,25
 1424 1361 1424 1361 1423 1350 c 128,-1,26
 1422 1339 1422 1339 1421 1325 c 0,27,28
 1418 1287 1418 1287 1418 1249 c 2,29,-1
 1418 651 l 2,30,31
 1418 505 1418 505 1374 382 c 128,-1,32
 1330 259 1330 259 1248 170 c 128,-1,33
 1166 81 1166 81 1049.5 31 c 128,-1,34
 933 -19 933 -19 786 -19 c 0,35,36
 625 -19 625 -19 505 33 c 128,-1,37
 385 85 385 85 305.5 173.5 c 128,-1,38
 226 262 226 262 186 379.5 c 128,-1,39
 146 497 146 497 146 628 c 2,40,-1
 146 1415 l 1,0,-1
EndSplineSet
EndChar

StartChar: V
Encoding: 86 86 57
Width: 1260
Flags: W
LayerCount: 2
Fore
SplineSet
-9 1415 m 1,0,-1
 537 1415 l 1,1,-1
 855 667 l 1,2,-1
 1078 1225 l 2,3,4
 1093 1262 1093 1262 1105.5 1296 c 128,-1,5
 1118 1330 1118 1330 1126 1364 c 1,6,7
 1136 1395 1136 1395 1149 1410.5 c 128,-1,8
 1162 1426 1162 1426 1186 1426 c 0,9,10
 1208 1426 1208 1426 1217.5 1412 c 128,-1,11
 1227 1398 1227 1398 1227 1383 c 0,12,13
 1227 1370 1227 1370 1223.5 1358 c 128,-1,14
 1220 1346 1220 1346 1206 1316 c 0,15,16
 1200 1304 1200 1304 1192.5 1286.5 c 128,-1,17
 1185 1269 1185 1269 1176.5 1248.5 c 128,-1,18
 1168 1228 1168 1228 1159 1206 c 128,-1,19
 1150 1184 1150 1184 1141 1163 c 2,20,-1
 649 -55 l 1,21,-1
 -9 1415 l 1,0,-1
EndSplineSet
EndChar

StartChar: W
Encoding: 87 87 58
Width: 1963
Flags: W
LayerCount: 2
Fore
SplineSet
-9 1415 m 1,0,-1
 539 1415 l 1,1,-1
 820 666 l 1,2,-1
 1201 1479 l 1,3,-1
 1556 668 l 1,4,-1
 1806 1255 l 2,5,6
 1819 1288 1819 1288 1828 1320 c 128,-1,7
 1837 1352 1837 1352 1845 1381 c 0,8,9
 1850 1402 1850 1402 1860.5 1414 c 128,-1,10
 1871 1426 1871 1426 1891 1426 c 0,11,12
 1912 1426 1912 1426 1921.5 1412.5 c 128,-1,13
 1931 1399 1931 1399 1931 1382 c 0,14,15
 1931 1374 1931 1374 1929 1364.5 c 128,-1,16
 1927 1355 1927 1355 1921.5 1339 c 128,-1,17
 1916 1323 1916 1323 1906.5 1297.5 c 128,-1,18
 1897 1272 1897 1272 1881 1232 c 2,19,-1
 1351 -55 l 1,20,-1
 974 787 l 1,21,-1
 583 -55 l 1,22,-1
 -9 1415 l 1,0,-1
EndSplineSet
EndChar

StartChar: X
Encoding: 88 88 59
Width: 1319
Flags: W
LayerCount: 2
Fore
SplineSet
73 28 m 0,0,1
 73 44 73 44 83 59.5 c 128,-1,2
 93 75 93 75 117 96 c 0,3,4
 132 110 132 110 143.5 122.5 c 128,-1,5
 155 135 155 135 167 149.5 c 128,-1,6
 179 164 179 164 193 183.5 c 128,-1,7
 207 203 207 203 227 231 c 2,8,-1
 459 572 l 1,9,-1
 53 1415 l 1,10,-1
 583 1415 l 1,11,-1
 823 915 l 1,12,-1
 1032 1215 l 2,13,14
 1065 1264 1065 1264 1084 1300 c 128,-1,15
 1103 1336 1103 1336 1118 1376 c 1,16,17
 1131 1405 1131 1405 1144 1415.5 c 128,-1,18
 1157 1426 1157 1426 1177 1426 c 0,19,20
 1195 1426 1195 1426 1205.5 1414 c 128,-1,21
 1216 1402 1216 1402 1216 1383 c 0,22,23
 1216 1376 1216 1376 1214 1368.5 c 128,-1,24
 1212 1361 1212 1361 1206 1349.5 c 128,-1,25
 1200 1338 1200 1338 1190 1321.5 c 128,-1,26
 1180 1305 1180 1305 1164 1281 c 2,27,-1
 864 830 l 1,28,-1
 1264 0 l 1,29,-1
 736 0 l 1,30,-1
 501 486 l 1,31,-1
 245 118 l 2,32,33
 218 80 218 80 198.5 55 c 128,-1,34
 179 30 179 30 164 15.5 c 128,-1,35
 149 1 149 1 137.5 -5 c 128,-1,36
 126 -11 126 -11 114 -11 c 0,37,38
 94 -11 94 -11 83.5 0 c 128,-1,39
 73 11 73 11 73 28 c 0,0,1
EndSplineSet
EndChar

StartChar: Y
Encoding: 89 89 60
Width: 1320
Flags: W
LayerCount: 2
Fore
SplineSet
439 33 m 0,0,1
 439 49 439 49 445.5 62.5 c 128,-1,2
 452 76 452 76 471 99 c 0,3,4
 491 123 491 123 513.5 155 c 128,-1,5
 536 187 536 187 564 235 c 2,6,-1
 615 326 l 1,7,-1
 21 1415 l 1,8,-1
 604 1415 l 1,9,-1
 890 812 l 1,10,-1
 1146 1267 l 2,11,12
 1163 1299 1163 1299 1175.5 1327.5 c 128,-1,13
 1188 1356 1188 1356 1195 1374 c 0,14,15
 1214 1426 1214 1426 1247 1426 c 0,16,17
 1288 1426 1288 1426 1288 1385 c 0,18,19
 1288 1377 1288 1377 1286 1369 c 128,-1,20
 1284 1361 1284 1361 1279 1348.5 c 128,-1,21
 1274 1336 1274 1336 1263.5 1317 c 128,-1,22
 1253 1298 1253 1298 1237 1269 c 2,23,-1
 615 163 l 2,24,25
 597 130 597 130 586 110 c 128,-1,26
 575 90 575 90 568.5 77 c 128,-1,27
 562 64 562 64 558.5 56.5 c 128,-1,28
 555 49 555 49 551 41 c 0,29,30
 538 15 538 15 522 2 c 128,-1,31
 506 -11 506 -11 482 -11 c 0,32,33
 462 -11 462 -11 450.5 1 c 128,-1,34
 439 13 439 13 439 33 c 0,0,1
EndSplineSet
EndChar

StartChar: Z
Encoding: 90 90 61
Width: 1182
Flags: W
LayerCount: 2
Fore
SplineSet
573 1343 m 1,0,-1
 318 1343 l 2,1,2
 279 1343 279 1343 249 1340.5 c 128,-1,3
 219 1338 219 1338 201 1334 c 0,4,5
 181 1330 181 1330 171.5 1329 c 128,-1,6
 162 1328 162 1328 156 1328 c 0,7,8
 130 1328 130 1328 117 1339.5 c 128,-1,9
 104 1351 104 1351 104 1368 c 0,10,11
 104 1388 104 1388 124.5 1401.5 c 128,-1,12
 145 1415 145 1415 202 1415 c 2,13,-1
 1095 1415 l 1,14,-1
 586 73 l 1,15,-1
 919 73 l 2,16,17
 957 73 957 73 987 75 c 128,-1,18
 1017 77 1017 77 1034 80 c 1,19,20
 1054 85 1054 85 1064 85.5 c 128,-1,21
 1074 86 1074 86 1080 86 c 0,22,23
 1106 86 1106 86 1119 75 c 128,-1,24
 1132 64 1132 64 1132 46 c 256,25,26
 1132 28 1132 28 1110 14 c 128,-1,27
 1088 0 1088 0 1032 0 c 2,28,-1
 51 0 l 1,29,-1
 573 1343 l 1,0,-1
EndSplineSet
EndChar

StartChar: bracketleft
Encoding: 91 91 62
Width: 926
Flags: W
LayerCount: 2
Fore
SplineSet
127 1534 m 1,0,-1
 704 1534 l 2,1,2
 754 1534 754 1534 772 1523.5 c 128,-1,3
 790 1513 790 1513 790 1494 c 256,4,5
 790 1475 790 1475 773.5 1463.5 c 128,-1,6
 757 1452 757 1452 728 1452 c 0,7,8
 711 1452 711 1452 695.5 1453.5 c 128,-1,9
 680 1455 680 1455 663 1457 c 0,10,11
 645 1459 645 1459 619 1461 c 128,-1,12
 593 1463 593 1463 560 1463 c 2,13,-1
 539 1463 l 1,14,-1
 539 -126 l 1,15,-1
 576 -126 l 2,16,17
 603 -126 603 -126 624 -124.5 c 128,-1,18
 645 -123 645 -123 663 -121 c 0,19,20
 680 -119 680 -119 695.5 -117 c 128,-1,21
 711 -115 711 -115 728 -115 c 0,22,23
 757 -115 757 -115 773.5 -126.5 c 128,-1,24
 790 -138 790 -138 790 -152 c 0,25,26
 790 -173 790 -173 771 -187 c 128,-1,27
 752 -201 752 -201 704 -201 c 2,28,-1
 127 -201 l 1,29,-1
 127 1534 l 1,0,-1
EndSplineSet
EndChar

StartChar: backslash
Encoding: 92 92 63
Width: 672
Flags: W
LayerCount: 2
Fore
SplineSet
140 1231 m 2,0,1
 123 1289 123 1289 104 1322 c 0,2,3
 96 1337 96 1337 91.5 1347 c 128,-1,4
 87 1357 87 1357 85 1364 c 128,-1,5
 83 1371 83 1371 82.5 1376.5 c 128,-1,6
 82 1382 82 1382 82 1388 c 0,7,8
 82 1401 82 1401 91.5 1413.5 c 128,-1,9
 101 1426 101 1426 120 1426 c 0,10,11
 133 1426 133 1426 144 1420.5 c 128,-1,12
 155 1415 155 1415 166 1398.5 c 128,-1,13
 177 1382 177 1382 189 1351.5 c 128,-1,14
 201 1321 201 1321 216 1271 c 2,15,-1
 517 235 l 2,16,17
 531 185 531 185 543.5 152 c 128,-1,18
 556 119 556 119 566 102 c 0,19,20
 577 83 577 83 583.5 66.5 c 128,-1,21
 590 50 590 50 590 36 c 0,22,23
 590 11 590 11 578.5 0 c 128,-1,24
 567 -11 567 -11 551 -11 c 0,25,26
 537 -11 537 -11 526 -5 c 128,-1,27
 515 1 515 1 504.5 18.5 c 128,-1,28
 494 36 494 36 482 68.5 c 128,-1,29
 470 101 470 101 455 155 c 2,30,-1
 140 1231 l 2,0,1
EndSplineSet
EndChar

StartChar: bracketright
Encoding: 93 93 64
Width: 926
Flags: W
LayerCount: 2
Fore
SplineSet
91 -152 m 0,0,1
 91 -138 91 -138 107.5 -126.5 c 128,-1,2
 124 -115 124 -115 153 -115 c 0,3,4
 170 -115 170 -115 185.5 -117 c 128,-1,5
 201 -119 201 -119 218 -121 c 0,6,7
 236 -123 236 -123 257 -124.5 c 128,-1,8
 278 -126 278 -126 305 -126 c 2,9,-1
 342 -126 l 1,10,-1
 342 1463 l 1,11,-1
 321 1463 l 2,12,13
 288 1463 288 1463 262 1461 c 128,-1,14
 236 1459 236 1459 218 1457 c 0,15,16
 201 1455 201 1455 185.5 1453.5 c 128,-1,17
 170 1452 170 1452 153 1452 c 0,18,19
 124 1452 124 1452 107.5 1463.5 c 128,-1,20
 91 1475 91 1475 91 1494 c 256,21,22
 91 1513 91 1513 109 1523.5 c 128,-1,23
 127 1534 127 1534 177 1534 c 2,24,-1
 754 1534 l 1,25,-1
 754 -201 l 1,26,-1
 177 -201 l 2,27,28
 129 -201 129 -201 110 -187 c 128,-1,29
 91 -173 91 -173 91 -152 c 0,0,1
EndSplineSet
EndChar

StartChar: asciicircum
Encoding: 94 94 65
Width: 937
Flags: W
LayerCount: 2
Fore
SplineSet
146 899 m 0,0,1
 132 899 132 899 120 910.5 c 128,-1,2
 108 922 108 922 108 939 c 0,3,4
 108 952 108 952 117 967.5 c 128,-1,5
 126 983 126 983 146 1009 c 1,6,7
 159 1024 159 1024 173 1042 c 128,-1,8
 187 1060 187 1060 208 1090 c 2,9,-1
 414 1387 l 2,10,11
 431 1412 431 1412 448 1422.5 c 128,-1,12
 465 1433 465 1433 482 1433 c 0,13,14
 496 1433 496 1433 513 1424.5 c 128,-1,15
 530 1416 530 1416 551 1387 c 2,16,-1
 703 1174 l 2,17,18
 729 1139 729 1139 748.5 1112 c 128,-1,19
 768 1085 768 1085 783 1064.5 c 128,-1,20
 798 1044 798 1044 809.5 1029 c 128,-1,21
 821 1014 821 1014 830 1003 c 0,22,23
 844 986 844 986 853 970 c 128,-1,24
 862 954 862 954 862 940 c 0,25,26
 862 922 862 922 849.5 910.5 c 128,-1,27
 837 899 837 899 820 899 c 0,28,29
 799 899 799 899 785 915.5 c 128,-1,30
 771 932 771 932 752 961 c 0,31,32
 745 972 745 972 733.5 989.5 c 128,-1,33
 722 1007 722 1007 708 1028 c 128,-1,34
 694 1049 694 1049 678.5 1072 c 128,-1,35
 663 1095 663 1095 647 1118 c 2,36,-1
 482 1345 l 1,37,-1
 274 1051 l 2,38,39
 263 1036 263 1036 252 1019.5 c 128,-1,40
 241 1003 241 1003 231.5 988 c 128,-1,41
 222 973 222 973 214 961 c 128,-1,42
 206 949 206 949 202 942 c 0,43,44
 184 912 184 912 170.5 905.5 c 128,-1,45
 157 899 157 899 146 899 c 0,0,1
EndSplineSet
EndChar

StartChar: underscore
Encoding: 95 95 66
Width: 876
Flags: W
LayerCount: 2
Fore
SplineSet
-63 -145 m 256,0,1
 -63 -130 -63 -130 -51.5 -122 c 128,-1,2
 -40 -114 -40 -114 -15.5 -111 c 128,-1,3
 9 -108 9 -108 46 -107.5 c 128,-1,4
 83 -107 83 -107 134 -107 c 2,5,-1
 742 -107 l 2,6,7
 793 -107 793 -107 828.5 -107.5 c 128,-1,8
 864 -108 864 -108 886.5 -111 c 128,-1,9
 909 -114 909 -114 919 -122 c 128,-1,10
 929 -130 929 -130 929 -145 c 256,11,12
 929 -160 929 -160 918.5 -167.5 c 128,-1,13
 908 -175 908 -175 885.5 -178.5 c 128,-1,14
 863 -182 863 -182 827.5 -182 c 128,-1,15
 792 -182 792 -182 742 -182 c 2,16,-1
 134 -182 l 2,17,18
 84 -182 84 -182 47 -182 c 128,-1,19
 10 -182 10 -182 -14.5 -178.5 c 128,-1,20
 -39 -175 -39 -175 -51 -167.5 c 128,-1,21
 -63 -160 -63 -160 -63 -145 c 256,0,1
EndSplineSet
EndChar

StartChar: grave
Encoding: 96 96 67
Width: 581
Flags: W
LayerCount: 2
Fore
SplineSet
91 1516 m 1,0,-1
 372 1516 l 1,1,-1
 489 1232 l 1,2,-1
 335 1232 l 1,3,-1
 91 1516 l 1,0,-1
EndSplineSet
EndChar

StartChar: a
Encoding: 97 97 68
Width: 1410
Flags: W
LayerCount: 2
Fore
SplineSet
96 382 m 0,0,1
 96 465 96 465 129.5 535.5 c 128,-1,2
 163 606 163 606 225 657.5 c 128,-1,3
 287 709 287 709 375 738 c 128,-1,4
 463 767 463 767 572 767 c 0,5,6
 638 767 638 767 708 753.5 c 128,-1,7
 778 740 778 740 842 712 c 1,8,-1
 842 987 l 1,9,10
 800 999 800 999 752 1006 c 128,-1,11
 704 1013 704 1013 659 1013 c 0,12,13
 612 1013 612 1013 564 1007 c 128,-1,14
 516 1001 516 1001 473 989 c 128,-1,15
 430 977 430 977 393.5 959.5 c 128,-1,16
 357 942 357 942 332 919 c 0,17,18
 318 906 318 906 304 899.5 c 128,-1,19
 290 893 290 893 279 893 c 0,20,21
 258 893 258 893 246 904.5 c 128,-1,22
 234 916 234 916 234 933 c 0,23,24
 234 944 234 944 239 955.5 c 128,-1,25
 244 967 244 967 258 979 c 128,-1,26
 272 991 272 991 296 1004 c 128,-1,27
 320 1017 320 1017 359 1032 c 0,28,29
 429 1058 429 1058 512 1072 c 128,-1,30
 595 1086 595 1086 686 1086 c 0,31,32
 795 1086 795 1086 892 1067.5 c 128,-1,33
 989 1049 989 1049 1054 1017 c 0,34,35
 1108 990 1108 990 1148.5 955 c 128,-1,36
 1189 920 1189 920 1216 873.5 c 128,-1,37
 1243 827 1243 827 1256.5 766.5 c 128,-1,38
 1270 706 1270 706 1270 627 c 2,39,-1
 1270 0 l 1,40,-1
 842 0 l 1,41,-1
 842 66 l 1,42,43
 773 20 773 20 703 0.5 c 128,-1,44
 633 -19 633 -19 558 -19 c 0,45,46
 456 -19 456 -19 371.5 7.5 c 128,-1,47
 287 34 287 34 225.5 85 c 128,-1,48
 164 136 164 136 130 210.5 c 128,-1,49
 96 285 96 285 96 382 c 0,0,1
553 56 m 1,50,51
 558 55 558 55 564 55 c 128,-1,52
 570 55 570 55 576 55 c 0,53,54
 639 55 639 55 706 77.5 c 128,-1,55
 773 100 773 100 842 152 c 1,56,-1
 842 634 l 1,57,58
 776 666 776 666 713.5 680.5 c 128,-1,59
 651 695 651 695 591 695 c 0,60,61
 571 695 571 695 553 692 c 1,62,-1
 553 56 l 1,50,51
EndSplineSet
EndChar

StartChar: b
Encoding: 98 98 69
Width: 1513
Flags: W
LayerCount: 2
Fore
SplineSet
173 1415 m 1,0,-1
 584 1415 l 1,1,-1
 584 1017 l 1,2,3
 654 1055 654 1055 725.5 1070.5 c 128,-1,4
 797 1086 797 1086 859 1086 c 0,5,6
 989 1086 989 1086 1094 1045 c 128,-1,7
 1199 1004 1199 1004 1273.5 931.5 c 128,-1,8
 1348 859 1348 859 1388.5 759.5 c 128,-1,9
 1429 660 1429 660 1429 543 c 256,10,11
 1429 426 1429 426 1389.5 324 c 128,-1,12
 1350 222 1350 222 1276.5 145.5 c 128,-1,13
 1203 69 1203 69 1098 25 c 128,-1,14
 993 -19 993 -19 861 -19 c 0,15,16
 792 -19 792 -19 721 -3.5 c 128,-1,17
 650 12 650 12 584 44 c 1,18,-1
 584 0 l 1,19,-1
 173 0 l 1,20,-1
 173 1415 l 1,0,-1
584 129 m 1,21,22
 660 86 660 86 737 70.5 c 128,-1,23
 814 55 814 55 878 55 c 0,24,25
 892 55 892 55 904 55 c 128,-1,26
 916 55 916 55 927 57 c 1,27,-1
 927 1007 l 1,28,29
 908 1010 908 1010 888 1011.5 c 128,-1,30
 868 1013 868 1013 850 1013 c 0,31,32
 784 1013 784 1013 715 993.5 c 128,-1,33
 646 974 646 974 584 931 c 1,34,-1
 584 129 l 1,21,22
EndSplineSet
EndChar

StartChar: c
Encoding: 99 99 70
Width: 1128
Flags: W
LayerCount: 2
Fore
SplineSet
81 544 m 0,0,1
 81 663 81 663 126 762.5 c 128,-1,2
 171 862 171 862 250.5 934 c 128,-1,3
 330 1006 330 1006 438 1046 c 128,-1,4
 546 1086 546 1086 672 1086 c 0,5,6
 738 1086 738 1086 810 1071.5 c 128,-1,7
 882 1057 882 1057 951 1026 c 0,8,9
 993 1008 993 1008 1023 986 c 128,-1,10
 1053 964 1053 964 1053 935 c 0,11,12
 1053 915 1053 915 1041.5 904.5 c 128,-1,13
 1030 894 1030 894 1016 894 c 0,14,15
 1003 894 1003 894 991 899.5 c 128,-1,16
 979 905 979 905 962 917 c 1,17,18
 942 936 942 936 917 951 c 128,-1,19
 892 966 892 966 863 977 c 0,20,21
 815 995 815 995 769 1004 c 128,-1,22
 723 1013 723 1013 662 1013 c 0,23,24
 636 1013 636 1013 614.5 1011 c 128,-1,25
 593 1009 593 1009 573 1005 c 1,26,-1
 573 64 l 1,27,28
 599 59 599 59 625 57 c 128,-1,29
 651 55 651 55 670 55 c 0,30,31
 715 55 715 55 759.5 62.5 c 128,-1,32
 804 70 804 70 844 84 c 128,-1,33
 884 98 884 98 919 117 c 128,-1,34
 954 136 954 136 981 160 c 0,35,36
 1002 178 1002 178 1014.5 185 c 128,-1,37
 1027 192 1027 192 1043 192 c 0,38,39
 1052 192 1052 192 1062.5 183.5 c 128,-1,40
 1073 175 1073 175 1073 158 c 0,41,42
 1073 140 1073 140 1058.5 121 c 128,-1,43
 1044 102 1044 102 1011 77 c 1,44,45
 933 25 933 25 850.5 3 c 128,-1,46
 768 -19 768 -19 665 -19 c 0,47,48
 533 -19 533 -19 425 22.5 c 128,-1,49
 317 64 317 64 240.5 139 c 128,-1,50
 164 214 164 214 122.5 317.5 c 128,-1,51
 81 421 81 421 81 544 c 0,0,1
EndSplineSet
EndChar

StartChar: d
Encoding: 100 100 71
Width: 1496
Flags: W
LayerCount: 2
Fore
SplineSet
84 541 m 0,0,1
 84 651 84 651 123.5 750 c 128,-1,2
 163 849 163 849 238 923.5 c 128,-1,3
 313 998 313 998 421 1042 c 128,-1,4
 529 1086 529 1086 666 1086 c 0,5,6
 732 1086 732 1086 799.5 1071 c 128,-1,7
 867 1056 867 1056 930 1025 c 1,8,-1
 930 1415 l 1,9,-1
 1342 1415 l 1,10,-1
 1342 0 l 1,11,-1
 930 0 l 1,12,-1
 930 55 l 1,13,14
 864 16 864 16 795.5 -1.5 c 128,-1,15
 727 -19 727 -19 655 -19 c 0,16,17
 526 -19 526 -19 420.5 22.5 c 128,-1,18
 315 64 315 64 240.5 138 c 128,-1,19
 166 212 166 212 125 315 c 128,-1,20
 84 418 84 418 84 541 c 0,0,1
587 61 m 1,21,22
 605 58 605 58 625.5 56.5 c 128,-1,23
 646 55 646 55 665 55 c 0,24,25
 732 55 732 55 799.5 77 c 128,-1,26
 867 99 867 99 930 143 c 1,27,-1
 930 936 l 1,28,29
 860 976 860 976 789 994.5 c 128,-1,30
 718 1013 718 1013 646 1013 c 0,31,32
 631 1013 631 1013 616 1012 c 128,-1,33
 601 1011 601 1011 587 1009 c 1,34,-1
 587 61 l 1,21,22
EndSplineSet
EndChar

StartChar: e
Encoding: 101 101 72
Width: 1300
Flags: W
LayerCount: 2
Fore
SplineSet
81 522 m 0,0,1
 81 639 81 639 121.5 741.5 c 128,-1,2
 162 844 162 844 239 920.5 c 128,-1,3
 316 997 316 997 428 1041.5 c 128,-1,4
 540 1086 540 1086 683 1086 c 0,5,6
 789 1086 789 1086 885.5 1051.5 c 128,-1,7
 982 1017 982 1017 1056 951 c 128,-1,8
 1130 885 1130 885 1174.5 789 c 128,-1,9
 1219 693 1219 693 1219 570 c 0,10,11
 1219 553 1219 553 1218.5 535 c 128,-1,12
 1218 517 1218 517 1217 498 c 1,13,-1
 557 498 l 1,14,-1
 557 69 l 1,15,16
 591 62 591 62 627.5 58.5 c 128,-1,17
 664 55 664 55 689 55 c 0,18,19
 795 55 795 55 876 86.5 c 128,-1,20
 957 118 957 118 1017 174 c 0,21,22
 1027 184 1027 184 1036 193.5 c 128,-1,23
 1045 203 1045 203 1052 211 c 0,24,25
 1066 229 1066 229 1076.5 236 c 128,-1,26
 1087 243 1087 243 1101 243 c 0,27,28
 1119 243 1119 243 1129.5 233.5 c 128,-1,29
 1140 224 1140 224 1140 207 c 0,30,31
 1140 192 1140 192 1133.5 179 c 128,-1,32
 1127 166 1127 166 1105 143 c 0,33,34
 1033 69 1033 69 924.5 25 c 128,-1,35
 816 -19 816 -19 672 -19 c 0,36,37
 552 -19 552 -19 444.5 20 c 128,-1,38
 337 59 337 59 256 130.5 c 128,-1,39
 175 202 175 202 128 301.5 c 128,-1,40
 81 401 81 401 81 522 c 0,0,1
834 571 m 1,41,-1
 834 994 l 1,42,43
 803 1003 803 1003 761.5 1008 c 128,-1,44
 720 1013 720 1013 686 1013 c 0,45,46
 655 1013 655 1013 619 1010.5 c 128,-1,47
 583 1008 583 1008 557 1002 c 1,48,-1
 557 571 l 1,49,-1
 834 571 l 1,41,-1
EndSplineSet
EndChar

StartChar: f
Encoding: 102 102 73
Width: 835
Flags: W
LayerCount: 2
Fore
SplineSet
174 995 m 1,0,-1
 158 995 l 2,1,2
 141 995 141 995 128 994.5 c 128,-1,3
 115 994 115 994 104 993 c 0,4,5
 88 992 88 992 79 991.5 c 128,-1,6
 70 991 70 991 63 991 c 0,7,8
 36 991 36 991 20 1002 c 128,-1,9
 4 1013 4 1013 4 1033 c 0,10,11
 4 1052 4 1052 20 1062 c 128,-1,12
 36 1072 36 1072 58 1072 c 0,13,14
 72 1072 72 1072 83 1071.5 c 128,-1,15
 94 1071 94 1071 109 1070 c 0,16,17
 120 1069 120 1069 136.5 1068.5 c 128,-1,18
 153 1068 153 1068 177 1068 c 1,19,20
 188 1162 188 1162 230 1231 c 128,-1,21
 272 1300 272 1300 337.5 1345 c 128,-1,22
 403 1390 403 1390 488.5 1411.5 c 128,-1,23
 574 1433 574 1433 673 1433 c 0,24,25
 741 1433 741 1433 794.5 1422 c 128,-1,26
 848 1411 848 1411 884.5 1393.5 c 128,-1,27
 921 1376 921 1376 940.5 1355.5 c 128,-1,28
 960 1335 960 1335 960 1316 c 0,29,30
 960 1296 960 1296 948.5 1284 c 128,-1,31
 937 1272 937 1272 915 1272 c 0,32,33
 902 1272 902 1272 889 1278 c 128,-1,34
 876 1284 876 1284 863 1293 c 128,-1,35
 850 1302 850 1302 836.5 1312 c 128,-1,36
 823 1322 823 1322 808 1330 c 0,37,38
 791 1339 791 1339 776 1345 c 128,-1,39
 761 1351 761 1351 745 1354.5 c 128,-1,40
 729 1358 729 1358 711 1359 c 128,-1,41
 693 1360 693 1360 669 1360 c 0,42,43
 654 1360 654 1360 637 1358 c 128,-1,44
 620 1356 620 1356 603 1354 c 1,45,-1
 603 1068 l 1,46,-1
 690 1068 l 2,47,48
 716 1068 716 1068 738.5 1068.5 c 128,-1,49
 761 1069 761 1069 774 1070 c 0,50,51
 788 1071 788 1071 799.5 1071.5 c 128,-1,52
 811 1072 811 1072 824 1072 c 0,53,54
 846 1072 846 1072 862 1062 c 128,-1,55
 878 1052 878 1052 878 1033 c 0,56,57
 878 1013 878 1013 862 1002 c 128,-1,58
 846 991 846 991 821 991 c 0,59,60
 813 991 813 991 803.5 991.5 c 128,-1,61
 794 992 794 992 779 993 c 0,62,63
 767 994 767 994 749 994.5 c 128,-1,64
 731 995 731 995 714 995 c 2,65,-1
 603 995 l 1,66,-1
 603 0 l 1,67,-1
 173 0 l 1,68,-1
 174 995 l 1,0,-1
EndSplineSet
EndChar

StartChar: g
Encoding: 103 103 74
Width: 1194
Flags: W
LayerCount: 2
Fore
SplineSet
95 123 m 0,0,1
 95 197 95 197 146.5 258.5 c 128,-1,2
 198 320 198 320 298 366 c 1,3,4
 205 417 205 417 150 500.5 c 128,-1,5
 95 584 95 584 95 695 c 0,6,7
 95 779 95 779 131.5 850.5 c 128,-1,8
 168 922 168 922 233.5 974.5 c 128,-1,9
 299 1027 299 1027 390.5 1056.5 c 128,-1,10
 482 1086 482 1086 593 1086 c 0,11,12
 645 1086 645 1086 694.5 1078 c 128,-1,13
 744 1070 744 1070 790 1056 c 1,14,15
 820 1085 820 1085 851.5 1110 c 128,-1,16
 883 1135 883 1135 916.5 1153.5 c 128,-1,17
 950 1172 950 1172 984 1182.5 c 128,-1,18
 1018 1193 1018 1193 1053 1193 c 0,19,20
 1104 1193 1104 1193 1128.5 1176 c 128,-1,21
 1153 1159 1153 1159 1153 1133 c 256,22,23
 1153 1107 1153 1107 1136 1095.5 c 128,-1,24
 1119 1084 1119 1084 1099 1084 c 0,25,26
 1088 1084 1088 1084 1076.5 1086 c 128,-1,27
 1065 1088 1065 1088 1050 1093 c 0,28,29
 1039 1097 1039 1097 1025 1098.5 c 128,-1,30
 1011 1100 1011 1100 1004 1100 c 0,31,32
 972 1100 972 1100 936 1078.5 c 128,-1,33
 900 1057 900 1057 865 1025 c 1,34,35
 916 1000 916 1000 958.5 965.5 c 128,-1,36
 1001 931 1001 931 1031 888 c 128,-1,37
 1061 845 1061 845 1077.5 795 c 128,-1,38
 1094 745 1094 745 1094 688 c 0,39,40
 1094 600 1094 600 1052 528 c 128,-1,41
 1010 456 1010 456 940.5 404.5 c 128,-1,42
 871 353 871 353 781.5 324.5 c 128,-1,43
 692 296 692 296 597 296 c 1,44,45
 542 295 542 295 490.5 303 c 128,-1,46
 439 311 439 311 391 326 c 1,47,48
 355 315 355 315 328.5 298.5 c 128,-1,49
 302 282 302 282 302 267 c 0,50,51
 302 253 302 253 314.5 241.5 c 128,-1,52
 327 230 327 230 366 221 c 128,-1,53
 405 212 405 212 478 205 c 128,-1,54
 551 198 551 198 672 195 c 0,55,56
 809 191 809 191 898.5 168.5 c 128,-1,57
 988 146 988 146 1041 111.5 c 128,-1,58
 1094 77 1094 77 1115.5 33.5 c 128,-1,59
 1137 -10 1137 -10 1137 -55 c 0,60,61
 1137 -116 1137 -116 1105 -170.5 c 128,-1,62
 1073 -225 1073 -225 1007.5 -266 c 128,-1,63
 942 -307 942 -307 842 -331 c 128,-1,64
 742 -355 742 -355 605 -355 c 0,65,66
 474 -355 474 -355 365.5 -337 c 128,-1,67
 257 -319 257 -319 161 -275 c 0,68,69
 126 -258 126 -258 112 -241.5 c 128,-1,70
 98 -225 98 -225 98 -205 c 0,71,72
 98 -188 98 -188 110.5 -178 c 128,-1,73
 123 -168 123 -168 137 -168 c 256,74,75
 151 -168 151 -168 162 -173.5 c 128,-1,76
 173 -179 173 -179 187 -187 c 0,77,78
 199 -194 199 -194 214 -202.5 c 128,-1,79
 229 -211 229 -211 244 -219 c 1,80,81
 314 -249 314 -249 407 -267 c 128,-1,82
 500 -285 500 -285 599 -285 c 0,83,84
 673 -285 673 -285 727.5 -277.5 c 128,-1,85
 782 -270 782 -270 818 -259.5 c 128,-1,86
 854 -249 854 -249 871.5 -236.5 c 128,-1,87
 889 -224 889 -224 889 -213 c 0,88,89
 889 -204 889 -204 886.5 -194.5 c 128,-1,90
 884 -185 884 -185 872.5 -176 c 128,-1,91
 861 -167 861 -167 838.5 -158.5 c 128,-1,92
 816 -150 816 -150 776 -143 c 128,-1,93
 736 -136 736 -136 675.5 -130.5 c 128,-1,94
 615 -125 615 -125 528 -121 c 0,95,96
 412 -115 412 -115 330 -94.5 c 128,-1,97
 248 -74 248 -74 195.5 -42 c 128,-1,98
 143 -10 143 -10 119 32.5 c 128,-1,99
 95 75 95 75 95 123 c 0,0,1
601 369 m 1,100,101
 674 370 674 370 747.5 389.5 c 128,-1,102
 821 409 821 409 880.5 448 c 128,-1,103
 940 487 940 487 977.5 546.5 c 128,-1,104
 1015 606 1015 606 1015 686 c 0,105,106
 1015 738 1015 738 998 783 c 128,-1,107
 981 828 981 828 951.5 864 c 128,-1,108
 922 900 922 900 881.5 928 c 128,-1,109
 841 956 841 956 795 975 c 128,-1,110
 749 994 749 994 699.5 1004 c 128,-1,111
 650 1014 650 1014 601 1015 c 1,112,-1
 601 369 l 1,100,101
EndSplineSet
EndChar

StartChar: h
Encoding: 104 104 75
Width: 1496
Flags: W
LayerCount: 2
Fore
SplineSet
173 1415 m 1,0,-1
 603 1415 l 1,1,-1
 603 899 l 1,2,3
 688 992 688 992 787.5 1039 c 128,-1,4
 887 1086 887 1086 990 1086 c 0,5,6
 1169 1086 1169 1086 1255.5 1001 c 128,-1,7
 1342 916 1342 916 1342 744 c 2,8,-1
 1342 0 l 1,9,-1
 912 0 l 1,10,-1
 912 973 l 1,11,12
 894 985 894 985 860 985 c 0,13,14
 835 985 835 985 803 971 c 128,-1,15
 771 957 771 957 736.5 932 c 128,-1,16
 702 907 702 907 667.5 872 c 128,-1,17
 633 837 633 837 603 794 c 1,18,-1
 603 0 l 1,19,-1
 173 0 l 1,20,-1
 173 1415 l 1,0,-1
EndSplineSet
EndChar

StartChar: i
Encoding: 105 105 76
Width: 757
Flags: W
LayerCount: 2
Fore
SplineSet
388 1243 m 0,0,1
 280 1243 280 1243 222 1289 c 128,-1,2
 164 1335 164 1335 164 1410 c 0,3,4
 164 1441 164 1441 181 1469 c 128,-1,5
 198 1497 198 1497 228.5 1518.5 c 128,-1,6
 259 1540 259 1540 301 1553 c 128,-1,7
 343 1566 343 1566 394 1566 c 0,8,9
 448 1566 448 1566 489.5 1551 c 128,-1,10
 531 1536 531 1536 559.5 1512 c 128,-1,11
 588 1488 588 1488 603 1458 c 128,-1,12
 618 1428 618 1428 618 1398 c 0,13,14
 618 1366 618 1366 600.5 1337.5 c 128,-1,15
 583 1309 583 1309 552 1288 c 128,-1,16
 521 1267 521 1267 479 1255 c 128,-1,17
 437 1243 437 1243 388 1243 c 0,0,1
173 1068 m 1,18,-1
 603 1068 l 1,19,-1
 603 0 l 1,20,-1
 173 0 l 1,21,-1
 173 1068 l 1,18,-1
EndSplineSet
EndChar

StartChar: j
Encoding: 106 106 77
Width: 801
Flags: W
LayerCount: 2
Fore
SplineSet
432 1243 m 0,0,1
 324 1243 324 1243 266 1289 c 128,-1,2
 208 1335 208 1335 208 1410 c 0,3,4
 208 1441 208 1441 225 1469 c 128,-1,5
 242 1497 242 1497 272.5 1518.5 c 128,-1,6
 303 1540 303 1540 345 1553 c 128,-1,7
 387 1566 387 1566 438 1566 c 0,8,9
 492 1566 492 1566 533.5 1551 c 128,-1,10
 575 1536 575 1536 603.5 1512 c 128,-1,11
 632 1488 632 1488 647 1458 c 128,-1,12
 662 1428 662 1428 662 1398 c 0,13,14
 662 1366 662 1366 644.5 1337.5 c 128,-1,15
 627 1309 627 1309 596 1288 c 128,-1,16
 565 1267 565 1267 523 1255 c 128,-1,17
 481 1243 481 1243 432 1243 c 0,0,1
-51 -203 m 0,18,19
 -38 -203 -38 -203 -28 -208.5 c 128,-1,20
 -18 -214 -18 -214 -7.5 -222 c 128,-1,21
 3 -230 3 -230 15 -240.5 c 128,-1,22
 27 -251 27 -251 45 -260 c 0,23,24
 60 -268 60 -268 90.5 -274 c 128,-1,25
 121 -280 121 -280 163 -280 c 0,26,27
 178 -280 178 -280 192 -278.5 c 128,-1,28
 206 -277 206 -277 220 -275 c 1,29,-1
 220 1068 l 1,30,-1
 648 1068 l 1,31,-1
 647 106 l 2,32,33
 647 -16 647 -16 609 -103 c 128,-1,34
 571 -190 571 -190 504 -245.5 c 128,-1,35
 437 -301 437 -301 346.5 -327 c 128,-1,36
 256 -353 256 -353 150 -353 c 0,37,38
 90 -353 90 -353 44 -344 c 128,-1,39
 -2 -335 -2 -335 -33 -320 c 128,-1,40
 -64 -305 -64 -305 -79.5 -286.5 c 128,-1,41
 -95 -268 -95 -268 -95 -249 c 0,42,43
 -95 -229 -95 -229 -83.5 -216 c 128,-1,44
 -72 -203 -72 -203 -51 -203 c 0,18,19
EndSplineSet
EndChar

StartChar: k
Encoding: 107 107 78
Width: 1314
Flags: W
LayerCount: 2
Fore
SplineSet
173 1415 m 1,0,-1
 603 1415 l 1,1,-1
 603 652 l 1,2,-1
 1024 957 l 2,3,4
 1053 979 1053 979 1077.5 1001 c 128,-1,5
 1102 1023 1102 1023 1125 1049 c 0,6,7
 1156 1086 1156 1086 1187 1086 c 0,8,9
 1206 1086 1206 1086 1216 1075 c 128,-1,10
 1226 1064 1226 1064 1226 1049 c 0,11,12
 1226 1040 1226 1040 1222.5 1030.5 c 128,-1,13
 1219 1021 1219 1021 1208 1009 c 128,-1,14
 1197 997 1197 997 1177.5 981 c 128,-1,15
 1158 965 1158 965 1126 941 c 2,16,-1
 937 796 l 1,17,-1
 1305 0 l 1,18,-1
 858 0 l 1,19,-1
 603 564 l 1,20,-1
 603 0 l 1,21,-1
 173 0 l 1,22,-1
 173 1415 l 1,0,-1
EndSplineSet
EndChar

StartChar: l
Encoding: 108 108 79
Width: 757
Flags: W
LayerCount: 2
Fore
SplineSet
173 1415 m 1,0,-1
 603 1415 l 1,1,-1
 603 0 l 1,2,-1
 173 0 l 1,3,-1
 173 1415 l 1,0,-1
EndSplineSet
EndChar

StartChar: m
Encoding: 109 109 80
Width: 2217
Flags: W
LayerCount: 2
Fore
SplineSet
173 1068 m 1,0,-1
 603 1068 l 1,1,-1
 603 907 l 1,2,3
 686 995 686 995 784 1040.5 c 128,-1,4
 882 1086 882 1086 981 1086 c 0,5,6
 1251 1086 1251 1086 1314 886 c 1,7,8
 1400 985 1400 985 1503.5 1035.5 c 128,-1,9
 1607 1086 1607 1086 1712 1086 c 0,10,11
 1891 1086 1891 1086 1977 1001 c 128,-1,12
 2063 916 2063 916 2063 744 c 2,13,-1
 2063 0 l 1,14,-1
 1634 0 l 1,15,-1
 1634 971 l 1,16,17
 1623 976 1623 976 1608 975.5 c 128,-1,18
 1593 975 1593 975 1577 975 c 0,19,20
 1553 975 1553 975 1522.5 961.5 c 128,-1,21
 1492 948 1492 948 1459.5 924 c 128,-1,22
 1427 900 1427 900 1394 866.5 c 128,-1,23
 1361 833 1361 833 1331 792 c 1,24,25
 1332 780 1332 780 1332.5 768 c 128,-1,26
 1333 756 1333 756 1333 744 c 2,27,-1
 1333 0 l 1,28,-1
 904 0 l 1,29,-1
 904 970 l 1,30,31
 893 975 893 975 878 975 c 128,-1,32
 863 975 863 975 846 975 c 0,33,34
 822 975 822 975 792 962 c 128,-1,35
 762 949 762 949 729.5 925.5 c 128,-1,36
 697 902 697 902 664.5 868.5 c 128,-1,37
 632 835 632 835 603 795 c 1,38,-1
 603 0 l 1,39,-1
 173 0 l 1,40,-1
 173 1068 l 1,0,-1
EndSplineSet
EndChar

StartChar: n
Encoding: 110 110 81
Width: 1497
Flags: W
LayerCount: 2
Fore
SplineSet
173 1068 m 1,0,-1
 603 1068 l 1,1,-1
 603 897 l 1,2,3
 688 991 688 991 788 1038.5 c 128,-1,4
 888 1086 888 1086 990 1086 c 0,5,6
 1343 1086 1343 1086 1343 744 c 2,7,-1
 1343 0 l 1,8,-1
 913 0 l 1,9,-1
 913 959 l 1,10,11
 902 966 902 966 887 970.5 c 128,-1,12
 872 975 872 975 855 975 c 0,13,14
 830 975 830 975 799 961.5 c 128,-1,15
 768 948 768 948 734 923.5 c 128,-1,16
 700 899 700 899 666.5 864.5 c 128,-1,17
 633 830 633 830 603 788 c 1,18,-1
 603 0 l 1,19,-1
 173 0 l 1,20,-1
 173 1068 l 1,0,-1
EndSplineSet
EndChar

StartChar: o
Encoding: 111 111 82
Width: 1303
Flags: W
LayerCount: 2
Fore
SplineSet
81 545 m 0,0,1
 81 660 81 660 124.5 758.5 c 128,-1,2
 168 857 168 857 244.5 930 c 128,-1,3
 321 1003 321 1003 426.5 1044.5 c 128,-1,4
 532 1086 532 1086 656 1086 c 0,5,6
 786 1086 786 1086 890.5 1042.5 c 128,-1,7
 995 999 995 999 1068.5 924.5 c 128,-1,8
 1142 850 1142 850 1181 750 c 128,-1,9
 1220 650 1220 650 1220 537 c 0,10,11
 1220 422 1220 422 1179.5 321 c 128,-1,12
 1139 220 1139 220 1064.5 144.5 c 128,-1,13
 990 69 990 69 885.5 25 c 128,-1,14
 781 -19 781 -19 652 -19 c 0,15,16
 531 -19 531 -19 427 21.5 c 128,-1,17
 323 62 323 62 246 136.5 c 128,-1,18
 169 211 169 211 125 315 c 128,-1,19
 81 419 81 419 81 545 c 0,0,1
624 56 m 1,20,21
 632 55 632 55 639.5 55 c 128,-1,22
 647 55 647 55 654 55 c 0,23,24
 750 55 750 55 838 87 c 128,-1,25
 926 119 926 119 993 180.5 c 128,-1,26
 1060 242 1060 242 1099.5 331 c 128,-1,27
 1139 420 1139 420 1139 534 c 0,28,29
 1139 642 1139 642 1103 730 c 128,-1,30
 1067 818 1067 818 1002.5 881 c 128,-1,31
 938 944 938 944 849 978.5 c 128,-1,32
 760 1013 760 1013 653 1013 c 0,33,34
 645 1013 645 1013 638 1013 c 128,-1,35
 631 1013 631 1013 624 1012 c 1,36,-1
 624 56 l 1,20,21
EndSplineSet
EndChar

StartChar: p
Encoding: 112 112 83
Width: 1512
Flags: W
LayerCount: 2
Fore
SplineSet
173 1068 m 1,0,-1
 584 1068 l 1,1,-1
 584 1013 l 1,2,3
 654 1052 654 1052 725.5 1069 c 128,-1,4
 797 1086 797 1086 859 1086 c 0,5,6
 989 1086 989 1086 1094 1045 c 128,-1,7
 1199 1004 1199 1004 1273.5 931.5 c 128,-1,8
 1348 859 1348 859 1388.5 759.5 c 128,-1,9
 1429 660 1429 660 1429 543 c 256,10,11
 1429 426 1429 426 1389.5 324 c 128,-1,12
 1350 222 1350 222 1276.5 145.5 c 128,-1,13
 1203 69 1203 69 1098 25 c 128,-1,14
 993 -19 993 -19 861 -19 c 0,15,16
 792 -19 792 -19 721 -3.5 c 128,-1,17
 650 12 650 12 584 44 c 1,18,-1
 584 -320 l 1,19,-1
 173 -320 l 1,20,-1
 173 1068 l 1,0,-1
584 133 m 1,21,22
 660 89 660 89 736.5 72 c 128,-1,23
 813 55 813 55 878 55 c 0,24,25
 892 55 892 55 904 55 c 128,-1,26
 916 55 916 55 927 57 c 1,27,-1
 927 1007 l 1,28,29
 908 1010 908 1010 888 1011.5 c 128,-1,30
 868 1013 868 1013 850 1013 c 0,31,32
 784 1013 784 1013 715 993.5 c 128,-1,33
 646 974 646 974 584 931 c 1,34,-1
 584 133 l 1,21,22
EndSplineSet
EndChar

StartChar: q
Encoding: 113 113 84
Width: 1495
Flags: W
LayerCount: 2
Fore
SplineSet
83 541 m 0,0,1
 83 651 83 651 122.5 750 c 128,-1,2
 162 849 162 849 237 923.5 c 128,-1,3
 312 998 312 998 420 1042 c 128,-1,4
 528 1086 528 1086 665 1086 c 0,5,6
 731 1086 731 1086 798.5 1071 c 128,-1,7
 866 1056 866 1056 929 1025 c 1,8,-1
 929 1068 l 1,9,-1
 1341 1068 l 1,10,-1
 1341 -320 l 1,11,-1
 929 -320 l 1,12,-1
 929 50 l 1,13,14
 864 14 864 14 795.5 -2.5 c 128,-1,15
 727 -19 727 -19 654 -19 c 0,16,17
 525 -19 525 -19 419.5 22.5 c 128,-1,18
 314 64 314 64 239.5 138 c 128,-1,19
 165 212 165 212 124 315 c 128,-1,20
 83 418 83 418 83 541 c 0,0,1
586 61 m 1,21,22
 604 58 604 58 624.5 56.5 c 128,-1,23
 645 55 645 55 664 55 c 0,24,25
 739 55 739 55 804 75.5 c 128,-1,26
 869 96 869 96 929 139 c 1,27,-1
 929 937 l 1,28,29
 859 977 859 977 788 995 c 128,-1,30
 717 1013 717 1013 645 1013 c 0,31,32
 630 1013 630 1013 615 1012 c 128,-1,33
 600 1011 600 1011 586 1009 c 1,34,-1
 586 61 l 1,21,22
EndSplineSet
EndChar

StartChar: r
Encoding: 114 114 85
Width: 965
Flags: W
LayerCount: 2
Fore
SplineSet
173 1068 m 1,0,-1
 603 1068 l 1,1,-1
 603 754 l 1,2,3
 672 925 672 925 751.5 1005.5 c 128,-1,4
 831 1086 831 1086 911 1086 c 0,5,6
 956 1086 956 1086 982.5 1062.5 c 128,-1,7
 1009 1039 1009 1039 1009 1002 c 0,8,9
 1009 981 1009 981 1001 964 c 128,-1,10
 993 947 993 947 980 935 c 128,-1,11
 967 923 967 923 950.5 916.5 c 128,-1,12
 934 910 934 910 917 910 c 0,13,14
 905 910 905 910 894.5 911.5 c 128,-1,15
 884 913 884 913 866 921 c 0,16,17
 855 926 855 926 844 929 c 128,-1,18
 833 932 833 932 820 932 c 0,19,20
 794 932 794 932 757 893.5 c 128,-1,21
 720 855 720 855 686 787 c 128,-1,22
 652 719 652 719 627.5 627 c 128,-1,23
 603 535 603 535 603 427 c 2,24,-1
 603 0 l 1,25,-1
 173 0 l 1,26,-1
 173 1068 l 1,0,-1
EndSplineSet
EndChar

StartChar: s
Encoding: 115 115 86
Width: 1023
Flags: W
LayerCount: 2
Fore
SplineSet
95 134 m 0,0,1
 95 149 95 149 105.5 161.5 c 128,-1,2
 116 174 116 174 136 174 c 0,3,4
 150 174 150 174 161 164 c 128,-1,5
 172 154 172 154 186 141 c 0,6,7
 210 120 210 120 243 103 c 128,-1,8
 276 86 276 86 314.5 74 c 128,-1,9
 353 62 353 62 394.5 56 c 128,-1,10
 436 50 436 50 477 50 c 0,11,12
 522 50 522 50 554.5 57 c 128,-1,13
 587 64 587 64 608 75.5 c 128,-1,14
 629 87 629 87 639 101.5 c 128,-1,15
 649 116 649 116 649 130 c 0,16,17
 649 145 649 145 643.5 158.5 c 128,-1,18
 638 172 638 172 620 191.5 c 128,-1,19
 602 211 602 211 569 238.5 c 128,-1,20
 536 266 536 266 481 309 c 0,21,22
 368 397 368 397 296 463.5 c 128,-1,23
 224 530 224 530 182 585 c 128,-1,24
 140 640 140 640 124 687 c 128,-1,25
 108 734 108 734 108 783 c 0,26,27
 108 845 108 845 138.5 900 c 128,-1,28
 169 955 169 955 225 996.5 c 128,-1,29
 281 1038 281 1038 360.5 1062 c 128,-1,30
 440 1086 440 1086 538 1086 c 0,31,32
 568 1086 568 1086 600.5 1083 c 128,-1,33
 633 1080 633 1080 664.5 1075 c 128,-1,34
 696 1070 696 1070 724 1062.5 c 128,-1,35
 752 1055 752 1055 775 1046 c 0,36,37
 829 1024 829 1024 861 998.5 c 128,-1,38
 893 973 893 973 893 945 c 0,39,40
 893 932 893 932 884.5 920.5 c 128,-1,41
 876 909 876 909 859 909 c 0,42,43
 843 909 843 909 829.5 920.5 c 128,-1,44
 816 932 816 932 793 949 c 1,45,46
 736 987 736 987 670 1003 c 128,-1,47
 604 1019 604 1019 549 1019 c 0,48,49
 490 1019 490 1019 466.5 1001 c 128,-1,50
 443 983 443 983 443 960 c 0,51,52
 443 948 443 948 450 932.5 c 128,-1,53
 457 917 457 917 475.5 895.5 c 128,-1,54
 494 874 494 874 526.5 845 c 128,-1,55
 559 816 559 816 611 779 c 1,56,57
 714 702 714 702 781 643 c 128,-1,58
 848 584 848 584 886.5 533.5 c 128,-1,59
 925 483 925 483 940 436 c 128,-1,60
 955 389 955 389 955 338 c 0,61,62
 955 260 955 260 921 194.5 c 128,-1,63
 887 129 887 129 824 81.5 c 128,-1,64
 761 34 761 34 671 7.5 c 128,-1,65
 581 -19 581 -19 469 -19 c 0,66,67
 431 -19 431 -19 390 -14.5 c 128,-1,68
 349 -10 349 -10 310 -1 c 128,-1,69
 271 8 271 8 235.5 20.5 c 128,-1,70
 200 33 200 33 172 49 c 0,71,72
 95 92 95 92 95 134 c 0,0,1
EndSplineSet
EndChar

StartChar: t
Encoding: 116 116 87
Width: 963
Flags: W
LayerCount: 2
Fore
SplineSet
191 995 m 1,0,1
 169 995 169 995 153.5 994.5 c 128,-1,2
 138 994 138 994 127 993 c 0,3,4
 112 992 112 992 101 991 c 128,-1,5
 90 990 90 990 76 990 c 0,6,7
 53 990 53 990 37.5 1000.5 c 128,-1,8
 22 1011 22 1011 22 1030 c 0,9,10
 22 1051 22 1051 37.5 1061.5 c 128,-1,11
 53 1072 53 1072 80 1072 c 0,12,13
 88 1072 88 1072 97 1071.5 c 128,-1,14
 106 1071 106 1071 122 1070 c 0,15,16
 133 1069 133 1069 146 1068.5 c 128,-1,17
 159 1068 159 1068 176 1068 c 2,18,-1
 191 1068 l 1,19,-1
 191 1223 l 1,20,-1
 620 1415 l 1,21,-1
 620 1068 l 1,22,-1
 754 1068 l 2,23,24
 769 1068 769 1068 782.5 1068.5 c 128,-1,25
 796 1069 796 1069 808 1070 c 0,26,27
 823 1071 823 1071 832 1071.5 c 128,-1,28
 841 1072 841 1072 849 1072 c 0,29,30
 875 1072 875 1072 891.5 1061.5 c 128,-1,31
 908 1051 908 1051 908 1030 c 0,32,33
 908 1011 908 1011 891.5 1000.5 c 128,-1,34
 875 990 875 990 854 990 c 0,35,36
 840 990 840 990 828.5 991 c 128,-1,37
 817 992 817 992 803 993 c 0,38,39
 790 994 790 994 773 994.5 c 128,-1,40
 756 995 756 995 730 995 c 2,41,-1
 620 995 l 1,42,-1
 620 55 l 1,43,44
 681 56 681 56 727 71.5 c 128,-1,45
 773 87 773 87 815 122 c 0,46,47
 833 136 833 136 847.5 157.5 c 128,-1,48
 862 179 862 179 870 201 c 0,49,50
 883 238 883 238 895.5 250.5 c 128,-1,51
 908 263 908 263 925 263 c 256,52,53
 942 263 942 263 954 249.5 c 128,-1,54
 966 236 966 236 966 215 c 0,55,56
 966 199 966 199 956 176.5 c 128,-1,57
 946 154 946 154 926 129 c 128,-1,58
 906 104 906 104 877 79 c 128,-1,59
 848 54 848 54 809 32 c 1,60,61
 764 8 764 8 708.5 -5.5 c 128,-1,62
 653 -19 653 -19 584 -19 c 0,63,64
 480 -19 480 -19 406 5.5 c 128,-1,65
 332 30 332 30 284.5 76.5 c 128,-1,66
 237 123 237 123 214.5 189 c 128,-1,67
 192 255 192 255 192 339 c 2,68,-1
 191 995 l 1,0,1
EndSplineSet
EndChar

StartChar: u
Encoding: 117 117 88
Width: 1494
Flags: W
LayerCount: 2
Fore
SplineSet
172 1068 m 1,0,-1
 600 1068 l 1,1,-1
 600 89 l 1,2,3
 610 84 610 84 625 84 c 128,-1,4
 640 84 640 84 658 84 c 0,5,6
 682 84 682 84 713.5 97.5 c 128,-1,7
 745 111 745 111 779.5 135 c 128,-1,8
 814 159 814 159 847.5 192 c 128,-1,9
 881 225 881 225 910 264 c 1,10,-1
 910 1068 l 1,11,-1
 1340 1068 l 1,12,-1
 1340 0 l 1,13,-1
 910 0 l 1,14,-1
 910 154 l 1,15,16
 825 64 825 64 724.5 22.5 c 128,-1,17
 624 -19 624 -19 523 -19 c 0,18,19
 344 -19 344 -19 258 67 c 128,-1,20
 172 153 172 153 172 324 c 2,21,-1
 172 1068 l 1,0,-1
EndSplineSet
EndChar

StartChar: v
Encoding: 118 118 89
Width: 1069
Flags: W
LayerCount: 2
Fore
SplineSet
4 1068 m 1,0,-1
 457 1068 l 1,1,-1
 729 507 l 1,2,-1
 900 847 l 2,3,4
 929 906 929 906 947 954 c 128,-1,5
 965 1002 965 1002 973 1034 c 0,6,7
 980 1062 980 1062 993.5 1074 c 128,-1,8
 1007 1086 1007 1086 1026 1086 c 0,9,10
 1046 1086 1046 1086 1057 1073 c 128,-1,11
 1068 1060 1068 1060 1068 1043 c 0,12,13
 1068 1034 1068 1034 1065.5 1021 c 128,-1,14
 1063 1008 1063 1008 1055.5 986 c 128,-1,15
 1048 964 1048 964 1033 930 c 128,-1,16
 1018 896 1018 896 993 844 c 2,17,-1
 553 -45 l 1,18,-1
 4 1068 l 1,0,-1
EndSplineSet
EndChar

StartChar: w
Encoding: 119 119 90
Width: 1636
Flags: W
LayerCount: 2
Fore
SplineSet
4 1068 m 1,0,-1
 457 1068 l 1,1,-1
 713 530 l 1,2,-1
 1015 1114 l 1,3,-1
 1330 523 l 1,4,-1
 1473 847 l 2,5,6
 1499 907 1499 907 1515.5 953 c 128,-1,7
 1532 999 1532 999 1539 1030 c 0,8,9
 1546 1059 1546 1059 1560 1072.5 c 128,-1,10
 1574 1086 1574 1086 1592 1086 c 0,11,12
 1612 1086 1612 1086 1623.5 1072 c 128,-1,13
 1635 1058 1635 1058 1635 1046 c 0,14,15
 1635 1037 1635 1037 1633.5 1027.5 c 128,-1,16
 1632 1018 1632 1018 1625 997.5 c 128,-1,17
 1618 977 1618 977 1602.5 941.5 c 128,-1,18
 1587 906 1587 906 1560 844 c 2,19,-1
 1171 -45 l 1,20,-1
 837 594 l 1,21,-1
 514 -45 l 1,22,-1
 4 1068 l 1,0,-1
EndSplineSet
EndChar

StartChar: x
Encoding: 120 120 91
Width: 1087
Flags: W
LayerCount: 2
Fore
SplineSet
25 24 m 0,0,1
 25 35 25 35 33 49.5 c 128,-1,2
 41 64 41 64 61 79 c 0,3,4
 74 89 74 89 84 98 c 128,-1,5
 94 107 94 107 103 116.5 c 128,-1,6
 112 126 112 126 121 137.5 c 128,-1,7
 130 149 130 149 142 165 c 2,8,-1
 378 453 l 1,9,-1
 10 1068 l 1,10,-1
 465 1068 l 1,11,-1
 677 715 l 1,12,-1
 838 922 l 2,13,14
 848 935 848 935 859.5 951 c 128,-1,15
 871 967 871 967 880.5 982 c 128,-1,16
 890 997 890 997 897.5 1010.5 c 128,-1,17
 905 1024 905 1024 908 1033 c 0,18,19
 922 1064 922 1064 936 1075 c 128,-1,20
 950 1086 950 1086 965 1086 c 0,21,22
 981 1086 981 1086 993.5 1075.5 c 128,-1,23
 1006 1065 1006 1065 1006 1045 c 0,24,25
 1006 1035 1006 1035 1000.5 1020 c 128,-1,26
 995 1005 995 1005 982 982.5 c 128,-1,27
 969 960 969 960 946.5 928.5 c 128,-1,28
 924 897 924 897 891 855 c 2,29,-1
 722 640 l 1,30,-1
 1107 0 l 1,31,-1
 650 0 l 1,32,-1
 422 380 l 1,33,-1
 178 73 l 2,34,35
 155 44 155 44 139 26 c 128,-1,36
 123 8 123 8 110.5 -2 c 128,-1,37
 98 -12 98 -12 88 -15.5 c 128,-1,38
 78 -19 78 -19 68 -19 c 0,39,40
 49 -19 49 -19 37 -7.5 c 128,-1,41
 25 4 25 4 25 24 c 0,0,1
EndSplineSet
EndChar

StartChar: y
Encoding: 121 121 92
Width: 1069
Flags: W
LayerCount: 2
Fore
SplineSet
300 -296 m 0,0,1
 300 -277 300 -277 312.5 -262 c 128,-1,2
 325 -247 325 -247 359 -236 c 0,3,4
 391 -226 391 -226 412.5 -213 c 128,-1,5
 434 -200 434 -200 451.5 -179 c 128,-1,6
 469 -158 469 -158 486 -125.5 c 128,-1,7
 503 -93 503 -93 526 -43 c 1,8,-1
 549 10 l 1,9,-1
 4 1068 l 1,10,-1
 459 1068 l 1,11,-1
 743 464 l 1,12,-1
 907 847 l 2,13,14
 933 907 933 907 949 954.5 c 128,-1,15
 965 1002 965 1002 973 1034 c 0,16,17
 980 1062 980 1062 993.5 1074 c 128,-1,18
 1007 1086 1007 1086 1026 1086 c 0,19,20
 1046 1086 1046 1086 1057 1074 c 128,-1,21
 1068 1062 1068 1062 1068 1049 c 0,22,23
 1068 1038 1068 1038 1065.5 1024.5 c 128,-1,24
 1063 1011 1063 1011 1055.5 988.5 c 128,-1,25
 1048 966 1048 966 1034 931.5 c 128,-1,26
 1020 897 1020 897 997 844 c 2,27,-1
 619 -30 l 1,28,29
 545 -204 545 -204 477 -275 c 1,30,31
 445 -310 445 -310 413.5 -324 c 128,-1,32
 382 -338 382 -338 353 -338 c 0,33,34
 334 -338 334 -338 317 -328.5 c 128,-1,35
 300 -319 300 -319 300 -296 c 0,0,1
EndSplineSet
EndChar

StartChar: z
Encoding: 122 122 93
Width: 1123
Flags: W
LayerCount: 2
Fore
SplineSet
633 995 m 1,0,-1
 332 995 l 2,1,2
 294 995 294 995 264 992.5 c 128,-1,3
 234 990 234 990 215 987 c 0,4,5
 196 983 196 983 186 982 c 128,-1,6
 176 981 176 981 170 981 c 0,7,8
 144 981 144 981 130.5 992.5 c 128,-1,9
 117 1004 117 1004 117 1021 c 0,10,11
 117 1044 117 1044 140.5 1056 c 128,-1,12
 164 1068 164 1068 216 1068 c 2,13,-1
 1082 1068 l 1,14,-1
 528 73 l 1,15,-1
 857 73 l 2,16,17
 896 73 896 73 925.5 75 c 128,-1,18
 955 77 955 77 974 80 c 1,19,20
 993 85 993 85 1003 85.5 c 128,-1,21
 1013 86 1013 86 1019 86 c 0,22,23
 1045 86 1045 86 1059 75 c 128,-1,24
 1073 64 1073 64 1073 46 c 256,25,26
 1073 28 1073 28 1050 14 c 128,-1,27
 1027 0 1027 0 972 0 c 2,28,-1
 41 0 l 1,29,-1
 633 995 l 1,0,-1
EndSplineSet
EndChar

StartChar: braceleft
Encoding: 123 123 94
Width: 934
Flags: W
LayerCount: 2
Fore
SplineSet
187 568 m 0,0,1
 183 622 183 622 165.5 646.5 c 128,-1,2
 148 671 148 671 106 676 c 0,3,4
 77 679 77 679 64 688 c 128,-1,5
 51 697 51 697 51 714 c 0,6,7
 51 727 51 727 62.5 737.5 c 128,-1,8
 74 748 74 748 100 750 c 0,9,10
 124 752 124 752 139.5 757.5 c 128,-1,11
 155 763 155 763 165 774.5 c 128,-1,12
 175 786 175 786 179.5 804.5 c 128,-1,13
 184 823 184 823 186 851 c 0,14,15
 195 1005 195 1005 238.5 1137 c 128,-1,16
 282 1269 282 1269 355.5 1366 c 128,-1,17
 429 1463 429 1463 530.5 1518 c 128,-1,18
 632 1573 632 1573 756 1573 c 0,19,20
 788 1573 788 1573 804 1561.5 c 128,-1,21
 820 1550 820 1550 820 1536 c 0,22,23
 820 1516 820 1516 799.5 1504.5 c 128,-1,24
 779 1493 779 1493 739 1495 c 0,25,26
 706 1497 706 1497 672.5 1489.5 c 128,-1,27
 639 1482 639 1482 607 1468 c 1,28,-1
 607 1022 l 2,29,30
 607 946 607 946 588 891 c 128,-1,31
 569 836 569 836 528.5 798.5 c 128,-1,32
 488 761 488 761 426 739.5 c 128,-1,33
 364 718 364 718 277 710 c 1,34,35
 365 702 365 702 427.5 672.5 c 128,-1,36
 490 643 490 643 530 599 c 128,-1,37
 570 555 570 555 588.5 498.5 c 128,-1,38
 607 442 607 442 607 379 c 2,39,-1
 607 -87 l 1,40,41
 677 -119 677 -119 753 -122 c 0,42,43
 789 -124 789 -124 804.5 -133.5 c 128,-1,44
 820 -143 820 -143 820 -160 c 0,45,46
 820 -198 820 -198 756 -198 c 0,47,48
 657 -198 657 -198 560 -144.5 c 128,-1,49
 463 -91 463 -91 384 9 c 128,-1,50
 305 109 305 109 252 250.5 c 128,-1,51
 199 392 199 392 187 568 c 0,0,1
EndSplineSet
EndChar

StartChar: bar
Encoding: 124 124 95
Width: 458
Flags: W
LayerCount: 2
Fore
SplineSet
194 1213 m 2,0,1
 194 1258 194 1258 193 1284 c 128,-1,2
 192 1310 192 1310 190.5 1326 c 128,-1,3
 189 1342 189 1342 188 1352 c 128,-1,4
 187 1362 187 1362 187 1376 c 0,5,6
 187 1402 187 1402 198.5 1414 c 128,-1,7
 210 1426 210 1426 227 1426 c 256,8,9
 244 1426 244 1426 259.5 1414 c 128,-1,10
 275 1402 275 1402 275 1373 c 0,11,12
 275 1359 275 1359 274.5 1349.5 c 128,-1,13
 274 1340 274 1340 273 1327.5 c 128,-1,14
 272 1315 272 1315 271.5 1296.5 c 128,-1,15
 271 1278 271 1278 271 1246 c 2,16,-1
 271 -182 l 2,17,18
 271 -211 271 -211 271.5 -227.5 c 128,-1,19
 272 -244 272 -244 272.5 -254 c 128,-1,20
 273 -264 273 -264 273.5 -270 c 128,-1,21
 274 -276 274 -276 274 -282 c 0,22,23
 274 -309 274 -309 259.5 -323.5 c 128,-1,24
 245 -338 245 -338 225 -338 c 256,25,26
 205 -338 205 -338 193.5 -324.5 c 128,-1,27
 182 -311 182 -311 182 -291 c 0,28,29
 182 -279 182 -279 184.5 -266 c 128,-1,30
 187 -253 187 -253 190 -237 c 0,31,32
 192 -221 192 -221 193 -184 c 128,-1,33
 194 -147 194 -147 194 -91 c 2,34,-1
 194 1213 l 2,0,1
EndSplineSet
EndChar

StartChar: braceright
Encoding: 125 125 96
Width: 934
Flags: W
LayerCount: 2
Fore
SplineSet
91 -160 m 0,0,1
 91 -143 91 -143 106.5 -133.5 c 128,-1,2
 122 -124 122 -124 158 -122 c 0,3,4
 234 -119 234 -119 304 -87 c 1,5,-1
 304 379 l 2,6,7
 304 442 304 442 322.5 498.5 c 128,-1,8
 341 555 341 555 381 599 c 128,-1,9
 421 643 421 643 483.5 672.5 c 128,-1,10
 546 702 546 702 634 710 c 1,11,12
 547 718 547 718 485 739.5 c 128,-1,13
 423 761 423 761 382.5 798.5 c 128,-1,14
 342 836 342 836 323 891 c 128,-1,15
 304 946 304 946 304 1022 c 2,16,-1
 304 1468 l 1,17,18
 272 1482 272 1482 238.5 1489.5 c 128,-1,19
 205 1497 205 1497 172 1495 c 0,20,21
 132 1493 132 1493 111.5 1504.5 c 128,-1,22
 91 1516 91 1516 91 1536 c 0,23,24
 91 1550 91 1550 107 1561.5 c 128,-1,25
 123 1573 123 1573 155 1573 c 0,26,27
 279 1573 279 1573 380.5 1518 c 128,-1,28
 482 1463 482 1463 555.5 1366 c 128,-1,29
 629 1269 629 1269 672.5 1137 c 128,-1,30
 716 1005 716 1005 725 851 c 0,31,32
 726 823 726 823 731 804.5 c 128,-1,33
 736 786 736 786 746 774.5 c 128,-1,34
 756 763 756 763 771.5 757.5 c 128,-1,35
 787 752 787 752 811 750 c 0,36,37
 837 748 837 748 848.5 737.5 c 128,-1,38
 860 727 860 727 860 714 c 0,39,40
 860 697 860 697 847 688 c 128,-1,41
 834 679 834 679 805 676 c 0,42,43
 763 671 763 671 745.5 646.5 c 128,-1,44
 728 622 728 622 724 568 c 0,45,46
 712 392 712 392 659 250.5 c 128,-1,47
 606 109 606 109 527 9 c 128,-1,48
 448 -91 448 -91 351 -144.5 c 128,-1,49
 254 -198 254 -198 155 -198 c 0,50,51
 91 -198 91 -198 91 -160 c 0,0,1
EndSplineSet
EndChar

StartChar: asciitilde
Encoding: 126 126 97
Width: 1202
Flags: W
LayerCount: 2
Fore
SplineSet
101 581 m 0,0,1
 85 583 85 583 76.5 596.5 c 128,-1,2
 68 610 68 610 70 631 c 0,3,4
 72 657 72 657 92.5 693 c 128,-1,5
 113 729 113 729 142 759 c 1,6,7
 184 799 184 799 237.5 821 c 128,-1,8
 291 843 291 843 352 837 c 0,9,10
 383 834 383 834 412.5 826 c 128,-1,11
 442 818 442 818 472.5 803.5 c 128,-1,12
 503 789 503 789 535.5 768 c 128,-1,13
 568 747 568 747 605 718 c 0,14,15
 662 675 662 675 698.5 649.5 c 128,-1,16
 735 624 735 624 761 610 c 128,-1,17
 787 596 787 596 806 591 c 128,-1,18
 825 586 825 586 846 584 c 0,19,20
 900 578 900 578 937 603.5 c 128,-1,21
 974 629 974 629 1005 702 c 1,22,23
 1021 743 1021 743 1035 756 c 128,-1,24
 1049 769 1049 769 1070 767 c 0,25,26
 1085 765 1085 765 1095.5 755 c 128,-1,27
 1106 745 1106 745 1104 726 c 0,28,29
 1102 708 1102 708 1092.5 683 c 128,-1,30
 1083 658 1083 658 1066 635 c 1,31,32
 1025 573 1025 573 965 538.5 c 128,-1,33
 905 504 905 504 828 512 c 0,34,35
 800 515 800 515 775.5 521.5 c 128,-1,36
 751 528 751 528 721.5 543.5 c 128,-1,37
 692 559 692 559 652.5 586 c 128,-1,38
 613 613 613 613 556 658 c 0,39,40
 487 711 487 711 435.5 735 c 128,-1,41
 384 759 384 759 341 764 c 0,42,43
 282 770 282 770 238 741.5 c 128,-1,44
 194 713 194 713 162 636 c 0,45,46
 148 601 148 601 133.5 590 c 128,-1,47
 119 579 119 579 101 581 c 0,0,1
EndSplineSet
EndChar

StartChar: exclamdown
Encoding: 161 161 99
Width: 831
Flags: W
LayerCount: 2
Fore
SplineSet
402 1081 m 0,0,1
 306 1081 306 1081 251 1129 c 128,-1,2
 196 1177 196 1177 196 1262 c 0,3,4
 196 1299 196 1299 209.5 1330.5 c 128,-1,5
 223 1362 223 1362 248.5 1385 c 128,-1,6
 274 1408 274 1408 311.5 1420.5 c 128,-1,7
 349 1433 349 1433 397 1433 c 256,8,9
 445 1433 445 1433 483 1419.5 c 128,-1,10
 521 1406 521 1406 548 1382.5 c 128,-1,11
 575 1359 575 1359 589.5 1328 c 128,-1,12
 604 1297 604 1297 604 1263 c 0,13,14
 604 1225 604 1225 591.5 1192 c 128,-1,15
 579 1159 579 1159 553.5 1134.5 c 128,-1,16
 528 1110 528 1110 490.5 1095.5 c 128,-1,17
 453 1081 453 1081 402 1081 c 0,0,1
97 231 m 0,18,19
 97 259 97 259 101 283 c 128,-1,20
 105 307 105 307 116.5 337.5 c 128,-1,21
 128 368 128 368 149 409.5 c 128,-1,22
 170 451 170 451 205 513 c 0,23,24
 234 565 234 565 256 613 c 128,-1,25
 278 661 278 661 296 708 c 128,-1,26
 314 755 314 755 328 803.5 c 128,-1,27
 342 852 342 852 356 906 c 0,28,29
 364 938 364 938 374.5 949.5 c 128,-1,30
 385 961 385 961 402 961 c 0,31,32
 413 961 413 961 428.5 949.5 c 128,-1,33
 444 938 444 938 451 906 c 0,34,35
 467 841 467 841 480.5 793 c 128,-1,36
 494 745 494 745 510.5 701.5 c 128,-1,37
 527 658 527 658 549.5 612 c 128,-1,38
 572 566 572 566 606 506 c 0,39,40
 641 443 641 443 662 403 c 128,-1,41
 683 363 683 363 693.5 334.5 c 128,-1,42
 704 306 704 306 707 282.5 c 128,-1,43
 710 259 710 259 710 231 c 0,44,45
 710 175 710 175 689.5 129 c 128,-1,46
 669 83 669 83 629.5 50 c 128,-1,47
 590 17 590 17 533 -1 c 128,-1,48
 476 -19 476 -19 403 -19 c 0,49,50
 334 -19 334 -19 277.5 1 c 128,-1,51
 221 21 221 21 181 55 c 128,-1,52
 141 89 141 89 119 134.5 c 128,-1,53
 97 180 97 180 97 231 c 0,18,19
EndSplineSet
EndChar

StartChar: cent
Encoding: 162 162 100
Width: 1147
Flags: W
LayerCount: 2
Fore
SplineSet
436 18 m 1,0,1
 353 48 353 48 287.5 98.5 c 128,-1,2
 222 149 222 149 176 216.5 c 128,-1,3
 130 284 130 284 105.5 367 c 128,-1,4
 81 450 81 450 81 544 c 0,5,6
 81 663 81 663 126 762.5 c 128,-1,7
 171 862 171 862 250.5 934 c 128,-1,8
 330 1006 330 1006 438 1046 c 128,-1,9
 546 1086 546 1086 672 1086 c 0,10,11
 682 1086 682 1086 692 1085.5 c 128,-1,12
 702 1085 702 1085 713 1084 c 1,13,-1
 735 1140 l 2,14,15
 741 1156 741 1156 746.5 1174.5 c 128,-1,16
 752 1193 752 1193 756.5 1210 c 128,-1,17
 761 1227 761 1227 763.5 1242 c 128,-1,18
 766 1257 766 1257 767 1267 c 0,19,20
 771 1301 771 1301 780 1315.5 c 128,-1,21
 789 1330 789 1330 804 1335 c 0,22,23
 818 1340 818 1340 834 1334 c 128,-1,24
 850 1328 850 1328 856 1308 c 0,25,26
 859 1299 859 1299 858.5 1282.5 c 128,-1,27
 858 1266 858 1266 852.5 1240.5 c 128,-1,28
 847 1215 847 1215 835.5 1178.5 c 128,-1,29
 824 1142 824 1142 805 1092 c 1,30,-1
 797 1074 l 1,31,32
 877 1059 877 1059 951 1026 c 0,33,34
 993 1008 993 1008 1023 986 c 128,-1,35
 1053 964 1053 964 1053 935 c 0,36,37
 1053 915 1053 915 1041.5 904.5 c 128,-1,38
 1030 894 1030 894 1016 894 c 0,39,40
 1003 894 1003 894 991 899.5 c 128,-1,41
 979 905 979 905 962 917 c 1,42,43
 942 936 942 936 917 951 c 128,-1,44
 892 966 892 966 863 977 c 0,45,46
 815 995 815 995 769 1004 c 128,-1,47
 723 1013 723 1013 662 1013 c 0,48,49
 636 1013 636 1013 614.5 1011 c 128,-1,50
 593 1009 593 1009 573 1005 c 1,51,-1
 573 64 l 1,52,53
 599 59 599 59 625 57 c 128,-1,54
 651 55 651 55 670 55 c 0,55,56
 715 55 715 55 759.5 62.5 c 128,-1,57
 804 70 804 70 844 84 c 128,-1,58
 884 98 884 98 919 117 c 128,-1,59
 954 136 954 136 981 160 c 0,60,61
 1002 178 1002 178 1014.5 185 c 128,-1,62
 1027 192 1027 192 1043 192 c 0,63,64
 1052 192 1052 192 1062.5 183.5 c 128,-1,65
 1073 175 1073 175 1073 158 c 0,66,67
 1073 140 1073 140 1058.5 121 c 128,-1,68
 1044 102 1044 102 1011 77 c 1,69,70
 933 25 933 25 850.5 3 c 128,-1,71
 768 -19 768 -19 665 -19 c 0,72,73
 625 -19 625 -19 587 -15 c 128,-1,74
 549 -11 549 -11 514 -3 c 1,75,-1
 488 -71 l 2,76,77
 482 -87 482 -87 476.5 -105.5 c 128,-1,78
 471 -124 471 -124 466.5 -141 c 128,-1,79
 462 -158 462 -158 459.5 -173 c 128,-1,80
 457 -188 457 -188 456 -198 c 0,81,82
 452 -232 452 -232 443 -246.5 c 128,-1,83
 434 -261 434 -261 419 -266 c 0,84,85
 405 -271 405 -271 389 -265 c 128,-1,86
 373 -259 373 -259 367 -239 c 0,87,88
 364 -230 364 -230 364.5 -213.5 c 128,-1,89
 365 -197 365 -197 370.5 -171.5 c 128,-1,90
 376 -146 376 -146 387.5 -109.5 c 128,-1,91
 399 -73 399 -73 418 -23 c 1,92,-1
 436 18 l 1,0,1
EndSplineSet
EndChar

StartChar: sterling
Encoding: 163 163 101
Width: 1375
Flags: W
LayerCount: 2
Fore
SplineSet
15 178 m 256,0,1
 15 220 15 220 31 255.5 c 128,-1,2
 47 291 47 291 75 317 c 128,-1,3
 103 343 103 343 140.5 357.5 c 128,-1,4
 178 372 178 372 221 372 c 0,5,6
 252 372 252 372 284 366 c 128,-1,7
 316 360 316 360 358 343 c 1,8,-1
 358 688 l 1,9,10
 340 688 340 688 324 687 c 128,-1,11
 308 686 308 686 294 685 c 0,12,13
 275 683 275 683 258 681.5 c 128,-1,14
 241 680 241 680 220 680 c 0,15,16
 196 680 196 680 179.5 693.5 c 128,-1,17
 163 707 163 707 163 725 c 0,18,19
 163 746 163 746 178.5 758 c 128,-1,20
 194 770 194 770 220 770 c 0,21,22
 233 770 233 770 248 769 c 128,-1,23
 263 768 263 768 280 766 c 0,24,25
 316 763 316 763 358 763 c 1,26,-1
 358 1058 l 2,27,28
 358 1136 358 1136 390 1204.5 c 128,-1,29
 422 1273 422 1273 483.5 1324 c 128,-1,30
 545 1375 545 1375 636 1404 c 128,-1,31
 727 1433 727 1433 845 1433 c 0,32,33
 912 1433 912 1433 978 1419 c 128,-1,34
 1044 1405 1044 1405 1096.5 1383 c 128,-1,35
 1149 1361 1149 1361 1181.5 1334 c 128,-1,36
 1214 1307 1214 1307 1214 1282 c 0,37,38
 1214 1268 1214 1268 1205 1255.5 c 128,-1,39
 1196 1243 1196 1243 1179 1243 c 0,40,41
 1168 1243 1168 1243 1155 1249 c 128,-1,42
 1142 1255 1142 1255 1128 1267 c 0,43,44
 1092 1300 1092 1300 1024 1326 c 128,-1,45
 956 1352 956 1352 869 1358 c 1,46,-1
 869 763 l 1,47,-1
 969 763 l 2,48,49
 1001 763 1001 763 1027.5 763.5 c 128,-1,50
 1054 764 1054 764 1071 766 c 0,51,52
 1086 768 1086 768 1099.5 769 c 128,-1,53
 1113 770 1113 770 1130 770 c 0,54,55
 1156 770 1156 770 1171 758 c 128,-1,56
 1186 746 1186 746 1186 725 c 0,57,58
 1186 707 1186 707 1170.5 694 c 128,-1,59
 1155 681 1155 681 1125 681 c 0,60,61
 1108 681 1108 681 1092.5 682 c 128,-1,62
 1077 683 1077 683 1060 685 c 0,63,64
 1028 688 1028 688 982 688 c 2,65,-1
 869 688 l 1,66,67
 867 534 867 534 816 402 c 128,-1,68
 765 270 765 270 677 173 c 1,69,70
 743 135 743 135 794 112 c 128,-1,71
 845 89 845 89 885.5 76.5 c 128,-1,72
 926 64 926 64 957.5 59.5 c 128,-1,73
 989 55 989 55 1017 55 c 0,74,75
 1047 55 1047 55 1077.5 62 c 128,-1,76
 1108 69 1108 69 1135.5 83.5 c 128,-1,77
 1163 98 1163 98 1185 119 c 128,-1,78
 1207 140 1207 140 1221 167 c 0,79,80
 1236 196 1236 196 1246 205 c 128,-1,81
 1256 214 1256 214 1273 214 c 0,82,83
 1287 214 1287 214 1299 203.5 c 128,-1,84
 1311 193 1311 193 1311 173 c 0,85,86
 1311 142 1311 142 1284.5 103 c 128,-1,87
 1258 64 1258 64 1214 35 c 0,88,89
 1174 9 1174 9 1122 -5 c 128,-1,90
 1070 -19 1070 -19 1013 -19 c 0,91,92
 969 -19 969 -19 928.5 -13 c 128,-1,93
 888 -7 888 -7 843 9 c 128,-1,94
 798 25 798 25 744.5 51 c 128,-1,95
 691 77 691 77 621 118 c 1,96,97
 546 53 546 53 455 17 c 128,-1,98
 364 -19 364 -19 262 -19 c 0,99,100
 201 -19 201 -19 154.5 -4 c 128,-1,101
 108 11 108 11 77 37.5 c 128,-1,102
 46 64 46 64 30.5 100 c 128,-1,103
 15 136 15 136 15 178 c 256,0,1
93 181 m 0,104,105
 93 152 93 152 104.5 129 c 128,-1,106
 116 106 116 106 134.5 89.5 c 128,-1,107
 153 73 153 73 177 64 c 128,-1,108
 201 55 201 55 226 55 c 0,109,110
 295 55 295 55 326.5 100.5 c 128,-1,111
 358 146 358 146 358 246 c 2,112,-1
 358 265 l 1,113,114
 317 283 317 283 283.5 291 c 128,-1,115
 250 299 250 299 217 299 c 0,116,117
 159 299 159 299 126 266.5 c 128,-1,118
 93 234 93 234 93 181 c 0,104,105
EndSplineSet
EndChar

StartChar: currency
Encoding: 164 164 102
Width: 1394
Flags: W
LayerCount: 2
Fore
SplineSet
187 35 m 0,0,1
 188 45 188 45 194.5 60 c 128,-1,2
 201 75 201 75 215.5 97 c 128,-1,3
 230 119 230 119 253.5 149.5 c 128,-1,4
 277 180 277 180 313 220 c 1,5,-1
 365 275 l 1,6,7
 308 338 308 338 276.5 417.5 c 128,-1,8
 245 497 245 497 245 588 c 0,9,10
 245 670 245 670 271 744 c 128,-1,11
 297 818 297 818 345 878 c 1,12,-1
 275 941 l 2,13,14
 262 952 262 952 247 963.5 c 128,-1,15
 232 975 232 975 217.5 985.5 c 128,-1,16
 203 996 203 996 190 1004 c 128,-1,17
 177 1012 177 1012 169 1015 c 1,18,19
 138 1032 138 1032 128 1046 c 128,-1,20
 118 1060 118 1060 119 1075 c 0,21,22
 120 1091 120 1091 130.5 1103.5 c 128,-1,23
 141 1116 141 1116 162 1115 c 0,24,25
 171 1114 171 1114 186 1107.5 c 128,-1,26
 201 1101 201 1101 222.5 1087 c 128,-1,27
 244 1073 244 1073 274.5 1049 c 128,-1,28
 305 1025 305 1025 346 990 c 1,29,-1
 401 937 l 1,30,31
 464 994 464 994 544 1026 c 128,-1,32
 624 1058 624 1058 715 1058 c 0,33,34
 813 1058 813 1058 898.5 1021 c 128,-1,35
 984 984 984 984 1048 919 c 1,36,-1
 1107 985 l 2,37,38
 1118 998 1118 998 1129.5 1013 c 128,-1,39
 1141 1028 1141 1028 1151.5 1042.5 c 128,-1,40
 1162 1057 1162 1057 1170 1070 c 128,-1,41
 1178 1083 1178 1083 1182 1092 c 0,42,43
 1198 1123 1198 1123 1211.5 1133.5 c 128,-1,44
 1225 1144 1225 1144 1241 1143 c 0,45,46
 1256 1142 1256 1142 1269 1131 c 128,-1,47
 1282 1120 1282 1120 1280 1099 c 0,48,49
 1280 1089 1280 1089 1273.5 1074.5 c 128,-1,50
 1267 1060 1267 1060 1253 1038 c 128,-1,51
 1239 1016 1239 1016 1215 985.5 c 128,-1,52
 1191 955 1191 955 1156 915 c 1,53,-1
 1100 856 l 1,54,55
 1140 799 1140 799 1162.5 731 c 128,-1,56
 1185 663 1185 663 1185 588 c 0,57,58
 1185 480 1185 480 1140 388 c 128,-1,59
 1095 296 1095 296 1018 231 c 1,60,-1
 1084 173 l 2,61,62
 1097 162 1097 162 1112 150 c 128,-1,63
 1127 138 1127 138 1142 127.5 c 128,-1,64
 1157 117 1157 117 1170 109 c 128,-1,65
 1183 101 1183 101 1192 97 c 0,66,67
 1222 81 1222 81 1232.5 67 c 128,-1,68
 1243 53 1243 53 1242 37 c 0,69,70
 1241 23 1241 23 1230 10 c 128,-1,71
 1219 -3 1219 -3 1199 -1 c 0,72,73
 1189 -1 1189 -1 1174 5.5 c 128,-1,74
 1159 12 1159 12 1137 26.5 c 128,-1,75
 1115 41 1115 41 1084.5 64.5 c 128,-1,76
 1054 88 1054 88 1014 124 c 1,77,-1
 951 183 l 1,78,79
 898 153 898 153 839 136.5 c 128,-1,80
 780 120 780 120 715 120 c 0,81,82
 632 120 632 120 558.5 146.5 c 128,-1,83
 485 173 485 173 425 220 c 1,84,-1
 362 150 l 2,85,86
 351 138 351 138 339 123 c 128,-1,87
 327 108 327 108 316.5 93 c 128,-1,88
 306 78 306 78 298 64.5 c 128,-1,89
 290 51 290 51 286 42 c 0,90,91
 271 12 271 12 256.5 1.5 c 128,-1,92
 242 -9 242 -9 226 -8 c 0,93,94
 211 -7 211 -7 198.5 4 c 128,-1,95
 186 15 186 15 187 35 c 0,0,1
319 588 m 256,96,97
 319 506 319 506 350 434 c 128,-1,98
 381 362 381 362 434.5 308 c 128,-1,99
 488 254 488 254 560 223 c 128,-1,100
 632 192 632 192 715 192 c 0,101,102
 797 192 797 192 869.5 223 c 128,-1,103
 942 254 942 254 996 308 c 128,-1,104
 1050 362 1050 362 1081 434 c 128,-1,105
 1112 506 1112 506 1112 588 c 256,106,107
 1112 670 1112 670 1081 742.5 c 128,-1,108
 1050 815 1050 815 996 869 c 128,-1,109
 942 923 942 923 869.5 954.5 c 128,-1,110
 797 986 797 986 715 986 c 0,111,112
 632 986 632 986 560 954.5 c 128,-1,113
 488 923 488 923 434.5 869 c 128,-1,114
 381 815 381 815 350 742.5 c 128,-1,115
 319 670 319 670 319 588 c 256,96,97
EndSplineSet
EndChar

StartChar: yen
Encoding: 165 165 103
Width: 1322
Flags: W
LayerCount: 2
Fore
SplineSet
229 374 m 0,0,1
 205 374 205 374 188.5 387 c 128,-1,2
 172 400 172 400 172 418 c 0,3,4
 172 438 172 438 187.5 450 c 128,-1,5
 203 462 203 462 229 462 c 0,6,7
 256 462 256 462 289 459 c 0,8,9
 309 457 309 457 329 455 c 128,-1,10
 349 453 349 453 371 453 c 2,11,-1
 632 453 l 1,12,-1
 512 645 l 1,13,-1
 379 645 l 2,14,15
 358 645 358 645 339.5 645 c 128,-1,16
 321 645 321 645 304 643 c 1,17,18
 284 642 284 642 267.5 640.5 c 128,-1,19
 251 639 251 639 229 639 c 0,20,21
 205 639 205 639 188.5 651.5 c 128,-1,22
 172 664 172 664 172 682 c 0,23,24
 172 704 172 704 187.5 715 c 128,-1,25
 203 726 203 726 229 726 c 0,26,27
 256 726 256 726 289 723 c 0,28,29
 309 721 309 721 329 719.5 c 128,-1,30
 349 718 349 718 371 718 c 2,31,-1
 466 718 l 1,32,-1
 31 1415 l 1,33,-1
 580 1415 l 1,34,-1
 916 862 l 1,35,-1
 1116 1217 l 2,36,37
 1123 1230 1123 1230 1134 1250.5 c 128,-1,38
 1145 1271 1145 1271 1156.5 1293.5 c 128,-1,39
 1168 1316 1168 1316 1177.5 1337 c 128,-1,40
 1187 1358 1187 1358 1193 1373 c 0,41,42
 1204 1401 1204 1401 1216.5 1413.5 c 128,-1,43
 1229 1426 1229 1426 1248 1426 c 0,44,45
 1266 1426 1266 1426 1278 1416.5 c 128,-1,46
 1290 1407 1290 1407 1290 1389 c 0,47,48
 1290 1380 1290 1380 1287.5 1370.5 c 128,-1,49
 1285 1361 1285 1361 1279.5 1348 c 128,-1,50
 1274 1335 1274 1335 1264 1317.5 c 128,-1,51
 1254 1300 1254 1300 1239 1273 c 2,52,-1
 927 718 l 1,53,-1
 990 718 l 2,54,55
 1022 718 1022 718 1048.5 719.5 c 128,-1,56
 1075 721 1075 721 1091 723 c 0,57,58
 1106 725 1106 725 1119.5 725.5 c 128,-1,59
 1133 726 1133 726 1150 726 c 0,60,61
 1176 726 1176 726 1191 715 c 128,-1,62
 1206 704 1206 704 1206 682 c 0,63,64
 1206 664 1206 664 1190.5 651.5 c 128,-1,65
 1175 639 1175 639 1146 639 c 0,66,67
 1129 639 1129 639 1113.5 640 c 128,-1,68
 1098 641 1098 641 1081 643 c 0,69,70
 1064 644 1064 644 1045.5 644.5 c 128,-1,71
 1027 645 1027 645 1003 645 c 2,72,-1
 886 645 l 1,73,-1
 778 453 l 1,74,-1
 990 453 l 2,75,76
 1022 453 1022 453 1048.5 455 c 128,-1,77
 1075 457 1075 457 1091 459 c 0,78,79
 1106 461 1106 461 1119.5 461.5 c 128,-1,80
 1133 462 1133 462 1150 462 c 0,81,82
 1176 462 1176 462 1191 450 c 128,-1,83
 1206 438 1206 438 1206 418 c 0,84,85
 1206 400 1206 400 1190.5 387 c 128,-1,86
 1175 374 1175 374 1146 374 c 0,87,88
 1129 374 1129 374 1113.5 375 c 128,-1,89
 1098 376 1098 376 1081 378 c 0,90,91
 1064 379 1064 379 1045.5 379.5 c 128,-1,92
 1027 380 1027 380 1003 380 c 2,93,-1
 737 380 l 1,94,-1
 615 163 l 2,95,96
 605 145 605 145 595.5 126.5 c 128,-1,97
 586 108 586 108 577.5 91.5 c 128,-1,98
 569 75 569 75 563 62.5 c 128,-1,99
 557 50 557 50 554 44 c 0,100,101
 544 22 544 22 529 5.5 c 128,-1,102
 514 -11 514 -11 485 -11 c 0,103,104
 467 -11 467 -11 453.5 1 c 128,-1,105
 440 13 440 13 440 33 c 0,106,107
 440 46 440 46 446 61 c 128,-1,108
 452 76 452 76 471 99 c 1,109,110
 488 118 488 118 511.5 151.5 c 128,-1,111
 535 185 535 185 564 235 c 2,112,-1
 645 380 l 1,113,-1
 379 380 l 2,114,115
 358 380 358 380 339.5 380 c 128,-1,116
 321 380 321 380 304 378 c 1,117,118
 284 377 284 377 267.5 375.5 c 128,-1,119
 251 374 251 374 229 374 c 0,0,1
EndSplineSet
EndChar

StartChar: brokenbar
Encoding: 166 166 104
Width: 458
Flags: W
LayerCount: 2
Fore
SplineSet
225 666 m 256,0,1
 205 666 205 666 193.5 679.5 c 128,-1,2
 182 693 182 693 182 714 c 0,3,4
 182 725 182 725 184.5 738.5 c 128,-1,5
 187 752 187 752 190 766 c 1,6,7
 192 783 192 783 193 820.5 c 128,-1,8
 194 858 194 858 194 913 c 2,9,-1
 194 1213 l 2,10,11
 194 1258 194 1258 193 1284 c 128,-1,12
 192 1310 192 1310 190.5 1326 c 128,-1,13
 189 1342 189 1342 188 1352 c 128,-1,14
 187 1362 187 1362 187 1376 c 0,15,16
 187 1402 187 1402 198.5 1414 c 128,-1,17
 210 1426 210 1426 227 1426 c 256,18,19
 244 1426 244 1426 259.5 1414 c 128,-1,20
 275 1402 275 1402 275 1373 c 0,21,22
 275 1359 275 1359 274.5 1349.5 c 128,-1,23
 274 1340 274 1340 273 1327.5 c 128,-1,24
 272 1315 272 1315 271.5 1296.5 c 128,-1,25
 271 1278 271 1278 271 1246 c 2,26,-1
 271 822 l 2,27,28
 271 794 271 794 271.5 777.5 c 128,-1,29
 272 761 272 761 272.5 751 c 128,-1,30
 273 741 273 741 273.5 735 c 128,-1,31
 274 729 274 729 274 722 c 0,32,33
 274 695 274 695 259.5 680.5 c 128,-1,34
 245 666 245 666 225 666 c 256,0,1
194 209 m 2,35,36
 194 254 194 254 193 280 c 128,-1,37
 192 306 192 306 190.5 321.5 c 128,-1,38
 189 337 189 337 188 347 c 128,-1,39
 187 357 187 357 187 371 c 0,40,41
 187 397 187 397 198.5 409 c 128,-1,42
 210 421 210 421 227 421 c 256,43,44
 244 421 244 421 259.5 409.5 c 128,-1,45
 275 398 275 398 275 369 c 0,46,47
 275 355 275 355 274.5 345.5 c 128,-1,48
 274 336 274 336 273 323.5 c 128,-1,49
 272 311 272 311 271.5 292 c 128,-1,50
 271 273 271 273 271 242 c 2,51,-1
 271 -182 l 2,52,53
 271 -211 271 -211 271.5 -227.5 c 128,-1,54
 272 -244 272 -244 272.5 -254 c 128,-1,55
 273 -264 273 -264 273.5 -270 c 128,-1,56
 274 -276 274 -276 274 -282 c 0,57,58
 274 -309 274 -309 259.5 -323.5 c 128,-1,59
 245 -338 245 -338 225 -338 c 256,60,61
 205 -338 205 -338 193.5 -324.5 c 128,-1,62
 182 -311 182 -311 182 -291 c 0,63,64
 182 -279 182 -279 184.5 -266 c 128,-1,65
 187 -253 187 -253 190 -237 c 0,66,67
 192 -221 192 -221 193 -184 c 128,-1,68
 194 -147 194 -147 194 -91 c 2,69,-1
 194 209 l 2,35,36
EndSplineSet
EndChar

StartChar: section
Encoding: 167 167 105
Width: 1209
Flags: W
LayerCount: 2
Fore
SplineSet
263 -5 m 0,0,1
 263 10 263 10 273 22.5 c 128,-1,2
 283 35 283 35 303 35 c 0,3,4
 317 35 317 35 328 27.5 c 128,-1,5
 339 20 339 20 354 7 c 0,6,7
 399 -33 399 -33 460.5 -54 c 128,-1,8
 522 -75 522 -75 591 -75 c 0,9,10
 636 -75 636 -75 671 -66 c 128,-1,11
 706 -57 706 -57 729 -42.5 c 128,-1,12
 752 -28 752 -28 764 -9.5 c 128,-1,13
 776 9 776 9 776 28 c 0,14,15
 776 49 776 49 768 70.5 c 128,-1,16
 760 92 760 92 730 120 c 128,-1,17
 700 148 700 148 642 186.5 c 128,-1,18
 584 225 584 225 484 279 c 0,19,20
 402 324 402 324 345.5 366 c 128,-1,21
 289 408 289 408 254 450 c 128,-1,22
 219 492 219 492 203.5 534.5 c 128,-1,23
 188 577 188 577 188 622 c 0,24,25
 188 716 188 716 254.5 794 c 128,-1,26
 321 872 321 872 448 923 c 1,27,28
 371 972 371 972 324 1013.5 c 128,-1,29
 277 1055 277 1055 251 1094.5 c 128,-1,30
 225 1134 225 1134 216 1173 c 128,-1,31
 207 1212 207 1212 207 1256 c 0,32,33
 207 1310 207 1310 241 1362 c 128,-1,34
 275 1414 275 1414 335 1454 c 128,-1,35
 395 1494 395 1494 477 1518.5 c 128,-1,36
 559 1543 559 1543 655 1543 c 0,37,38
 715 1543 715 1543 771.5 1529 c 128,-1,39
 828 1515 828 1515 872 1493.5 c 128,-1,40
 916 1472 916 1472 942.5 1447 c 128,-1,41
 969 1422 969 1422 969 1400 c 0,42,43
 969 1386 969 1386 958 1373 c 128,-1,44
 947 1360 947 1360 927 1360 c 0,45,46
 914 1360 914 1360 903 1367.5 c 128,-1,47
 892 1375 892 1375 878 1388 c 0,48,49
 832 1427 832 1427 775 1448.5 c 128,-1,50
 718 1470 718 1470 649 1470 c 0,51,52
 599 1470 599 1470 563.5 1462.5 c 128,-1,53
 528 1455 528 1455 505.5 1442 c 128,-1,54
 483 1429 483 1429 473 1412 c 128,-1,55
 463 1395 463 1395 463 1376 c 0,56,57
 463 1350 463 1350 474.5 1324.5 c 128,-1,58
 486 1299 486 1299 511.5 1272.5 c 128,-1,59
 537 1246 537 1246 576.5 1218.5 c 128,-1,60
 616 1191 616 1191 673 1160 c 0,61,62
 791 1095 791 1095 865 1044.5 c 128,-1,63
 939 994 939 994 980.5 949.5 c 128,-1,64
 1022 905 1022 905 1036.5 863 c 128,-1,65
 1051 821 1051 821 1051 774 c 0,66,67
 1051 679 1051 679 985 601.5 c 128,-1,68
 919 524 919 524 794 473 c 1,69,70
 858 433 858 433 903.5 396 c 128,-1,71
 949 359 949 359 977.5 321.5 c 128,-1,72
 1006 284 1006 284 1019 245 c 128,-1,73
 1032 206 1032 206 1032 163 c 0,74,75
 1032 103 1032 103 998.5 47 c 128,-1,76
 965 -9 965 -9 906 -52.5 c 128,-1,77
 847 -96 847 -96 764.5 -122 c 128,-1,78
 682 -148 682 -148 585 -148 c 0,79,80
 528 -148 528 -148 471 -134.5 c 128,-1,81
 414 -121 414 -121 367.5 -100 c 128,-1,82
 321 -79 321 -79 292 -53.5 c 128,-1,83
 263 -28 263 -28 263 -5 c 0,0,1
714 520 m 1,84,85
 769 542 769 542 790 569.5 c 128,-1,86
 811 597 811 597 811 627 c 0,87,88
 811 651 811 651 803.5 672 c 128,-1,89
 796 693 796 693 770.5 718 c 128,-1,90
 745 743 745 743 697.5 774.5 c 128,-1,91
 650 806 650 806 570 851 c 2,92,-1
 530 873 l 1,93,94
 475 851 475 851 452 825 c 128,-1,95
 429 799 429 799 429 775 c 0,96,97
 429 755 429 755 438.5 732.5 c 128,-1,98
 448 710 448 710 478 680 c 128,-1,99
 508 650 508 650 564 611 c 128,-1,100
 620 572 620 572 714 520 c 1,84,85
EndSplineSet
EndChar

StartChar: dieresis
Encoding: 168 168 106
Width: 1037
Flags: W
LayerCount: 2
Fore
SplineSet
768 1232 m 0,0,1
 729 1232 729 1232 697 1242 c 128,-1,2
 665 1252 665 1252 642 1269 c 128,-1,3
 619 1286 619 1286 606.5 1309 c 128,-1,4
 594 1332 594 1332 594 1359 c 0,5,6
 594 1384 594 1384 604.5 1407 c 128,-1,7
 615 1430 615 1430 636.5 1447.5 c 128,-1,8
 658 1465 658 1465 692 1475 c 128,-1,9
 726 1485 726 1485 773 1485 c 0,10,11
 814 1485 814 1485 846.5 1474.5 c 128,-1,12
 879 1464 879 1464 901 1446 c 128,-1,13
 923 1428 923 1428 934.5 1404 c 128,-1,14
 946 1380 946 1380 946 1353 c 0,15,16
 946 1301 946 1301 898.5 1266.5 c 128,-1,17
 851 1232 851 1232 768 1232 c 0,0,1
266 1232 m 0,18,19
 227 1232 227 1232 195 1242 c 128,-1,20
 163 1252 163 1252 139.5 1269 c 128,-1,21
 116 1286 116 1286 103.5 1309 c 128,-1,22
 91 1332 91 1332 91 1359 c 0,23,24
 91 1384 91 1384 101.5 1407 c 128,-1,25
 112 1430 112 1430 134 1447.5 c 128,-1,26
 156 1465 156 1465 189.5 1475 c 128,-1,27
 223 1485 223 1485 270 1485 c 0,28,29
 312 1485 312 1485 344 1474.5 c 128,-1,30
 376 1464 376 1464 398 1446 c 128,-1,31
 420 1428 420 1428 431.5 1404 c 128,-1,32
 443 1380 443 1380 443 1353 c 0,33,34
 443 1301 443 1301 396 1266.5 c 128,-1,35
 349 1232 349 1232 266 1232 c 0,18,19
EndSplineSet
EndChar

StartChar: copyright
Encoding: 169 169 107
Width: 1303
Flags: W
LayerCount: 2
Fore
SplineSet
649 441 m 0,0,1
 518 441 518 441 414 484.5 c 128,-1,2
 310 528 310 528 236.5 602.5 c 128,-1,3
 163 677 163 677 124 777 c 128,-1,4
 85 877 85 877 85 990 c 0,5,6
 85 1105 85 1105 125.5 1206 c 128,-1,7
 166 1307 166 1307 240.5 1382.5 c 128,-1,8
 315 1458 315 1458 419.5 1502 c 128,-1,9
 524 1546 524 1546 653 1546 c 0,10,11
 783 1546 783 1546 887.5 1502.5 c 128,-1,12
 992 1459 992 1459 1065.5 1384.5 c 128,-1,13
 1139 1310 1139 1310 1178 1210 c 128,-1,14
 1217 1110 1217 1110 1217 997 c 0,15,16
 1217 882 1217 882 1176.5 781 c 128,-1,17
 1136 680 1136 680 1061.5 604.5 c 128,-1,18
 987 529 987 529 882.5 485 c 128,-1,19
 778 441 778 441 649 441 c 0,0,1
651 515 m 0,20,21
 747 515 747 515 835 547 c 128,-1,22
 923 579 923 579 990 640.5 c 128,-1,23
 1057 702 1057 702 1096.5 791 c 128,-1,24
 1136 880 1136 880 1136 994 c 0,25,26
 1136 1102 1136 1102 1100 1190 c 128,-1,27
 1064 1278 1064 1278 999.5 1341 c 128,-1,28
 935 1404 935 1404 846 1438.5 c 128,-1,29
 757 1473 757 1473 650 1473 c 1,30,-1
 651 1472 l 1,31,32
 555 1472 555 1472 467 1440 c 128,-1,33
 379 1408 379 1408 312 1346.5 c 128,-1,34
 245 1285 245 1285 205.5 1196 c 128,-1,35
 166 1107 166 1107 166 993 c 0,36,37
 166 885 166 885 202 797 c 128,-1,38
 238 709 238 709 302 646 c 128,-1,39
 366 583 366 583 455 549 c 128,-1,40
 544 515 544 515 651 515 c 0,20,21
675 691 m 0,41,42
 607 691 607 691 547 713.5 c 128,-1,43
 487 736 487 736 442 777 c 128,-1,44
 397 818 397 818 371 876.5 c 128,-1,45
 345 935 345 935 345 1007 c 0,46,47
 345 1074 345 1074 371.5 1130 c 128,-1,48
 398 1186 398 1186 444.5 1226 c 128,-1,49
 491 1266 491 1266 552.5 1288.5 c 128,-1,50
 614 1311 614 1311 685 1311 c 0,51,52
 758 1311 758 1311 821 1282 c 0,53,54
 860 1265 860 1265 877 1247 c 128,-1,55
 894 1229 894 1229 894 1212 c 0,56,57
 894 1178 894 1178 861 1178 c 0,58,59
 851 1178 851 1178 839 1182.5 c 128,-1,60
 827 1187 827 1187 804 1203 c 0,61,62
 776 1223 776 1223 747.5 1230.5 c 128,-1,63
 719 1238 719 1238 679 1238 c 0,64,65
 658 1238 658 1238 630 1233 c 1,66,-1
 630 769 l 1,67,68
 645 767 645 767 659.5 765.5 c 128,-1,69
 674 764 674 764 684 764 c 0,70,71
 733 764 733 764 768 776.5 c 128,-1,72
 803 789 803 789 830 814 c 0,73,74
 841 825 841 825 851.5 831.5 c 128,-1,75
 862 838 862 838 874 838 c 0,76,77
 889 838 889 838 899 830 c 128,-1,78
 909 822 909 822 909 806 c 0,79,80
 909 791 909 791 896 773 c 128,-1,81
 883 755 883 755 853 735 c 0,82,83
 822 714 822 714 780 702.5 c 128,-1,84
 738 691 738 691 675 691 c 0,41,42
EndSplineSet
EndChar

StartChar: ordfeminine
Encoding: 170 170 108
Width: 808
Flags: W
LayerCount: 2
Fore
SplineSet
328 816 m 0,0,1
 268 816 268 816 220.5 831 c 128,-1,2
 173 846 173 846 140.5 873.5 c 128,-1,3
 108 901 108 901 90.5 939 c 128,-1,4
 73 977 73 977 73 1022 c 0,5,6
 73 1068 73 1068 91.5 1104.5 c 128,-1,7
 110 1141 110 1141 144.5 1166.5 c 128,-1,8
 179 1192 179 1192 228 1205 c 128,-1,9
 277 1218 277 1218 338 1218 c 0,10,11
 373 1218 373 1218 408.5 1211.5 c 128,-1,12
 444 1205 444 1205 478 1191 c 1,13,-1
 478 1353 l 1,14,15
 457 1358 457 1358 433 1361 c 128,-1,16
 409 1364 409 1364 386 1364 c 0,17,18
 326 1364 326 1364 279.5 1349.5 c 128,-1,19
 233 1335 233 1335 210 1310 c 0,20,21
 200 1299 200 1299 188 1296 c 128,-1,22
 176 1293 176 1293 171 1293 c 0,23,24
 152 1293 152 1293 142.5 1303.5 c 128,-1,25
 133 1314 133 1314 133 1329 c 0,26,27
 133 1348 133 1348 155.5 1367 c 128,-1,28
 178 1386 178 1386 221 1402 c 1,29,30
 270 1422 270 1422 316 1427.5 c 128,-1,31
 362 1433 362 1433 402 1433 c 0,32,33
 453 1433 453 1433 506 1424 c 128,-1,34
 559 1415 559 1415 601 1394 c 0,35,36
 631 1379 631 1379 652.5 1359.5 c 128,-1,37
 674 1340 674 1340 688.5 1312.5 c 128,-1,38
 703 1285 703 1285 709.5 1248.5 c 128,-1,39
 716 1212 716 1212 716 1163 c 2,40,-1
 716 826 l 1,41,-1
 478 826 l 1,42,-1
 478 859 l 1,43,44
 440 837 440 837 401.5 826.5 c 128,-1,45
 363 816 363 816 328 816 c 0,0,1
319 890 m 1,46,47
 325 889 325 889 330 889 c 128,-1,48
 335 889 335 889 340 889 c 0,49,50
 377 889 377 889 410 898 c 128,-1,51
 443 907 443 907 478 930 c 1,52,-1
 478 1120 l 1,53,54
 445 1135 445 1135 414.5 1141 c 128,-1,55
 384 1147 384 1147 349 1147 c 0,56,57
 341 1147 341 1147 334 1146 c 128,-1,58
 327 1145 327 1145 319 1144 c 1,59,-1
 319 890 l 1,46,47
EndSplineSet
EndChar

StartChar: guillemotleft
Encoding: 171 171 109
Width: 1025
Flags: W
LayerCount: 2
Fore
SplineSet
529 699 m 1,0,1
 599 757 599 757 661.5 815 c 128,-1,2
 724 873 724 873 792 944 c 0,3,4
 814 968 814 968 828 981.5 c 128,-1,5
 842 995 842 995 851.5 1002.5 c 128,-1,6
 861 1010 861 1010 868 1012 c 128,-1,7
 875 1014 875 1014 884 1014 c 0,8,9
 899 1014 899 1014 912 1003.5 c 128,-1,10
 925 993 925 993 925 975 c 0,11,12
 925 958 925 958 912.5 943.5 c 128,-1,13
 900 929 900 929 869 905 c 0,14,15
 837 881 837 881 798 847 c 128,-1,16
 759 813 759 813 721 780 c 1,17,18
 695 755 695 755 672 733 c 128,-1,19
 649 711 649 711 629 694 c 1,20,-1
 896 494 l 1,21,-1
 896 53 l 1,22,-1
 529 380 l 1,23,-1
 529 699 l 1,0,1
100 699 m 1,24,25
 170 757 170 757 232.5 815 c 128,-1,26
 295 873 295 873 363 944 c 0,27,28
 385 968 385 968 399 981.5 c 128,-1,29
 413 995 413 995 422.5 1002.5 c 128,-1,30
 432 1010 432 1010 439 1012 c 128,-1,31
 446 1014 446 1014 455 1014 c 0,32,33
 470 1014 470 1014 483 1003.5 c 128,-1,34
 496 993 496 993 496 975 c 0,35,36
 496 958 496 958 483.5 943.5 c 128,-1,37
 471 929 471 929 440 905 c 0,38,39
 408 881 408 881 369 847 c 128,-1,40
 330 813 330 813 292 780 c 1,41,42
 266 755 266 755 243 733 c 128,-1,43
 220 711 220 711 200 694 c 1,44,-1
 467 494 l 1,45,-1
 467 53 l 1,46,-1
 100 380 l 1,47,-1
 100 699 l 1,24,25
EndSplineSet
EndChar

StartChar: logicalnot
Encoding: 172 172 110
Width: 1078
Flags: W
LayerCount: 2
Fore
SplineSet
130 521 m 0,0,1
 100 521 100 521 85.5 535.5 c 128,-1,2
 71 550 71 550 71 566 c 0,3,4
 71 584 71 584 83.5 596.5 c 128,-1,5
 96 609 96 609 119 609 c 0,6,7
 131 609 131 609 144 608.5 c 128,-1,8
 157 608 157 608 174 606 c 0,9,10
 188 604 188 604 198 603.5 c 128,-1,11
 208 603 208 603 218 602 c 128,-1,12
 228 601 228 601 240.5 601 c 128,-1,13
 253 601 253 601 271 601 c 2,14,-1
 890 601 l 2,15,16
 900 601 900 601 912.5 600 c 128,-1,17
 925 599 925 599 935.5 594 c 128,-1,18
 946 589 946 589 953.5 576.5 c 128,-1,19
 961 564 961 564 961 542 c 2,20,-1
 961 421 l 2,21,22
 961 371 961 371 961.5 340.5 c 128,-1,23
 962 310 962 310 964 281 c 0,24,25
 966 264 966 264 968 252.5 c 128,-1,26
 970 241 970 241 970 228 c 0,27,28
 970 211 970 211 958 198.5 c 128,-1,29
 946 186 946 186 926 186 c 0,30,31
 907 186 907 186 893.5 201 c 128,-1,32
 880 216 880 216 881 239 c 0,33,34
 882 248 882 248 883.5 267 c 128,-1,35
 885 286 885 286 886 303 c 0,36,37
 887 323 887 323 887.5 346 c 128,-1,38
 888 369 888 369 888 390 c 2,39,-1
 888 527 l 1,40,-1
 321 527 l 2,41,42
 307 527 307 527 285.5 527 c 128,-1,43
 264 527 264 527 243 526.5 c 128,-1,44
 222 526 222 526 204.5 525.5 c 128,-1,45
 187 525 187 525 181 525 c 0,46,47
 178 525 178 525 171 524 c 128,-1,48
 164 523 164 523 156.5 522.5 c 128,-1,49
 149 522 149 522 141.5 521.5 c 128,-1,50
 134 521 134 521 130 521 c 0,0,1
EndSplineSet
EndChar

StartChar: registered
Encoding: 174 174 111
Width: 1303
Flags: W
LayerCount: 2
Fore
SplineSet
649 441 m 0,0,1
 518 441 518 441 414 484.5 c 128,-1,2
 310 528 310 528 236.5 602.5 c 128,-1,3
 163 677 163 677 124 777 c 128,-1,4
 85 877 85 877 85 990 c 0,5,6
 85 1105 85 1105 125.5 1206 c 128,-1,7
 166 1307 166 1307 240.5 1382.5 c 128,-1,8
 315 1458 315 1458 419.5 1502 c 128,-1,9
 524 1546 524 1546 653 1546 c 0,10,11
 783 1546 783 1546 887.5 1502.5 c 128,-1,12
 992 1459 992 1459 1065.5 1384.5 c 128,-1,13
 1139 1310 1139 1310 1178 1210 c 128,-1,14
 1217 1110 1217 1110 1217 997 c 0,15,16
 1217 882 1217 882 1176.5 781 c 128,-1,17
 1136 680 1136 680 1061.5 604.5 c 128,-1,18
 987 529 987 529 882.5 485 c 128,-1,19
 778 441 778 441 649 441 c 0,0,1
651 515 m 0,20,21
 747 515 747 515 835 547 c 128,-1,22
 923 579 923 579 990 640.5 c 128,-1,23
 1057 702 1057 702 1096.5 791 c 128,-1,24
 1136 880 1136 880 1136 994 c 0,25,26
 1136 1102 1136 1102 1100 1190 c 128,-1,27
 1064 1278 1064 1278 999.5 1341 c 128,-1,28
 935 1404 935 1404 846 1438.5 c 128,-1,29
 757 1473 757 1473 650 1473 c 1,30,-1
 651 1472 l 1,31,32
 555 1472 555 1472 467 1440 c 128,-1,33
 379 1408 379 1408 312 1346.5 c 128,-1,34
 245 1285 245 1285 205.5 1196 c 128,-1,35
 166 1107 166 1107 166 993 c 0,36,37
 166 885 166 885 202 797 c 128,-1,38
 238 709 238 709 302 646 c 128,-1,39
 366 583 366 583 455 549 c 128,-1,40
 544 515 544 515 651 515 c 0,20,21
410 1316 m 1,41,-1
 634 1316 l 2,42,43
 784 1316 784 1316 861.5 1266.5 c 128,-1,44
 939 1217 939 1217 939 1111 c 0,45,46
 939 1074 939 1074 927 1040 c 128,-1,47
 915 1006 915 1006 893 978.5 c 128,-1,48
 871 951 871 951 840 931 c 128,-1,49
 809 911 809 911 770 902 c 1,50,51
 798 865 798 865 826 838.5 c 128,-1,52
 854 812 854 812 894 784 c 0,53,54
 912 771 912 771 922 761 c 128,-1,55
 932 751 932 751 932 737 c 0,56,57
 932 727 932 727 923 718.5 c 128,-1,58
 914 710 914 710 899 710 c 0,59,60
 882 710 882 710 861.5 720.5 c 128,-1,61
 841 731 841 731 807 763 c 1,62,63
 788 779 788 779 766 800.5 c 128,-1,64
 744 822 744 822 725.5 843.5 c 128,-1,65
 707 865 707 865 694.5 884.5 c 128,-1,66
 682 904 682 904 682 917 c 0,67,68
 682 932 682 932 692 944 c 128,-1,69
 702 956 702 956 731 961 c 0,70,71
 798 973 798 973 829.5 1011.5 c 128,-1,72
 861 1050 861 1050 861 1108 c 0,73,74
 861 1180 861 1180 806.5 1217.5 c 128,-1,75
 752 1255 752 1255 655 1252 c 0,76,77
 647 1251 647 1251 639 1251 c 128,-1,78
 631 1251 631 1251 624 1251 c 1,79,-1
 624 720 l 1,80,-1
 410 720 l 1,81,-1
 410 1316 l 1,41,-1
EndSplineSet
EndChar

StartChar: macron
Encoding: 175 175 112
Width: 904
Flags: W
LayerCount: 2
Fore
SplineSet
148 1329 m 0,0,1
 124 1329 124 1329 107.5 1342.5 c 128,-1,2
 91 1356 91 1356 91 1374 c 0,3,4
 91 1394 91 1394 106.5 1406 c 128,-1,5
 122 1418 122 1418 148 1418 c 0,6,7
 162 1418 162 1418 176.5 1417 c 128,-1,8
 191 1416 191 1416 208 1414 c 0,9,10
 226 1412 226 1412 246.5 1411 c 128,-1,11
 267 1410 267 1410 290 1410 c 2,12,-1
 597 1410 l 2,13,14
 629 1410 629 1410 655 1411 c 128,-1,15
 681 1412 681 1412 698 1414 c 0,16,17
 712 1416 712 1416 726 1417 c 128,-1,18
 740 1418 740 1418 756 1418 c 0,19,20
 782 1418 782 1418 797 1406 c 128,-1,21
 812 1394 812 1394 812 1374 c 0,22,23
 812 1356 812 1356 796.5 1343 c 128,-1,24
 781 1330 781 1330 752 1330 c 0,25,26
 735 1330 735 1330 720 1331 c 128,-1,27
 705 1332 705 1332 687 1334 c 0,28,29
 670 1336 670 1336 651.5 1337 c 128,-1,30
 633 1338 633 1338 609 1338 c 2,31,-1
 298 1338 l 2,32,33
 276 1338 276 1338 257.5 1337 c 128,-1,34
 239 1336 239 1336 222 1334 c 0,35,36
 204 1332 204 1332 186.5 1330.5 c 128,-1,37
 169 1329 169 1329 148 1329 c 0,0,1
EndSplineSet
EndChar

StartChar: degree
Encoding: 176 176 113
Width: 606
Flags: W
LayerCount: 2
Fore
SplineSet
303 1029 m 0,0,1
 258 1029 258 1029 219.5 1043.5 c 128,-1,2
 181 1058 181 1058 152.5 1084.5 c 128,-1,3
 124 1111 124 1111 107.5 1148.5 c 128,-1,4
 91 1186 91 1186 91 1232 c 0,5,6
 91 1275 91 1275 107 1311.5 c 128,-1,7
 123 1348 123 1348 151.5 1375 c 128,-1,8
 180 1402 180 1402 219.5 1417.5 c 128,-1,9
 259 1433 259 1433 305 1433 c 0,10,11
 349 1433 349 1433 387.5 1419 c 128,-1,12
 426 1405 426 1405 454.5 1378.5 c 128,-1,13
 483 1352 483 1352 499 1315 c 128,-1,14
 515 1278 515 1278 515 1232 c 0,15,16
 515 1187 515 1187 498 1149.5 c 128,-1,17
 481 1112 481 1112 452 1085.5 c 128,-1,18
 423 1059 423 1059 384.5 1044 c 128,-1,19
 346 1029 346 1029 303 1029 c 0,0,1
304 1101 m 0,20,21
 330 1101 330 1101 354 1109.5 c 128,-1,22
 378 1118 378 1118 396.5 1134 c 128,-1,23
 415 1150 415 1150 426 1174 c 128,-1,24
 437 1198 437 1198 437 1228 c 0,25,26
 437 1256 437 1256 427.5 1280.5 c 128,-1,27
 418 1305 418 1305 400 1323 c 128,-1,28
 382 1341 382 1341 357 1351 c 128,-1,29
 332 1361 332 1361 301 1361 c 0,30,31
 275 1361 275 1361 251 1351.5 c 128,-1,32
 227 1342 227 1342 209 1325 c 128,-1,33
 191 1308 191 1308 180 1284 c 128,-1,34
 169 1260 169 1260 169 1231 c 0,35,36
 169 1203 169 1203 180 1179.5 c 128,-1,37
 191 1156 191 1156 209.5 1138.5 c 128,-1,38
 228 1121 228 1121 252.5 1111 c 128,-1,39
 277 1101 277 1101 304 1101 c 0,20,21
EndSplineSet
EndChar

StartChar: plusminus
Encoding: 177 177 114
Width: 1035
Flags: W
LayerCount: 2
Fore
SplineSet
496 421 m 256,0,1
 476 421 476 421 462.5 435.5 c 128,-1,2
 449 450 449 450 451 474 c 0,3,4
 451 482 451 482 452 501.5 c 128,-1,5
 453 521 453 521 454 535 c 0,6,7
 455 558 455 558 455.5 580.5 c 128,-1,8
 456 603 456 603 456 624 c 2,9,-1
 456 782 l 1,10,-1
 300 782 l 2,11,12
 277 782 277 782 254 782 c 128,-1,13
 231 782 231 782 210 781 c 0,14,15
 196 780 196 780 176.5 778.5 c 128,-1,16
 157 777 157 777 149 776 c 0,17,18
 124 774 124 774 110.5 788 c 128,-1,19
 97 802 97 802 97 821 c 0,20,21
 97 841 97 841 108.5 852.5 c 128,-1,22
 120 864 120 864 138 864 c 0,23,24
 151 864 151 864 162 863.5 c 128,-1,25
 173 863 173 863 191 862 c 0,26,27
 205 861 205 861 215.5 860 c 128,-1,28
 226 859 226 859 236.5 858 c 128,-1,29
 247 857 247 857 260 856.5 c 128,-1,30
 273 856 273 856 292 856 c 2,31,-1
 456 856 l 1,32,-1
 456 1014 l 2,33,34
 456 1035 456 1035 455.5 1058 c 128,-1,35
 455 1081 455 1081 454 1102 c 0,36,37
 453 1116 453 1116 452 1136.5 c 128,-1,38
 451 1157 451 1157 451 1165 c 0,39,40
 449 1189 449 1189 462.5 1203 c 128,-1,41
 476 1217 476 1217 496 1217 c 256,42,43
 516 1217 516 1217 527.5 1205 c 128,-1,44
 539 1193 539 1193 539 1175 c 0,45,46
 539 1163 539 1163 538.5 1151 c 128,-1,47
 538 1139 538 1139 536 1121 c 0,48,49
 535 1107 535 1107 534 1096.5 c 128,-1,50
 533 1086 533 1086 532.5 1075.5 c 128,-1,51
 532 1065 532 1065 531.5 1052.5 c 128,-1,52
 531 1040 531 1040 531 1021 c 2,53,-1
 531 856 l 1,54,-1
 694 856 l 2,55,56
 713 856 713 856 726 856.5 c 128,-1,57
 739 857 739 857 750 858 c 128,-1,58
 761 859 761 859 772 860 c 128,-1,59
 783 861 783 861 797 862 c 0,60,61
 814 863 814 863 825.5 863.5 c 128,-1,62
 837 864 837 864 849 864 c 0,63,64
 867 864 867 864 880 852.5 c 128,-1,65
 893 841 893 841 893 821 c 0,66,67
 893 802 893 802 877.5 788 c 128,-1,68
 862 774 862 774 839 776 c 0,69,70
 831 777 831 777 811.5 778.5 c 128,-1,71
 792 780 792 780 777 781 c 0,72,73
 756 782 756 782 733 782 c 128,-1,74
 710 782 710 782 688 782 c 2,75,-1
 531 782 l 1,76,-1
 531 620 l 2,77,78
 531 601 531 601 531.5 587.5 c 128,-1,79
 532 574 532 574 532.5 563 c 128,-1,80
 533 552 533 552 534 541 c 128,-1,81
 535 530 535 530 536 516 c 0,82,83
 538 498 538 498 538.5 486.5 c 128,-1,84
 539 475 539 475 539 463 c 0,85,86
 539 445 539 445 527.5 433 c 128,-1,87
 516 421 516 421 496 421 c 256,0,1
169 248 m 0,88,89
 141 248 141 248 124 260.5 c 128,-1,90
 107 273 107 273 107 293 c 0,91,92
 107 316 107 316 126 326 c 128,-1,93
 145 336 145 336 166 336 c 0,94,95
 173 336 173 336 184 335 c 128,-1,96
 195 334 195 334 212 332 c 256,97,98
 229 330 229 330 249.5 329 c 128,-1,99
 270 328 270 328 308 328 c 2,100,-1
 711 328 l 2,101,102
 757 328 757 328 813 334 c 0,103,104
 831 336 831 336 840 336 c 128,-1,105
 849 336 849 336 857 336 c 0,106,107
 881 336 881 336 897.5 324 c 128,-1,108
 914 312 914 312 914 292 c 0,109,110
 914 273 914 273 896.5 261 c 128,-1,111
 879 249 879 249 853 249 c 0,112,113
 844 249 844 249 829 249.5 c 128,-1,114
 814 250 814 250 795 252 c 0,115,116
 751 255 751 255 705 255 c 2,117,-1
 316 255 l 2,118,119
 274 255 274 255 220 252 c 1,120,121
 210 250 210 250 195.5 249 c 128,-1,122
 181 248 181 248 169 248 c 0,88,89
EndSplineSet
EndChar

StartChar: twosuperior
Encoding: 178 178 115
Width: 805
Flags: W
LayerCount: 2
Fore
SplineSet
73 652 m 1,0,1
 76 683 76 683 87 719 c 128,-1,2
 98 755 98 755 122 803 c 128,-1,3
 146 851 146 851 185 914.5 c 128,-1,4
 224 978 224 978 283 1065 c 0,5,6
 331 1136 331 1136 359.5 1179 c 128,-1,7
 388 1222 388 1222 402 1247.5 c 128,-1,8
 416 1273 416 1273 420 1285.5 c 128,-1,9
 424 1298 424 1298 424 1309 c 0,10,11
 424 1338 424 1338 395.5 1352.5 c 128,-1,12
 367 1367 367 1367 319 1367 c 0,13,14
 295 1367 295 1367 270 1362 c 128,-1,15
 245 1357 245 1357 223 1348 c 128,-1,16
 201 1339 201 1339 182.5 1325.5 c 128,-1,17
 164 1312 164 1312 153 1296 c 0,18,19
 133 1269 133 1269 111 1269 c 0,20,21
 97 1269 97 1269 89 1279.5 c 128,-1,22
 81 1290 81 1290 81 1302 c 0,23,24
 81 1339 81 1339 149 1378 c 0,25,26
 193 1404 193 1404 246 1418.5 c 128,-1,27
 299 1433 299 1433 368 1433 c 0,28,29
 441 1433 441 1433 500.5 1417 c 128,-1,30
 560 1401 560 1401 602 1374 c 128,-1,31
 644 1347 644 1347 666.5 1311 c 128,-1,32
 689 1275 689 1275 689 1236 c 0,33,34
 689 1206 689 1206 685.5 1181.5 c 128,-1,35
 682 1157 682 1157 669 1124 c 128,-1,36
 656 1091 656 1091 631 1044 c 128,-1,37
 606 997 606 997 563 923 c 0,38,39
 540 885 540 885 523 855 c 128,-1,40
 506 825 506 825 494 801 c 128,-1,41
 482 777 482 777 474 757.5 c 128,-1,42
 466 738 466 738 460 720 c 1,43,-1
 566 720 l 2,44,45
 588 720 588 720 604 721 c 128,-1,46
 620 722 620 722 634 725 c 0,47,48
 645 727 645 727 655 728 c 128,-1,49
 665 729 665 729 670 729 c 0,50,51
 690 729 690 729 702 719 c 128,-1,52
 714 709 714 709 714 693 c 0,53,54
 714 652 714 652 616 652 c 2,55,-1
 73 652 l 1,56,-1
 73 652 l 1,0,1
EndSplineSet
EndChar

StartChar: threesuperior
Encoding: 179 179 116
Width: 835
Flags: W
LayerCount: 2
Fore
SplineSet
115 699 m 0,0,1
 89 717 89 717 72 741 c 128,-1,2
 55 765 55 765 55 784 c 0,3,4
 55 798 55 798 63 808.5 c 128,-1,5
 71 819 71 819 88 819 c 0,6,7
 115 819 115 819 133 785 c 1,8,9
 144 768 144 768 168 752 c 128,-1,10
 192 736 192 736 222.5 723.5 c 128,-1,11
 253 711 253 711 288.5 703.5 c 128,-1,12
 324 696 324 696 359 696 c 0,13,14
 370 696 370 696 379 696 c 128,-1,15
 388 696 388 696 396 698 c 1,16,-1
 396 1038 l 1,17,18
 386 1039 386 1039 376.5 1039 c 128,-1,19
 367 1039 367 1039 361 1039 c 0,20,21
 354 1039 354 1039 347.5 1038.5 c 128,-1,22
 341 1038 341 1038 336 1037 c 0,23,24
 328 1035 328 1035 316.5 1034 c 128,-1,25
 305 1033 305 1033 297 1033 c 0,26,27
 273 1033 273 1033 259 1043 c 128,-1,28
 245 1053 245 1053 245 1069 c 256,29,30
 245 1085 245 1085 257 1094.5 c 128,-1,31
 269 1104 269 1104 289 1104 c 0,32,33
 297 1104 297 1104 307.5 1103.5 c 128,-1,34
 318 1103 318 1103 326 1101 c 0,35,36
 345 1098 345 1098 362 1098 c 2,37,-1
 396 1098 l 1,38,-1
 396 1369 l 1,39,40
 388 1370 388 1370 379 1370.5 c 128,-1,41
 370 1371 370 1371 359 1371 c 0,42,43
 309 1371 309 1371 257.5 1358.5 c 128,-1,44
 206 1346 206 1346 172 1319 c 0,45,46
 161 1309 161 1309 150 1303.5 c 128,-1,47
 139 1298 139 1298 127 1298 c 0,48,49
 113 1298 113 1298 104 1306.5 c 128,-1,50
 95 1315 95 1315 95 1329 c 0,51,52
 95 1372 95 1372 203 1407 c 1,53,54
 233 1418 233 1418 283 1425.5 c 128,-1,55
 333 1433 333 1433 385 1433 c 0,56,57
 446 1433 446 1433 497.5 1425 c 128,-1,58
 549 1417 549 1417 584 1403 c 0,59,60
 647 1377 647 1377 676.5 1337.5 c 128,-1,61
 706 1298 706 1298 706 1251 c 0,62,63
 706 1159 706 1159 618 1101 c 0,64,65
 604 1091 604 1091 588.5 1084 c 128,-1,66
 573 1077 573 1077 556 1072 c 1,67,68
 595 1060 595 1060 626 1039.5 c 128,-1,69
 657 1019 657 1019 679.5 992.5 c 128,-1,70
 702 966 702 966 714 936.5 c 128,-1,71
 726 907 726 907 726 877 c 0,72,73
 726 815 726 815 687.5 762.5 c 128,-1,74
 649 710 649 710 587 677 c 0,75,76
 552 658 552 658 490 645.5 c 128,-1,77
 428 633 428 633 356 633 c 0,78,79
 288 633 288 633 226 648.5 c 128,-1,80
 164 664 164 664 115 699 c 0,0,1
437 1360 m 2,81,82
 433 1362 433 1362 431 1362 c 2,83,-1
 437 1360 l 2,81,82
EndSplineSet
EndChar

StartChar: acute
Encoding: 180 180 117
Width: 581
Flags: W
LayerCount: 2
Fore
SplineSet
319 1516 m 1,0,-1
 600 1516 l 1,1,-1
 357 1232 l 1,2,-1
 201 1232 l 1,3,-1
 319 1516 l 1,0,-1
EndSplineSet
EndChar

StartChar: mu
Encoding: 181 181 118
AltUni2: 0003bc.ffffffff.0
Width: 1264
Flags: W
LayerCount: 2
Fore
SplineSet
225 931 m 2,0,1
 225 974 225 974 223 996 c 128,-1,2
 221 1018 221 1018 221 1032 c 0,3,4
 221 1058 221 1058 236.5 1072 c 128,-1,5
 252 1086 252 1086 271 1086 c 0,6,7
 293 1086 293 1086 303.5 1073 c 128,-1,8
 314 1060 314 1060 314 1040 c 0,9,10
 314 1028 314 1028 312 1015 c 128,-1,11
 310 1002 310 1002 308 986 c 0,12,13
 305 969 305 969 304 932 c 128,-1,14
 303 895 303 895 303 840 c 2,15,-1
 303 403 l 2,16,17
 303 328 303 328 326.5 265.5 c 128,-1,18
 350 203 350 203 390 157.5 c 128,-1,19
 430 112 430 112 482 87 c 128,-1,20
 534 62 534 62 590 62 c 0,21,22
 636 62 636 62 679.5 75 c 128,-1,23
 723 88 723 88 763 115.5 c 128,-1,24
 803 143 803 143 837 185.5 c 128,-1,25
 871 228 871 228 897 286 c 1,26,-1
 897 862 l 2,27,28
 897 886 897 886 896.5 912.5 c 128,-1,29
 896 939 896 939 895.5 963.5 c 128,-1,30
 895 988 895 988 894.5 1006.5 c 128,-1,31
 894 1025 894 1025 894 1032 c 0,32,33
 894 1058 894 1058 909 1072 c 128,-1,34
 924 1086 924 1086 944 1086 c 256,35,36
 964 1086 964 1086 975.5 1073 c 128,-1,37
 987 1060 987 1060 987 1040 c 0,38,39
 987 1028 987 1028 984 1015 c 128,-1,40
 981 1002 981 1002 979 986 c 0,41,42
 976 969 976 969 975 932 c 128,-1,43
 974 895 974 895 974 840 c 2,44,-1
 974 256 l 2,45,46
 974 201 974 201 983.5 164 c 128,-1,47
 993 127 993 127 1008.5 104.5 c 128,-1,48
 1024 82 1024 82 1044 72.5 c 128,-1,49
 1064 63 1064 63 1084 63 c 0,50,51
 1095 63 1095 63 1107 66 c 128,-1,52
 1119 69 1119 69 1127 74 c 256,53,54
 1135 79 1135 79 1142.5 82 c 128,-1,55
 1150 85 1150 85 1159 85 c 0,56,57
 1176 85 1176 85 1185.5 75 c 128,-1,58
 1195 65 1195 65 1195 52 c 0,59,60
 1195 23 1195 23 1165.5 6 c 128,-1,61
 1136 -11 1136 -11 1088 -11 c 0,62,63
 930 -11 930 -11 902 163 c 1,64,65
 847 81 847 81 763.5 35 c 128,-1,66
 680 -11 680 -11 576 -11 c 0,67,68
 486 -11 486 -11 414.5 33.5 c 128,-1,69
 343 78 343 78 303 154 c 1,70,-1
 303 -41 l 2,71,72
 303 -86 303 -86 306.5 -118 c 128,-1,73
 310 -150 310 -150 317.5 -173.5 c 128,-1,74
 325 -197 325 -197 337 -214 c 128,-1,75
 349 -231 349 -231 367 -244 c 1,76,77
 384 -258 384 -258 390.5 -268.5 c 128,-1,78
 397 -279 397 -279 397 -296 c 256,79,80
 397 -313 397 -313 384.5 -325.5 c 128,-1,81
 372 -338 372 -338 351 -338 c 0,82,83
 314 -338 314 -338 280 -304 c 128,-1,84
 246 -270 246 -270 233 -193 c 0,85,86
 231 -179 231 -179 229.5 -159 c 128,-1,87
 228 -139 228 -139 227 -116 c 128,-1,88
 226 -93 226 -93 225.5 -69.5 c 128,-1,89
 225 -46 225 -46 225 -25 c 2,90,-1
 225 931 l 2,0,1
EndSplineSet
EndChar

StartChar: paragraph
Encoding: 182 182 119
Width: 1088
Flags: W
LayerCount: 2
Fore
SplineSet
241 -25 m 0,0,1
 241 -13 241 -13 249 -3.5 c 128,-1,2
 257 6 257 6 274 6 c 0,3,4
 285 6 285 6 294.5 3 c 128,-1,5
 304 0 304 0 315 -5 c 0,6,7
 335 -13 335 -13 350.5 -16 c 128,-1,8
 366 -19 366 -19 388 -19 c 0,9,10
 433 -19 433 -19 469.5 -1 c 128,-1,11
 506 17 506 17 532 58.5 c 128,-1,12
 558 100 558 100 572 166.5 c 128,-1,13
 586 233 586 233 586 329 c 2,14,-1
 586 694 l 1,15,16
 475 695 475 695 384 722.5 c 128,-1,17
 293 750 293 750 227.5 799 c 128,-1,18
 162 848 162 848 126 915 c 128,-1,19
 90 982 90 982 90 1062 c 0,20,21
 90 1144 90 1144 117 1212.5 c 128,-1,22
 144 1281 144 1281 204 1330 c 128,-1,23
 264 1379 264 1379 360.5 1406 c 128,-1,24
 457 1433 457 1433 596 1433 c 2,25,-1
 835 1433 l 2,26,27
 861 1433 861 1433 878 1433.5 c 128,-1,28
 895 1434 895 1434 909 1435 c 256,29,30
 923 1436 923 1436 934 1437 c 128,-1,31
 945 1438 945 1438 959 1438 c 0,32,33
 980 1438 980 1438 996 1428 c 128,-1,34
 1012 1418 1012 1418 1012 1398 c 256,35,36
 1012 1378 1012 1378 996.5 1367 c 128,-1,37
 981 1356 981 1356 955 1356 c 0,38,39
 947 1356 947 1356 938 1356.5 c 128,-1,40
 929 1357 929 1357 913 1358 c 0,41,42
 902 1359 902 1359 888.5 1359.5 c 128,-1,43
 875 1360 875 1360 858 1360 c 2,44,-1
 837 1360 l 1,45,-1
 837 228 l 2,46,47
 837 174 837 174 838 136.5 c 128,-1,48
 839 99 839 99 842 81 c 0,49,50
 844 66 844 66 846.5 52.5 c 128,-1,51
 849 39 849 39 849 28 c 0,52,53
 849 8 849 8 838 -5.5 c 128,-1,54
 827 -19 827 -19 806 -19 c 0,55,56
 787 -19 787 -19 772 -4.5 c 128,-1,57
 757 10 757 10 757 36 c 0,58,59
 757 43 757 43 757.5 49 c 128,-1,60
 758 55 758 55 758.5 65 c 128,-1,61
 759 75 759 75 759.5 92 c 128,-1,62
 760 109 760 109 760 138 c 2,63,-1
 760 1359 l 1,64,-1
 664 1359 l 1,65,-1
 664 320 l 2,66,67
 664 213 664 213 645 135.5 c 128,-1,68
 626 58 626 58 589.5 7.5 c 128,-1,69
 553 -43 553 -43 499 -67 c 128,-1,70
 445 -91 445 -91 376 -91 c 0,71,72
 313 -91 313 -91 277 -71 c 128,-1,73
 241 -51 241 -51 241 -25 c 0,0,1
EndSplineSet
EndChar

StartChar: periodcentered
Encoding: 183 183 120
Width: 684
Flags: W
LayerCount: 2
Fore
SplineSet
326 517 m 0,0,1
 270 517 270 517 227.5 532.5 c 128,-1,2
 185 548 185 548 156 576.5 c 128,-1,3
 127 605 127 605 112 644.5 c 128,-1,4
 97 684 97 684 97 732 c 0,5,6
 97 771 97 771 114.5 807.5 c 128,-1,7
 132 844 132 844 163 872 c 128,-1,8
 194 900 194 900 237 917 c 128,-1,9
 280 934 280 934 332 934 c 0,10,11
 388 934 388 934 431 915 c 128,-1,12
 474 896 474 896 503.5 865 c 128,-1,13
 533 834 533 834 548 795 c 128,-1,14
 563 756 563 756 563 717 c 0,15,16
 563 675 563 675 545 638.5 c 128,-1,17
 527 602 527 602 495 575 c 128,-1,18
 463 548 463 548 420 532.5 c 128,-1,19
 377 517 377 517 326 517 c 0,0,1
EndSplineSet
EndChar

StartChar: cedilla
Encoding: 184 184 121
Width: 649
Flags: W
LayerCount: 2
Fore
SplineSet
131 -197 m 0,0,1
 148 -197 148 -197 158.5 -204.5 c 128,-1,2
 169 -212 169 -212 183 -224 c 0,3,4
 195 -234 195 -234 212 -241.5 c 128,-1,5
 229 -249 229 -249 249.5 -254.5 c 128,-1,6
 270 -260 270 -260 292 -262.5 c 128,-1,7
 314 -265 314 -265 336 -265 c 0,8,9
 410 -265 410 -265 446 -243.5 c 128,-1,10
 482 -222 482 -222 482 -199 c 0,11,12
 482 -177 482 -177 444.5 -160 c 128,-1,13
 407 -143 407 -143 327 -142 c 0,14,15
 292 -141 292 -141 278 -130 c 128,-1,16
 264 -119 264 -119 264 -87 c 2,17,-1
 264 21 l 1,18,-1
 342 21 l 1,19,-1
 342 -69 l 1,20,21
 400 -70 400 -70 441.5 -79.5 c 128,-1,22
 483 -89 483 -89 508.5 -105.5 c 128,-1,23
 534 -122 534 -122 546 -144.5 c 128,-1,24
 558 -167 558 -167 558 -194 c 0,25,26
 558 -223 558 -223 543 -249 c 128,-1,27
 528 -275 528 -275 499 -294.5 c 128,-1,28
 470 -314 470 -314 427.5 -326 c 128,-1,29
 385 -338 385 -338 330 -338 c 0,30,31
 295 -338 295 -338 256.5 -333.5 c 128,-1,32
 218 -329 218 -329 194 -321 c 0,33,34
 149 -306 149 -306 120 -283 c 128,-1,35
 91 -260 91 -260 91 -233 c 0,36,37
 91 -219 91 -219 101 -208 c 128,-1,38
 111 -197 111 -197 131 -197 c 0,0,1
EndSplineSet
EndChar

StartChar: onesuperior
Encoding: 185 185 122
Width: 641
Flags: W
LayerCount: 2
Fore
SplineSet
184 1279 m 1,0,-1
 162 1272 l 2,1,2
 136 1264 136 1264 123.5 1259 c 128,-1,3
 111 1254 111 1254 97 1249 c 1,4,5
 86 1244 86 1244 77 1241 c 128,-1,6
 68 1238 68 1238 58 1238 c 0,7,8
 41 1238 41 1238 30 1247 c 128,-1,9
 19 1256 19 1256 19 1271 c 0,10,11
 19 1285 19 1285 27.5 1295 c 128,-1,12
 36 1305 36 1305 65 1316 c 0,13,14
 70 1318 70 1318 82 1321.5 c 128,-1,15
 94 1325 94 1325 110 1329.5 c 128,-1,16
 126 1334 126 1334 143 1338.5 c 128,-1,17
 160 1343 160 1343 176 1347 c 2,18,-1
 522 1433 l 1,19,-1
 522 652 l 1,20,-1
 184 652 l 1,21,-1
 184 1279 l 1,0,-1
EndSplineSet
EndChar

StartChar: ordmasculine
Encoding: 186 186 123
Width: 799
Flags: W
LayerCount: 2
Fore
SplineSet
399 816 m 0,0,1
 331 816 331 816 273 839 c 128,-1,2
 215 862 215 862 172.5 903.5 c 128,-1,3
 130 945 130 945 105.5 1003 c 128,-1,4
 81 1061 81 1061 81 1131 c 0,5,6
 81 1194 81 1194 105 1249.5 c 128,-1,7
 129 1305 129 1305 171.5 1345.5 c 128,-1,8
 214 1386 214 1386 273 1409.5 c 128,-1,9
 332 1433 332 1433 402 1433 c 0,10,11
 474 1433 474 1433 532 1409 c 128,-1,12
 590 1385 590 1385 631 1343.5 c 128,-1,13
 672 1302 672 1302 694 1246 c 128,-1,14
 716 1190 716 1190 716 1126 c 0,15,16
 716 1057 716 1057 691 1000 c 128,-1,17
 666 943 666 943 623.5 902 c 128,-1,18
 581 861 581 861 523 838.5 c 128,-1,19
 465 816 465 816 399 816 c 0,0,1
401 889 m 2,20,21
 454 889 454 889 497 906.5 c 128,-1,22
 540 924 540 924 570.5 955.5 c 128,-1,23
 601 987 601 987 617.5 1030 c 128,-1,24
 634 1073 634 1073 634 1124 c 0,25,26
 634 1177 634 1177 616.5 1221 c 128,-1,27
 599 1265 599 1265 568 1296.5 c 128,-1,28
 537 1328 537 1328 494 1345 c 128,-1,29
 451 1362 451 1362 400 1362 c 0,30,31
 395 1362 395 1362 391.5 1362 c 128,-1,32
 388 1362 388 1362 383 1361 c 1,33,-1
 383 889 l 1,34,-1
 401 889 l 2,20,21
EndSplineSet
EndChar

StartChar: guillemotright
Encoding: 187 187 124
Width: 1025
Flags: W
LayerCount: 2
Fore
SplineSet
529 92 m 0,0,1
 529 109 529 109 541.5 123.5 c 128,-1,2
 554 138 554 138 585 162 c 0,3,4
 617 186 617 186 656 220 c 128,-1,5
 695 254 695 254 733 287 c 1,6,7
 759 312 759 312 782 334 c 128,-1,8
 805 356 805 356 825 373 c 1,9,-1
 558 573 l 1,10,-1
 558 1014 l 1,11,-1
 925 687 l 1,12,-1
 925 368 l 1,13,14
 890 339 890 339 857 310.5 c 128,-1,15
 824 282 824 282 792 252 c 128,-1,16
 760 222 760 222 728 190 c 128,-1,17
 696 158 696 158 662 123 c 0,18,19
 640 99 640 99 626 85.5 c 128,-1,20
 612 72 612 72 602.5 64.5 c 128,-1,21
 593 57 593 57 586 55 c 128,-1,22
 579 53 579 53 570 53 c 0,23,24
 555 53 555 53 542 63.5 c 128,-1,25
 529 74 529 74 529 92 c 0,0,1
100 92 m 0,26,27
 100 109 100 109 112.5 123.5 c 128,-1,28
 125 138 125 138 156 162 c 0,29,30
 188 186 188 186 227 220 c 128,-1,31
 266 254 266 254 304 287 c 1,32,33
 330 312 330 312 353 334 c 128,-1,34
 376 356 376 356 396 373 c 1,35,-1
 129 573 l 1,36,-1
 129 1014 l 1,37,-1
 496 687 l 1,38,-1
 496 368 l 1,39,40
 461 339 461 339 428 310.5 c 128,-1,41
 395 282 395 282 363 252 c 128,-1,42
 331 222 331 222 299 190 c 128,-1,43
 267 158 267 158 233 123 c 0,44,45
 211 99 211 99 197 85.5 c 128,-1,46
 183 72 183 72 173.5 64.5 c 128,-1,47
 164 57 164 57 157 55 c 128,-1,48
 150 53 150 53 141 53 c 0,49,50
 126 53 126 53 113 63.5 c 128,-1,51
 100 74 100 74 100 92 c 0,26,27
EndSplineSet
EndChar

StartChar: onequarter
Encoding: 188 188 125
Width: 1753
Flags: W
LayerCount: 2
Fore
SplineSet
318 24 m 0,0,1
 318 41 318 41 329 58.5 c 128,-1,2
 340 76 340 76 369 110 c 1,3,4
 389 130 389 130 413.5 164 c 128,-1,5
 438 198 438 198 464 239 c 2,6,-1
 1130 1276 l 2,7,8
 1150 1307 1150 1307 1163.5 1335 c 128,-1,9
 1177 1363 1177 1363 1188 1383 c 0,10,11
 1199 1405 1199 1405 1211.5 1419 c 128,-1,12
 1224 1433 1224 1433 1246 1433 c 0,13,14
 1263 1433 1263 1433 1275 1423 c 128,-1,15
 1287 1413 1287 1413 1287 1396 c 256,16,17
 1287 1379 1287 1379 1279 1363 c 128,-1,18
 1271 1347 1271 1347 1255 1325 c 0,19,20
 1246 1312 1246 1312 1237 1299 c 128,-1,21
 1228 1286 1228 1286 1215.5 1267 c 128,-1,22
 1203 1248 1203 1248 1185 1220 c 128,-1,23
 1167 1192 1167 1192 1140 1150 c 2,24,-1
 514 164 l 2,25,26
 475 104 475 104 451.5 67.5 c 128,-1,27
 428 31 428 31 412 12 c 128,-1,28
 396 -7 396 -7 384.5 -13 c 128,-1,29
 373 -19 373 -19 359 -19 c 0,30,31
 341 -19 341 -19 329.5 -7 c 128,-1,32
 318 5 318 5 318 24 c 0,0,1
220 1279 m 1,33,-1
 198 1272 l 2,34,35
 172 1264 172 1264 159.5 1259 c 128,-1,36
 147 1254 147 1254 133 1249 c 1,37,38
 122 1244 122 1244 113 1241 c 128,-1,39
 104 1238 104 1238 94 1238 c 0,40,41
 77 1238 77 1238 66 1247 c 128,-1,42
 55 1256 55 1256 55 1271 c 0,43,44
 55 1285 55 1285 63.5 1295 c 128,-1,45
 72 1305 72 1305 101 1316 c 0,46,47
 106 1318 106 1318 118 1321.5 c 128,-1,48
 130 1325 130 1325 146 1329.5 c 128,-1,49
 162 1334 162 1334 179 1338.5 c 128,-1,50
 196 1343 196 1343 212 1347 c 2,51,-1
 558 1433 l 1,52,-1
 558 652 l 1,53,-1
 220 652 l 1,54,-1
 220 1279 l 1,33,-1
834 191 m 0,55,56
 834 198 834 198 835.5 205.5 c 128,-1,57
 837 213 837 213 842 223 c 128,-1,58
 847 233 847 233 855.5 247.5 c 128,-1,59
 864 262 864 262 878 284 c 2,60,-1
 1192 781 l 1,61,-1
 1521 781 l 1,62,-1
 1521 220 l 1,63,64
 1556 220 1556 220 1572.5 221 c 128,-1,65
 1589 222 1589 222 1600 224 c 0,66,67
 1603 225 1603 225 1613.5 226 c 128,-1,68
 1624 227 1624 227 1631 227 c 0,69,70
 1670 227 1670 227 1670 197 c 0,71,72
 1670 178 1670 178 1655 169.5 c 128,-1,73
 1640 161 1640 161 1617 159 c 0,74,75
 1604 157 1604 157 1579.5 156.5 c 128,-1,76
 1555 156 1555 156 1528 156 c 2,77,-1
 1521 156 l 1,78,-1
 1521 0 l 1,79,-1
 1179 0 l 1,80,-1
 1179 156 l 1,81,-1
 885 156 l 2,82,83
 859 156 859 156 846.5 166.5 c 128,-1,84
 834 177 834 177 834 191 c 0,55,56
926 225 m 0,85,86
 926 220 926 220 938 220 c 2,87,-1
 1179 220 l 1,88,-1
 1179 628 l 1,89,-1
 934 242 l 1,90,91
 929 236 929 236 927.5 232.5 c 128,-1,92
 926 229 926 229 926 225 c 0,85,86
EndSplineSet
EndChar

StartChar: onehalf
Encoding: 189 189 126
Width: 1696
Flags: W
LayerCount: 2
Fore
SplineSet
314 24 m 0,0,1
 314 33 314 33 316.5 41 c 128,-1,2
 319 49 319 49 325 58.5 c 128,-1,3
 331 68 331 68 341 80.5 c 128,-1,4
 351 93 351 93 366 110 c 0,5,6
 385 130 385 130 409 164 c 128,-1,7
 433 198 433 198 459 239 c 2,8,-1
 1125 1276 l 2,9,10
 1145 1307 1145 1307 1158.5 1335 c 128,-1,11
 1172 1363 1172 1363 1183 1383 c 0,12,13
 1194 1405 1194 1405 1206.5 1419 c 128,-1,14
 1219 1433 1219 1433 1242 1433 c 0,15,16
 1259 1433 1259 1433 1270.5 1423 c 128,-1,17
 1282 1413 1282 1413 1282 1396 c 256,18,19
 1282 1379 1282 1379 1274 1363 c 128,-1,20
 1266 1347 1266 1347 1251 1325 c 0,21,22
 1242 1312 1242 1312 1233 1299 c 128,-1,23
 1224 1286 1224 1286 1211.5 1267 c 128,-1,24
 1199 1248 1199 1248 1181 1220 c 128,-1,25
 1163 1192 1163 1192 1136 1150 c 2,26,-1
 510 164 l 2,27,28
 471 104 471 104 447 67.5 c 128,-1,29
 423 31 423 31 407 12 c 128,-1,30
 391 -7 391 -7 379.5 -13 c 128,-1,31
 368 -19 368 -19 354 -19 c 0,32,33
 337 -19 337 -19 325.5 -7 c 128,-1,34
 314 5 314 5 314 24 c 0,0,1
220 1279 m 1,35,-1
 198 1272 l 2,36,37
 172 1264 172 1264 159.5 1259 c 128,-1,38
 147 1254 147 1254 133 1249 c 1,39,40
 122 1244 122 1244 113 1241 c 128,-1,41
 104 1238 104 1238 94 1238 c 0,42,43
 77 1238 77 1238 66 1247 c 128,-1,44
 55 1256 55 1256 55 1271 c 0,45,46
 55 1285 55 1285 63.5 1295 c 128,-1,47
 72 1305 72 1305 101 1316 c 0,48,49
 106 1318 106 1318 118 1321.5 c 128,-1,50
 130 1325 130 1325 146 1329.5 c 128,-1,51
 162 1334 162 1334 179 1338.5 c 128,-1,52
 196 1343 196 1343 212 1347 c 2,53,-1
 558 1433 l 1,54,-1
 558 652 l 1,55,-1
 220 652 l 1,56,-1
 220 1279 l 1,35,-1
963 0 m 1,57,58
 966 31 966 31 977 67 c 128,-1,59
 988 103 988 103 1012 151 c 128,-1,60
 1036 199 1036 199 1075 262.5 c 128,-1,61
 1114 326 1114 326 1173 413 c 0,62,63
 1221 484 1221 484 1249.5 527 c 128,-1,64
 1278 570 1278 570 1292 595.5 c 128,-1,65
 1306 621 1306 621 1310 633.5 c 128,-1,66
 1314 646 1314 646 1314 657 c 0,67,68
 1314 686 1314 686 1285.5 700.5 c 128,-1,69
 1257 715 1257 715 1209 715 c 0,70,71
 1185 715 1185 715 1160 710 c 128,-1,72
 1135 705 1135 705 1113 696 c 128,-1,73
 1091 687 1091 687 1072.5 673.5 c 128,-1,74
 1054 660 1054 660 1043 644 c 0,75,76
 1023 617 1023 617 1001 617 c 0,77,78
 987 617 987 617 979 627.5 c 128,-1,79
 971 638 971 638 971 650 c 0,80,81
 971 687 971 687 1039 726 c 0,82,83
 1083 752 1083 752 1136 766.5 c 128,-1,84
 1189 781 1189 781 1258 781 c 0,85,86
 1331 781 1331 781 1390.5 765 c 128,-1,87
 1450 749 1450 749 1492 722 c 128,-1,88
 1534 695 1534 695 1556.5 659 c 128,-1,89
 1579 623 1579 623 1579 584 c 0,90,91
 1579 554 1579 554 1575.5 529.5 c 128,-1,92
 1572 505 1572 505 1559 472 c 128,-1,93
 1546 439 1546 439 1521 392 c 128,-1,94
 1496 345 1496 345 1453 271 c 0,95,96
 1430 233 1430 233 1413 203 c 128,-1,97
 1396 173 1396 173 1384 149 c 128,-1,98
 1372 125 1372 125 1364 105.5 c 128,-1,99
 1356 86 1356 86 1350 68 c 1,100,-1
 1456 68 l 2,101,102
 1478 68 1478 68 1494 69 c 128,-1,103
 1510 70 1510 70 1524 73 c 0,104,105
 1535 75 1535 75 1545 76 c 128,-1,106
 1555 77 1555 77 1560 77 c 0,107,108
 1580 77 1580 77 1592 67 c 128,-1,109
 1604 57 1604 57 1604 41 c 0,110,111
 1604 0 1604 0 1506 0 c 2,112,-1
 963 0 l 1,57,58
EndSplineSet
EndChar

StartChar: threequarters
Encoding: 190 190 127
Width: 1809
Flags: W
LayerCount: 2
Fore
SplineSet
393 24 m 0,0,1
 393 33 393 33 395.5 41 c 128,-1,2
 398 49 398 49 404 58.5 c 128,-1,3
 410 68 410 68 420 80.5 c 128,-1,4
 430 93 430 93 445 110 c 0,5,6
 463 130 463 130 488 164 c 128,-1,7
 513 198 513 198 539 239 c 2,8,-1
 1205 1276 l 2,9,10
 1224 1307 1224 1307 1238 1335 c 128,-1,11
 1252 1363 1252 1363 1262 1383 c 0,12,13
 1273 1405 1273 1405 1285.5 1419 c 128,-1,14
 1298 1433 1298 1433 1321 1433 c 0,15,16
 1338 1433 1338 1433 1350 1423 c 128,-1,17
 1362 1413 1362 1413 1362 1396 c 256,18,19
 1362 1379 1362 1379 1354.5 1363 c 128,-1,20
 1347 1347 1347 1347 1331 1325 c 0,21,22
 1322 1312 1322 1312 1312.5 1299 c 128,-1,23
 1303 1286 1303 1286 1290.5 1267 c 128,-1,24
 1278 1248 1278 1248 1260 1220 c 128,-1,25
 1242 1192 1242 1192 1215 1150 c 2,26,-1
 588 164 l 2,27,28
 549 104 549 104 525.5 67.5 c 128,-1,29
 502 31 502 31 486 12 c 128,-1,30
 470 -7 470 -7 458 -13 c 128,-1,31
 446 -19 446 -19 432 -19 c 0,32,33
 415 -19 415 -19 404 -7 c 128,-1,34
 393 5 393 5 393 24 c 0,0,1
115 699 m 0,35,36
 89 717 89 717 72 741 c 128,-1,37
 55 765 55 765 55 784 c 0,38,39
 55 798 55 798 63 808.5 c 128,-1,40
 71 819 71 819 88 819 c 0,41,42
 115 819 115 819 133 785 c 1,43,44
 144 768 144 768 168 752 c 128,-1,45
 192 736 192 736 222.5 723.5 c 128,-1,46
 253 711 253 711 288.5 703.5 c 128,-1,47
 324 696 324 696 359 696 c 0,48,49
 370 696 370 696 379 696 c 128,-1,50
 388 696 388 696 396 698 c 1,51,-1
 396 1038 l 1,52,53
 386 1039 386 1039 376.5 1039 c 128,-1,54
 367 1039 367 1039 361 1039 c 0,55,56
 354 1039 354 1039 347.5 1038.5 c 128,-1,57
 341 1038 341 1038 336 1037 c 0,58,59
 328 1035 328 1035 316.5 1034 c 128,-1,60
 305 1033 305 1033 297 1033 c 0,61,62
 273 1033 273 1033 259 1043 c 128,-1,63
 245 1053 245 1053 245 1069 c 256,64,65
 245 1085 245 1085 257 1094.5 c 128,-1,66
 269 1104 269 1104 289 1104 c 0,67,68
 297 1104 297 1104 307.5 1103.5 c 128,-1,69
 318 1103 318 1103 326 1101 c 0,70,71
 345 1098 345 1098 362 1098 c 2,72,-1
 396 1098 l 1,73,-1
 396 1369 l 1,74,75
 388 1370 388 1370 379 1370.5 c 128,-1,76
 370 1371 370 1371 359 1371 c 0,77,78
 309 1371 309 1371 257.5 1358.5 c 128,-1,79
 206 1346 206 1346 172 1319 c 0,80,81
 161 1309 161 1309 150 1303.5 c 128,-1,82
 139 1298 139 1298 127 1298 c 0,83,84
 113 1298 113 1298 104 1306.5 c 128,-1,85
 95 1315 95 1315 95 1329 c 0,86,87
 95 1372 95 1372 203 1407 c 1,88,89
 233 1418 233 1418 283 1425.5 c 128,-1,90
 333 1433 333 1433 385 1433 c 0,91,92
 446 1433 446 1433 497.5 1425 c 128,-1,93
 549 1417 549 1417 584 1403 c 0,94,95
 647 1377 647 1377 676.5 1337.5 c 128,-1,96
 706 1298 706 1298 706 1251 c 0,97,98
 706 1159 706 1159 618 1101 c 0,99,100
 604 1091 604 1091 588.5 1084 c 128,-1,101
 573 1077 573 1077 556 1072 c 1,102,103
 595 1060 595 1060 626 1039.5 c 128,-1,104
 657 1019 657 1019 679.5 992.5 c 128,-1,105
 702 966 702 966 714 936.5 c 128,-1,106
 726 907 726 907 726 877 c 0,107,108
 726 815 726 815 687.5 762.5 c 128,-1,109
 649 710 649 710 587 677 c 0,110,111
 552 658 552 658 490 645.5 c 128,-1,112
 428 633 428 633 356 633 c 0,113,114
 288 633 288 633 226 648.5 c 128,-1,115
 164 664 164 664 115 699 c 0,35,36
437 1360 m 2,116,117
 433 1362 433 1362 431 1362 c 2,118,-1
 437 1360 l 2,116,117
890 191 m 0,119,120
 890 198 890 198 891.5 205.5 c 128,-1,121
 893 213 893 213 898 223 c 128,-1,122
 903 233 903 233 912 247.5 c 128,-1,123
 921 262 921 262 935 284 c 2,124,-1
 1249 781 l 1,125,-1
 1578 781 l 1,126,-1
 1578 220 l 1,127,128
 1612 220 1612 220 1627.5 221 c 128,-1,129
 1643 222 1643 222 1654 224 c 0,130,131
 1659 225 1659 225 1670 226 c 128,-1,132
 1681 227 1681 227 1687 227 c 0,133,134
 1728 227 1728 227 1728 197 c 0,135,136
 1728 178 1728 178 1712 169.5 c 128,-1,137
 1696 161 1696 161 1673 159 c 0,138,139
 1660 157 1660 157 1635.5 156.5 c 128,-1,140
 1611 156 1611 156 1584 156 c 2,141,-1
 1578 156 l 1,142,-1
 1578 0 l 1,143,-1
 1236 0 l 1,144,-1
 1236 156 l 1,145,-1
 943 156 l 2,146,147
 917 156 917 156 903.5 166.5 c 128,-1,148
 890 177 890 177 890 191 c 0,119,120
982 225 m 0,149,150
 982 220 982 220 995 220 c 2,151,-1
 1236 220 l 1,152,-1
 1236 631 l 1,153,-1
 990 242 l 2,154,155
 982 231 982 231 982 225 c 0,149,150
EndSplineSet
EndChar

